  0
SECTION
  2
HEADER
  9
$ACADVER
  1
AC1015
  9
$ACADMAINTVER
 70
     6
  9
$DWGCODEPAGE
  3
ANSI_936
  9
$INSBASE
 10
0.0
 20
0.0
 30
0.0
  9
$EXTMIN
 10
-17.0895809128
 20
-17.0895809128
 30
0.0
  9
$EXTMAX
 10
17.0895809128
 20
17.0895809128
 30
0.0
  9
$LIMMIN
 10
0.0
 20
0.0
  9
$LIMMAX
 10
420.0
 20
297.0
  9
$ORTHOMODE
 70
     0
  9
$REGENMODE
 70
     1
  9
$FILLMODE
 70
     1
  9
$QTEXTMODE
 70
     0
  9
$MIRRTEXT
 70
     1
  9
$LTSCALE
 40
1.0
  9
$ATTMODE
 70
     1
  9
$TEXTSIZE
 40
3.5
  9
$TRACEWID
 40
1.0
  9
$TEXTSTYLE
  7
Standard
  9
$CLAYER
  8
0
  9
$CELTYPE
  6
ByLayer
  9
$CECOLOR
 62
   256
  9
$CELTSCALE
 40
1.0
  9
$DISPSILH
 70
     0
  9
$DIMSCALE
 40
1.0
  9
$DIMASZ
 40
3.302
  9
$DIMEXO
 40
0.0
  9
$DIMDLI
 40
3.75
  9
$DIMRND
 40
0.0
  9
$DIMDLE
 40
0.0
  9
$DIMEXE
 40
1.0
  9
$DIMTP
 40
0.0
  9
$DIMTM
 40
0.0
  9
$DIMTXT
 40
3.5
  9
$DIMCEN
 40
2.5
  9
$DIMTSZ
 40
0.0
  9
$DIMTOL
 70
     0
  9
$DIMLIM
 70
     0
  9
$DIMTIH
 70
     1
  9
$DIMTOH
 70
     1
  9
$DIMSE1
 70
     0
  9
$DIMSE2
 70
     0
  9
$DIMTAD
 70
     1
  9
$DIMZIN
 70
     1
  9
$DIMBLK
  1

  9
$DIMASO
 70
     1
  9
$DIMSHO
 70
     1
  9
$DIMPOST
  1

  9
$DIMAPOST
  1

  9
$DIMALT
 70
     0
  9
$DIMALTD
 70
     3
  9
$DIMALTF
 40
0.0393700787
  9
$DIMLFAC
 40
1.0
  9
$DIMTOFL
 70
     1
  9
$DIMTVP
 40
0.0
  9
$DIMTIX
 70
     0
  9
$DIMSOXD
 70
     0
  9
$DIMSAH
 70
     0
  9
$DIMBLK1
  1

  9
$DIMBLK2
  1

  9
$DIMSTYLE
  2
ISO-25
  9
$DIMCLRD
 70
     0
  9
$DIMCLRE
 70
     0
  9
$DIMCLRT
 70
     0
  9
$DIMTFAC
 40
1.0
  9
$DIMGAP
 40
1.524
  9
$DIMJUST
 70
     0
  9
$DIMSD1
 70
     0
  9
$DIMSD2
 70
     0
  9
$DIMTOLJ
 70
     0
  9
$DIMTZIN
 70
     1
  9
$DIMALTZ
 70
     0
  9
$DIMALTTZ
 70
     0
  9
$DIMUPT
 70
     0
  9
$DIMDEC
 70
     2
  9
$DIMTDEC
 70
     2
  9
$DIMALTU
 70
     2
  9
$DIMALTTD
 70
     3
  9
$DIMTXSTY
  7
Standard
  9
$DIMAUNIT
 70
     0
  9
$DIMADEC
 70
     2
  9
$DIMALTRND
 40
0.0
  9
$DIMAZIN
 70
     0
  9
$DIMDSEP
 70
    44
  9
$DIMATFIT
 70
     3
  9
$DIMFRAC
 70
     0
  9
$DIMLDRBLK
  1

  9
$DIMLUNIT
 70
     2
  9
$DIMLWD
 70
    -2
  9
$DIMLWE
 70
    -2
  9
$DIMTMOVE
 70
     0
  9
$LUNITS
 70
     2
  9
$LUPREC
 70
     2
  9
$SKETCHINC
 40
1.0
  9
$FILLETRAD
 40
0.0
  9
$AUNITS
 70
     0
  9
$AUPREC
 70
     2
  9
$MENU
  1
.
  9
$ELEVATION
 40
0.0
  9
$PELEVATION
 40
0.0
  9
$THICKNESS
 40
0.0
  9
$LIMCHECK
 70
     0
  9
$CHAMFERA
 40
0.0
  9
$CHAMFERB
 40
0.0
  9
$CHAMFERC
 40
0.0
  9
$CHAMFERD
 40
0.0
  9
$SKPOLY
 70
     0
  9
$TDCREATE
 40
2460903.636524005
  9
$TDUCREATE
 40
2460903.594857338
  9
$TDUPDATE
 40
2460903.636537118
  9
$TDUUPDATE
 40
2460903.594870452
  9
$TDINDWG
 40
0.0000000116
  9
$TDUSRTIMER
 40
0.0000000116
  9
$USRTIMER
 70
     1
  9
$ANGBASE
 50
0.0
  9
$ANGDIR
 70
     0
  9
$PDMODE
 70
     0
  9
$PDSIZE
 40
-1.0
  9
$PLINEWID
 40
0.0
  9
$SPLFRAME
 70
     0
  9
$SPLINETYPE
 70
     6
  9
$SPLINESEGS
 70
     8
  9
$HANDSEED
  5
A8
  9
$SURFTAB1
 70
     6
  9
$SURFTAB2
 70
     6
  9
$SURFTYPE
 70
     6
  9
$SURFU
 70
     6
  9
$SURFV
 70
     6
  9
$UCSBASE
  2

  9
$UCSNAME
  2

  9
$UCSORG
 10
0.0
 20
0.0
 30
0.0
  9
$UCSXDIR
 10
1.0
 20
0.0
 30
0.0
  9
$UCSYDIR
 10
0.0
 20
1.0
 30
0.0
  9
$UCSORTHOREF
  2

  9
$UCSORTHOVIEW
 70
     0
  9
$UCSORGTOP
 10
0.0
 20
0.0
 30
0.0
  9
$UCSORGBOTTOM
 10
0.0
 20
0.0
 30
0.0
  9
$UCSORGLEFT
 10
0.0
 20
0.0
 30
0.0
  9
$UCSORGRIGHT
 10
0.0
 20
0.0
 30
0.0
  9
$UCSORGFRONT
 10
0.0
 20
0.0
 30
0.0
  9
$UCSORGBACK
 10
0.0
 20
0.0
 30
0.0
  9
$PUCSBASE
  2

  9
$PUCSNAME
  2

  9
$PUCSORG
 10
0.0
 20
0.0
 30
0.0
  9
$PUCSXDIR
 10
1.0
 20
0.0
 30
0.0
  9
$PUCSYDIR
 10
0.0
 20
1.0
 30
0.0
  9
$PUCSORTHOREF
  2

  9
$PUCSORTHOVIEW
 70
     0
  9
$PUCSORGTOP
 10
0.0
 20
0.0
 30
0.0
  9
$PUCSORGBOTTOM
 10
0.0
 20
0.0
 30
0.0
  9
$PUCSORGLEFT
 10
0.0
 20
0.0
 30
0.0
  9
$PUCSORGRIGHT
 10
0.0
 20
0.0
 30
0.0
  9
$PUCSORGFRONT
 10
0.0
 20
0.0
 30
0.0
  9
$PUCSORGBACK
 10
0.0
 20
0.0
 30
0.0
  9
$USERI1
 70
     0
  9
$USERI2
 70
     0
  9
$USERI3
 70
     0
  9
$USERI4
 70
     0
  9
$USERI5
 70
     0
  9
$USERR1
 40
0.0
  9
$USERR2
 40
0.0
  9
$USERR3
 40
0.0
  9
$USERR4
 40
0.0
  9
$USERR5
 40
0.0
  9
$WORLDVIEW
 70
     1
  9
$SHADEDGE
 70
     3
  9
$SHADEDIF
 70
    70
  9
$TILEMODE
 70
     1
  9
$MAXACTVP
 70
    64
  9
$PINSBASE
 10
0.0
 20
0.0
 30
0.0
  9
$PLIMCHECK
 70
     0
  9
$PEXTMIN
 10
1.0000000000E+20
 20
1.0000000000E+20
 30
1.0000000000E+20
  9
$PEXTMAX
 10
-1.0000000000E+20
 20
-1.0000000000E+20
 30
-1.0000000000E+20
  9
$PLIMMIN
 10
0.0
 20
0.0
  9
$PLIMMAX
 10
420.0
 20
297.0
  9
$UNITMODE
 70
     0
  9
$VISRETAIN
 70
     1
  9
$PLINEGEN
 70
     0
  9
$PSLTSCALE
 70
     1
  9
$TREEDEPTH
 70
  3020
  9
$CMLSTYLE
  2
Standard
  9
$CMLJUST
 70
     0
  9
$CMLSCALE
 40
20.0
  9
$PROXYGRAPHICS
 70
     1
  9
$MEASUREMENT
 70
     1
  9
$CELWEIGHT
370
    -1
  9
$ENDCAPS
280
     0
  9
$JOINSTYLE
280
     0
  9
$LWDISPLAY
290
     1
  9
$INSUNITS
 70
     4
  9
$HYPERLINKBASE
  1

  9
$STYLESHEET
  1

  9
$XEDIT
290
     1
  9
$CEPSNTYPE
380
     0
  9
$PSTYLEMODE
290
     1
  9
$FINGERPRINTGUID
  2
{147bbaf5-6013-43d8-ae19-fa2d4f5f4dd6}
  9
$VERSIONGUID
  2
{FAEB1C32-E019-11D5-929B-00C0DF256EC4}
  9
$EXTNAMES
290
     1
  9
$PSVPSCALE
 40
0.0
  9
$OLESTARTUP
290
     0
  0
ENDSEC
  0
SECTION
  2
CLASSES
  0
CLASS
  1
ACDBDICTIONARYWDFLT
  2
AcDbDictionaryWithDefault
  3
ObjectDBX Classes
 90
        0
280
     0
281
     0
  0
CLASS
  1
VISUALSTYLE
  2
AcDbVisualStyle
  3
ObjectDBX Classes
 90
     4095
280
     0
281
     0
  0
CLASS
  1
MATERIAL
  2
AcDbMaterial
  3
ObjectDBX Classes
 90
     1153
280
     0
281
     0
  0
CLASS
  1
SCALE
  2
AcDbScale
  3
ObjectDBX Classes
 90
     1153
280
     0
281
     0
  0
CLASS
  1
TABLESTYLE
  2
AcDbTableStyle
  3
ObjectDBX Classes
 90
     4095
280
     0
281
     0
  0
CLASS
  1
MLEADERSTYLE
  2
AcDbMLeaderStyle
  3
ACDB_MLEADERSTYLE_CLASS
 90
     4095
280
     0
281
     0
  0
CLASS
  1
SUN
  2
AcDbSun
  3
SCENEOE
 90
     1153
280
     0
281
     0
  0
CLASS
  1
ACDBPLACEHOLDER
  2
AcDbPlaceHolder
  3
ObjectDBX Classes
 90
        0
280
     0
281
     0
  0
CLASS
  1
LAYOUT
  2
AcDbLayout
  3
ObjectDBX Classes
 90
        0
280
     0
281
     0
  0
ENDSEC
  0
SECTION
  2
TABLES
  0
TABLE
  2
VPORT
  5
8
330
0
100
AcDbSymbolTable
 70
     1
  0
VPORT
  5
29
330
8
100
AcDbSymbolTableRecord
100
AcDbViewportTableRecord
  2
*Active
 70
     0
 10
0.0
 20
0.0
 11
1.0
 21
1.0
 12
0.0
 22
0.0
 13
0.0
 23
0.0
 14
10.0
 24
10.0
 15
10.0
 25
10.0
 16
0.0
 26
0.0
 36
1.0
 17
0.0
 27
0.0
 37
0.0
 40
34.8627450622
 41
1.0
 42
50.0
 43
0.0
 44
0.0
 50
0.0
 51
0.0
 71
     0
 72
   100
 73
     1
 74
     3
 75
     0
 76
     0
 77
     0
 78
     0
281
     0
 65
     1
110
0.0
120
0.0
130
0.0
111
1.0
121
0.0
131
0.0
112
0.0
122
1.0
132
0.0
 79
     0
146
0.0
  0
ENDTAB
  0
TABLE
  2
LTYPE
  5
5
330
0
100
AcDbSymbolTable
 70
     6
  0
LTYPE
  5
14
330
5
100
AcDbSymbolTableRecord
100
AcDbLinetypeTableRecord
  2
ByBlock
 70
     0
  3

 72
    65
 73
     0
 40
0.0
  0
LTYPE
  5
15
330
5
100
AcDbSymbolTableRecord
100
AcDbLinetypeTableRecord
  2
ByLayer
 70
     0
  3

 72
    65
 73
     0
 40
0.0
  0
LTYPE
  5
16
330
5
100
AcDbSymbolTableRecord
100
AcDbLinetypeTableRecord
  2
Continuous
 70
     0
  3
Solid line
 72
    65
 73
     0
 40
0.0
  0
LTYPE
  5
5E
330
5
100
AcDbSymbolTableRecord
100
AcDbLinetypeTableRecord
  2
HIDDEN
 70
     0
  3
Hidden __ __ __ __ __ __ __ __ __ __ __ __ __ __
 72
    65
 73
     2
 40
1.905
 49
1.27
 74
     0
 49
-0.635
 74
     0
  0
LTYPE
  5
5F
330
5
100
AcDbSymbolTableRecord
100
AcDbLinetypeTableRecord
  2
PHANTOM
 70
     0
  3
Phantom ______  __  __  ______  __  __  ______
 72
    65
 73
     6
 40
12.7
 49
6.35
 74
     0
 49
-1.27
 74
     0
 49
1.27
 74
     0
 49
-1.27
 74
     0
 49
1.27
 74
     0
 49
-1.27
 74
     0
  0
LTYPE
  5
60
330
5
100
AcDbSymbolTableRecord
100
AcDbLinetypeTableRecord
  2
CENTER
 70
     0
  3
Center ____ _ ____ _ ____ _ ____ _ ____ _ ____
 72
    65
 73
     4
 40
10.16
 49
6.35
 74
     0
 49
-1.27
 74
     0
 49
1.27
 74
     0
 49
-1.27
 74
     0
  0
LTYPE
  5
61
330
5
100
AcDbSymbolTableRecord
100
AcDbLinetypeTableRecord
  2
CENTERX2
 70
     0
  3
Center (2x) ________  __  ________  __  _____
 72
    65
 73
     4
 40
20.32
 49
12.7
 74
     0
 49
-2.54
 74
     0
 49
2.54
 74
     0
 49
-2.54
 74
     0
  0
LTYPE
  5
62
330
5
100
AcDbSymbolTableRecord
100
AcDbLinetypeTableRecord
  2
DOT2
 70
     0
  3
Dot (.5x) ........................................
 72
    65
 73
     2
 40
0.635
 49
0.0
 74
     0
 49
-0.635
 74
     0
  0
ENDTAB
  0
TABLE
  2
LAYER
  5
2
330
0
100
AcDbSymbolTable
 70
     1
  0
LAYER
  5
10
330
2
100
AcDbSymbolTableRecord
100
AcDbLayerTableRecord
  2
0
 70
     0
 62
     7
  6
Continuous
370
    -3
390
F
  0
ENDTAB
  0
TABLE
  2
STYLE
  5
3
330
0
100
AcDbSymbolTable
 70
     2
  0
STYLE
  5
11
330
3
100
AcDbSymbolTableRecord
100
AcDbTextStyleTableRecord
  2
Standard
 70
     0
 40
0.0
 41
1.0
 50
0.0
 71
     0
 42
3.5
  3
txt
  4

  0
STYLE
  5
A4
330
3
100
AcDbSymbolTableRecord
100
AcDbTextStyleTableRecord
  2
SLDTEXTSTYLE0
 70
     0
 40
0.0
 41
0.7
 50
0.0
 71
     0
 42
3.5
  3
TXT
  4

  0
ENDTAB
  0
TABLE
  2
VIEW
  5
6
330
0
100
AcDbSymbolTable
 70
     0
  0
ENDTAB
  0
TABLE
  2
UCS
  5
7
330
0
100
AcDbSymbolTable
 70
     0
  0
ENDTAB
  0
TABLE
  2
APPID
  5
9
330
0
100
AcDbSymbolTable
 70
     1
  0
APPID
  5
12
330
9
100
AcDbSymbolTableRecord
100
AcDbRegAppTableRecord
  2
ACAD
 70
     0
  0
ENDTAB
  0
TABLE
  2
DIMSTYLE
  5
A
330
0
100
AcDbSymbolTable
 70
     1
100
AcDbDimStyleTable
  0
DIMSTYLE
105
27
330
A
100
AcDbSymbolTableRecord
100
AcDbDimStyleTableRecord
  2
ISO-25
 70
     0
 41
2.5
 42
0.625
 43
3.75
 44
1.25
 73
     0
 74
     0
 77
     1
 78
     8
140
2.5
141
2.5
143
0.0393700787
147
0.625
171
     3
172
     1
178
     0
271
     2
272
     2
274
     3
278
    44
283
     0
284
     8
340
11
  0
ENDTAB
  0
TABLE
  2
BLOCK_RECORD
  5
1
330
0
100
AcDbSymbolTable
 70
     1
  0
BLOCK_RECORD
  5
1F
330
1
100
AcDbSymbolTableRecord
100
AcDbBlockTableRecord
  2
*Model_Space
340
22
  0
BLOCK_RECORD
  5
1B
330
1
100
AcDbSymbolTableRecord
100
AcDbBlockTableRecord
  2
*Paper_Space
340
1E
  0
BLOCK_RECORD
  5
23
330
1
100
AcDbSymbolTableRecord
100
AcDbBlockTableRecord
  2
*Paper_Space0
340
26
  0
ENDTAB
  0
ENDSEC
  0
SECTION
  2
BLOCKS
  0
BLOCK
  5
20
330
1F
100
AcDbEntity
  8
0
100
AcDbBlockBegin
  2
*Model_Space
 70
     0
 10
0.0
 20
0.0
 30
0.0
  3
*Model_Space
  1

  0
ENDBLK
  5
21
330
1F
100
AcDbEntity
  8
0
100
AcDbBlockEnd
  0
BLOCK
  5
1C
330
1B
100
AcDbEntity
 67
     1
  8
0
100
AcDbBlockBegin
  2
*Paper_Space
 70
     0
 10
0.0
 20
0.0
 30
0.0
  3
*Paper_Space
  1

  0
ENDBLK
  5
1D
330
1B
100
AcDbEntity
 67
     1
  8
0
100
AcDbBlockEnd
  0
BLOCK
  5
24
330
23
100
AcDbEntity
  8
0
100
AcDbBlockBegin
  2
*Paper_Space0
 70
     0
 10
0.0
 20
0.0
 30
0.0
  3
*Paper_Space0
  1

  0
ENDBLK
  5
25
330
23
100
AcDbEntity
  8
0
100
AcDbBlockEnd
  0
ENDSEC
  0
SECTION
  2
ENTITIES
  0
SPLINE
  5
63
330
1F
100
AcDbEntity
  8
0
  6
Continuous
 62
     7
370
    25
100
AcDbSpline
210
0.0
220
0.0
230
1.0
 70
     8
 71
     3
 72
    21
 73
    17
 74
     0
 42
0.00000001
 43
0.00000001
 40
-0.5448854583874859
 40
-0.5448854583874859
 40
-0.5448854583874859
 40
-0.5448854583874859
 40
-0.4760133859089344
 40
-0.4071413134303828
 40
-0.3727052771911071
 40
-0.3382692409518313
 40
-0.3038332047125555
 40
-0.2866151865929176
 40
-0.2693971684732797
 40
-0.2521791503536418
 40
-0.2349611322340039
 40
-0.2005250959947282
 40
-0.1660890597554524
 40
-0.1316530235161766
 40
-0.062780951037625
 40
0.0060911214409265
 40
0.0060911214409265
 40
0.0060911214409265
 40
0.0060911214409265
 10
9.990721118834452
 20
13.8778777745618
 30
0.0
 10
9.783716412327227
 20
13.77308734750878
 30
0.0
 10
9.372083279114962
 20
13.55915329639725
 30
0.0
 10
8.890966495660747
 20
13.22703463858454
 30
0.0
 10
8.525086464425868
 20
12.93027598558099
 30
0.0
 10
8.293139614188265
 20
12.66049239903532
 30
0.0
 10
8.080366400411778
 20
12.55361960720233
 30
0.0
 10
7.909167954319377
 20
12.56702212639632
 30
0.0
 10
7.777796649072913
 20
12.65145564545059
 30
0.0
 10
7.643150812287999
 20
12.73056277293297
 30
0.0
 10
7.553906971993426
 20
12.87727361927623
 30
0.0
 10
7.553217125270629
 20
13.11537813046078
 30
0.0
 10
7.689237738450149
 20
13.44413475426449
 30
0.0
 10
7.788866411965023
 20
13.90457804371787
 30
0.0
 10
7.868025260093163
 20
14.48381032782459
 30
0.0
 10
7.873094663773443
 20
14.94768953163688
 30
0.0
 10
7.873150810245141
 20
15.17970672704635
 30
0.0
  0
ARC
  5
64
330
1F
100
AcDbEntity
  8
0
  6
Continuous
 62
     7
370
    25
100
AcDbCircle
 10
0.0
 20
0.0
 30
0.0
 40
17.09999999999999
100
AcDbArc
 50
62.5859050707
 51
65.49978599
  0
SPLINE
  5
65
330
1F
100
AcDbEntity
  8
0
  6
Continuous
 62
     7
370
    25
100
AcDbSpline
210
0.0
220
0.0
230
1.0
 70
     8
 71
     3
 72
    21
 73
    17
 74
     0
 42
0.00000001
 43
0.00000001
 40
-0.5448854583874908
 40
-0.5448854583874908
 40
-0.5448854583874908
 40
-0.5448854583874908
 40
-0.4760133859089379
 40
-0.407141313430385
 40
-0.3727052771911086
 40
-0.3382692409518321
 40
-0.3038332047125556
 40
-0.2866151865929174
 40
-0.2693971684732792
 40
-0.252179150353641
 40
-0.2349611322340028
 40
-0.2005250959947263
 40
-0.1660890597554499
 40
-0.1316530235161734
 40
-0.0627809510376205
 40
0.0060911214409324
 40
0.0060911214409324
 40
0.0060911214409324
 40
0.0060911214409324
 10
7.091312570026772
 20
15.56031124477207
 30
0.0
 10
6.908728999068265
 20
15.41714972153996
 30
0.0
 10
6.546741744008993
 20
15.12702071272183
 30
0.0
 10
6.139662620542397
 20
14.70742239358042
 30
0.0
 10
5.838707612689339
 20
14.34498622176942
 30
0.0
 10
5.663849722914148
 20
14.03513586548749
 30
0.0
 10
5.476014734151899
 20
13.88880660959017
 30
0.0
 10
5.305491116410773
 20
13.86855244315898
 30
0.0
 10
5.160171911536675
 20
13.9257343255759
 30
0.0
 10
5.012680221775844
 20
13.97705333212913
 30
0.0
 10
4.896529310592212
 20
14.10353456115709
 30
0.0
 10
4.84940083332004
 20
14.33692937850502
 30
0.0
 10
4.918670612955258
 20
14.68590534119297
 30
0.0
 10
4.926556919835099
 20
15.15693793194732
 30
0.0
 10
4.891192140064317
 20
15.74048355530533
 30
0.0
 10
4.805665793326058
 20
16.19643844188597
 30
0.0
 10
4.760456551593268
 20
16.42400844557724
 30
0.0
  0
ARC
  5
66
330
1F
100
AcDbEntity
  8
0
  6
Continuous
 62
     7
370
    25
100
AcDbCircle
 10
0.0
 20
0.0
 30
0.0
 40
17.09999999999999
100
AcDbArc
 50
73.8359050707
 51
76.74978599
  0
SPLINE
  5
67
330
1F
100
AcDbEntity
  8
0
  6
Continuous
 62
     7
370
    25
100
AcDbSpline
210
0.0
220
0.0
230
1.0
 70
     8
 71
     3
 72
    21
 73
    17
 74
     0
 42
0.00000001
 43
0.00000001
 40
-0.5448854583874865
 40
-0.5448854583874865
 40
-0.5448854583874865
 40
-0.5448854583874865
 40
-0.4760133859089348
 40
-0.4071413134303831
 40
-0.3727052771911072
 40
-0.3382692409518313
 40
-0.3038332047125555
 40
-0.2866151865929175
 40
-0.2693971684732796
 40
-0.2521791503536417
 40
-0.2349611322340038
 40
-0.2005250959947279
 40
-0.166089059755452
 40
-0.1316530235161762
 40
-0.0627809510376245
 40
0.0060911214409272
 40
0.0060911214409272
 40
0.0060911214409272
 40
0.0060911214409272
 10
3.919388856006902
 20
16.64477068016885
 30
0.0
 10
3.768243004834992
 20
16.46873967780955
 30
0.0
 10
3.469812595135794
 20
16.11356520638746
 30
0.0
 10
3.152414954079056
 20
15.62261215400859
 30
0.0
 10
2.927950501781943
 20
15.20842668221613
 30
0.0
 10
2.816901263112026
 20
14.87041693162394
 30
0.0
 10
2.661222892642572
 20
14.69025456290395
 30
0.0
 10
2.497927230252327
 20
14.63712206710494
 30
0.0
 10
2.344244661297447
 20
14.66485484521114
 30
0.0
 10
2.189575141484507
 20
14.6864135701934
 30
0.0
 10
2.050980773790009
 20
14.78780457920596
 30
0.0
 10
1.959224786920372
 20
15.00752047077622
 30
0.0
 10
1.959081734226671
 20
15.36330482180997
 30
0.0
 10
1.874922608120817
 20
15.82682519556073
 30
0.0
 10
1.726393249104953
 20
16.3922588271205
 30
0.0
 10
1.553557881489656
 20
16.82276730588073
 30
0.0
 10
1.464820617358545
 20
17.03714473023465
 30
0.0
  0
ARC
  5
68
330
1F
100
AcDbEntity
  8
0
  6
Continuous
 62
     7
370
    25
100
AcDbCircle
 10
0.0
 20
0.0
 30
0.0
 40
17.10000000000003
100
AcDbArc
 50
85.0859050707
 51
87.99978599
  0
SPLINE
  5
69
330
1F
100
AcDbEntity
  8
0
  6
Continuous
 62
     7
370
    25
100
AcDbSpline
210
0.0
220
0.0
230
1.0
 70
     8
 71
     3
 72
    21
 73
    17
 74
     0
 42
0.00000001
 43
0.00000001
 40
-0.5448854583874807
 40
-0.5448854583874807
 40
-0.5448854583874807
 40
-0.5448854583874807
 40
-0.4760133859089289
 40
-0.4071413134303771
 40
-0.3727052771911012
 40
-0.3382692409518253
 40
-0.3038332047125494
 40
-0.2866151865929115
 40
-0.2693971684732736
 40
-0.2521791503536356
 40
-0.2349611322339976
 40
-0.2005250959947217
 40
-0.1660890597554459
 40
-0.1316530235161699
 40
-0.0627809510376182
 40
0.0060911214409336
 40
0.0060911214409336
 40
0.0060911214409336
 40
0.0060911214409336
 10
0.5968452262692756
 20
17.08958091282172
 30
0.0
 10
0.4829455451809299
 20
16.88744520403655
 30
0.0
 10
0.2595404941248671
 20
16.48087442576308
 30
0.0
 10
0.0440217488252912
 20
15.93743369061987
 30
0.0
 10
-0.0953261048951286
 20
15.48741583424923
 30
0.0
 10
-0.1382991324949572
 20
15.13423621450369
 30
0.0
 10
-0.2558382521997844
 20
14.9271642717547
 30
0.0
 10
-0.4056305985107382
 20
14.84319529860463
 30
0.0
 10
-0.5617705966075274
 20
14.84041321729012
 30
0.0
 10
-0.717674083566235
 20
14.83138317099055
 30
0.0
 10
-0.8733858039456003
 20
14.90378756037228
 30
0.0
 10
-1.006243169294529
 20
15.10138096766967
 30
0.0
 10
-1.075793556882339
 20
15.45030111396539
 30
0.0
 10
-1.248763927954752
 20
15.88849644269447
 30
0.0
 10
-1.504749966244842
 20
16.41408878509407
 30
0.0
 10
-1.758252388487288
 20
16.80260665662689
 30
0.0
 10
-1.887107551720389
 20
16.99555309744992
 30
0.0
  0
ARC
  5
6A
330
1F
100
AcDbEntity
  8
0
  6
Continuous
 62
     7
370
    25
100
AcDbCircle
 10
0.0
 20
0.0
 30
0.0
 40
17.09999999999999
100
AcDbArc
 50
96.3359050707
 51
99.24978599
  0
SPLINE
  5
6B
330
1F
100
AcDbEntity
  8
0
  6
Continuous
 62
     7
370
    25
100
AcDbSpline
210
0.0
220
0.0
230
1.0
 70
     8
 71
     3
 72
    21
 73
    17
 74
     0
 42
0.00000001
 43
0.00000001
 40
-0.5448854583874899
 40
-0.5448854583874899
 40
-0.5448854583874899
 40
-0.5448854583874899
 40
-0.4760133859089374
 40
-0.4071413134303848
 40
-0.3727052771911086
 40
-0.3382692409518323
 40
-0.303833204712556
 40
-0.2866151865929178
 40
-0.2693971684732797
 40
-0.2521791503536416
 40
-0.2349611322340034
 40
-0.2005250959947272
 40
-0.1660890597554509
 40
-0.1316530235161746
 40
-0.0627809510376221
 40
0.0060911214409305
 40
0.0060911214409305
 40
0.0060911214409305
 40
0.0060911214409305
 10
-2.74863483079919
 20
16.87764813494217
 30
0.0
 10
-2.8209112409354
 20
16.65717568166077
 30
0.0
 10
-2.960705602523119
 20
16.21483288353761
 30
0.0
 10
-3.066063187548374
 20
15.63978858831658
 30
0.0
 10
-3.114939382820695
 20
15.17123228121505
 30
0.0
 10
-3.088184769999276
 20
14.81645528703789
 30
0.0
 10
-3.163067676486067
 20
14.59043142889231
 30
0.0
 10
-3.293600270853696
 20
14.47885285893874
 30
0.0
 10
-3.446197325529432
 20
14.44566283202839
 30
0.0
 10
-3.5973434960617
 20
14.40639103406218
 30
0.0
 10
-3.764188655036021
 20
14.44702634373385
 30
0.0
 10
-3.933041764821362
 20
14.61490386292776
 30
0.0
 10
-4.069326704912506
 20
14.94355099893972
 30
0.0
 10
-4.32446116659389
 20
15.33958168190707
 30
0.0
 10
-4.67806648426562
 20
15.80513451618346
 30
0.0
 10
-5.00249400521377
 20
16.13673125656946
 30
0.0
 10
-5.166515235888877
 20
16.3008318903462
 30
0.0
  0
ARC
  5
6C
330
1F
100
AcDbEntity
  8
0
  6
Continuous
 62
     7
370
    25
100
AcDbCircle
 10
0.0
 20
0.0
 30
0.0
 40
17.09999999999998
100
AcDbArc
 50
107.5859050707
 51
110.49978599
  0
SPLINE
  5
6D
330
1F
100
AcDbEntity
  8
0
  6
Continuous
 62
     7
370
    25
100
AcDbSpline
210
0.0
220
0.0
230
1.0
 70
     8
 71
     3
 72
    21
 73
    17
 74
     0
 42
0.00000001
 43
0.00000001
 40
-0.5448854583874877
 40
-0.5448854583874877
 40
-0.5448854583874877
 40
-0.5448854583874877
 40
-0.4760133859089354
 40
-0.4071413134303832
 40
-0.372705277191107
 40
-0.3382692409518309
 40
-0.3038332047125547
 40
-0.2866151865929166
 40
-0.2693971684732786
 40
-0.2521791503536405
 40
-0.2349611322340025
 40
-0.2005250959947263
 40
-0.1660890597554502
 40
-0.1316530235161741
 40
-0.0627809510376218
 40
0.0060911214409305
 40
0.0060911214409305
 40
0.0060911214409305
 40
0.0060911214409305
 10
-5.98848639277227
 20
16.01711680433095
 30
0.0
 10
-6.016361990047838
 20
15.78678023929051
 30
0.0
 10
-6.067173443249165
 20
15.3256644069808
 30
0.0
 10
-6.058321035092462
 20
14.74111518145868
 30
0.0
 10
-6.014847287142651
 20
14.27202677973884
 30
0.0
 10
-5.919393198666595
 20
13.92928629205497
 30
0.0
 10
-5.948742183833696
 20
13.69299648862581
 30
0.0
 10
-6.054998731859853
 20
13.55809622373811
 30
0.0
 10
-6.198188623881313
 20
13.49577372535282
 30
0.0
 10
-6.338769015417205
 20
13.42776936889198
 30
0.0
 10
-6.510335847094795
 20
13.43507400669147
 30
0.0
 10
-6.708695771001267
 20
13.56678419886597
 30
0.0
 10
-6.906477909777692
 20
13.86252859946497
 30
0.0
 10
-7.233971787786627
 20
14.20117539962044
 30
0.0
 10
-7.671607530785947
 20
14.58879779143763
 30
0.0
 10
-8.054492582750937
 20
14.85073032390521
 30
0.0
 10
-8.24737663695725
 20
14.97967885530836
 30
0.0
  0
ARC
  5
6E
330
1F
100
AcDbEntity
  8
0
  6
Continuous
 62
     7
370
    25
100
AcDbCircle
 10
0.0
 20
0.0
 30
0.0
 40
17.10000000000002
100
AcDbArc
 50
118.8359050707
 51
121.74978599
  0
SPLINE
  5
6F
330
1F
100
AcDbEntity
  8
0
  6
Continuous
 62
     7
370
    25
100
AcDbSpline
210
0.0
220
0.0
230
1.0
 70
     8
 71
     3
 72
    21
 73
    17
 74
     0
 42
0.00000001
 43
0.00000001
 40
-0.5448854583874851
 40
-0.5448854583874851
 40
-0.5448854583874851
 40
-0.5448854583874851
 40
-0.4760133859089334
 40
-0.4071413134303816
 40
-0.3727052771911057
 40
-0.3382692409518299
 40
-0.3038332047125539
 40
-0.286615186592916
 40
-0.269397168473278
 40
-0.2521791503536401
 40
-0.2349611322340022
 40
-0.2005250959947263
 40
-0.1660890597554504
 40
-0.1316530235161745
 40
-0.0627809510376228
 40
0.006091121440929
 40
0.006091121440929
 40
0.006091121440929
 40
0.006091121440929
 10
-8.998203781052993
 20
14.54105665743189
 30
0.0
 10
-8.980607321897436
 20
14.30970768565269
 30
0.0
 10
-8.94048321106114
 20
13.84753924199519
 30
0.0
 10
-8.817761002803636
 20
13.27594898509003
 30
0.0
 10
-8.683607983384857
 20
12.82435529296208
 30
0.0
 10
-8.523122666343022
 20
12.50682263650198
 30
0.0
 10
-8.505809865149498
 20
12.26934737242249
 30
0.0
 10
-8.583706987283215
 20
12.11630955412702
 30
0.0
 10
-8.711987009401332
 20
12.02724960292902
 30
0.0
 10
-8.836599196332683
 20
11.93312605725506
 30
0.0
 10
-9.006294483587775
 20
11.90681931004811
 30
0.0
 10
-9.22653836098156
 20
11.99730062638199
 30
0.0
 10
-9.478217041767381
 20
12.2487770001082
 30
0.0
 10
-9.865484930032835
 20
12.51702591083732
 30
0.0
 10
-10.37033300218518
 20
12.81182174905882
 30
0.0
 10
-10.79696152734449
 20
12.99402415327871
 30
0.0
 10
-11.01129597904949
 20
13.08286516256168
 30
0.0
  0
ARC
  5
70
330
1F
100
AcDbEntity
  8
0
  6
Continuous
 62
     7
370
    25
100
AcDbCircle
 10
0.0
 20
0.0
 30
0.0
 40
17.10000000000004
100
AcDbArc
 50
130.0859050707
 51
132.99978599
  0
SPLINE
  5
71
330
1F
100
AcDbEntity
  8
0
  6
Continuous
 62
     7
370
    25
100
AcDbSpline
210
0.0
220
0.0
230
1.0
 70
     8
 71
     3
 72
    21
 73
    17
 74
     0
 42
0.00000001
 43
0.00000001
 40
-0.5448854583874863
 40
-0.5448854583874863
 40
-0.5448854583874863
 40
-0.5448854583874863
 40
-0.4760133859089342
 40
-0.4071413134303821
 40
-0.372705277191106
 40
-0.33826924095183
 40
-0.3038332047125539
 40
-0.286615186592916
 40
-0.2693971684732779
 40
-0.2521791503536399
 40
-0.2349611322340019
 40
-0.2005250959947258
 40
-0.1660890597554498
 40
-0.1316530235161738
 40
-0.0627809510376217
 40
0.0060911214409304
 40
0.0060911214409304
 40
0.0060911214409304
 40
0.0060911214409304
 10
-11.66212524427862
 20
12.50619185790625
 30
0.0
 10
-11.5997329507492
 20
12.28272109063179
 30
0.0
 10
-11.47021522295289
 20
11.83726090972937
 30
0.0
 10
-11.23833936023433
 20
11.30059551446225
 30
0.0
 10
-11.01866249464908
 20
10.88385102425809
 30
0.0
 10
-10.79931330977415
 20
10.60372880093519
 30
0.0
 10
-10.73600404346083
 20
10.37419411742594
 30
0.0
 10
-10.78254819698352
 20
10.20889990325574
 30
0.0
 10
-10.89098861988877
 20
10.09652502322393
 30
0.0
 10
-10.99484382575504
 20
9.979899403412036
 30
0.0
 10
-11.15614627386508
 20
9.920992224740878
 30
0.0
 10
-11.38981025605158
 20
9.966767518989856
 30
0.0
 10
-11.68571360828741
 20
10.16431176983062
 30
0.0
 10
-12.11787301904559
 20
10.3518541359297
 30
0.0
 10
-12.67053239206025
 20
10.54249458181609
 30
0.0
 10
-13.12450929544794
 20
10.63796492157449
 30
0.0
 10
-13.35205739187274
 20
10.683284298573
 30
0.0
  0
ARC
  5
72
330
1F
100
AcDbEntity
  8
0
  6
Continuous
 62
     7
370
    25
100
AcDbCircle
 10
0.0
 20
0.0
 30
0.0
 40
17.1
100
AcDbArc
 50
141.3359050707
 51
144.24978599
  0
SPLINE
  5
73
330
1F
100
AcDbEntity
  8
0
  6
Continuous
 62
     7
370
    25
100
AcDbSpline
210
0.0
220
0.0
230
1.0
 70
     8
 71
     3
 72
    21
 73
    17
 74
     0
 42
0.00000001
 43
0.00000001
 40
-0.544885458387485
 40
-0.544885458387485
 40
-0.544885458387485
 40
-0.544885458387485
 40
-0.4760133859089328
 40
-0.4071413134303807
 40
-0.3727052771911046
 40
-0.3382692409518285
 40
-0.3038332047125524
 40
-0.2866151865929144
 40
-0.2693971684732763
 40
-0.2521791503536382
 40
-0.2349611322340002
 40
-0.2005250959947241
 40
-0.166089059755448
 40
-0.1316530235161719
 40
-0.0627809510376198
 40
0.0060911214409324
 40
0.0060911214409324
 40
0.0060911214409324
 40
0.0060911214409324
 10
-13.87787777456178
 20
9.990721118834426
 30
0.0
 10
-13.77308734750875
 20
9.783716412327205
 30
0.0
 10
-13.55915329639723
 20
9.372083279114943
 30
0.0
 10
-13.22703463858449
 20
8.890966495660733
 30
0.0
 10
-12.93027598558094
 20
8.52508646442585
 30
0.0
 10
-12.66049239903525
 20
8.293139614188263
 30
0.0
 10
-12.55361960720228
 20
8.080366400411766
 30
0.0
 10
-12.56702212639627
 20
7.909167954319368
 30
0.0
 10
-12.65145564545056
 20
7.777796649072888
 30
0.0
 10
-12.73056277293292
 20
7.643150812287993
 30
0.0
 10
-12.87727361927622
 20
7.553906971993425
 30
0.0
 10
-13.11537813046075
 20
7.553217125270648
 30
0.0
 10
-13.44413475426449
 20
7.689237738450172
 30
0.0
 10
-13.90457804371786
 20
7.788866411965016
 30
0.0
 10
-14.48381032782459
 20
7.868025260093144
 30
0.0
 10
-14.94768953163689
 20
7.873094663773418
 30
0.0
 10
-15.17970672704636
 20
7.873150810245106
 30
0.0
  0
ARC
  5
74
330
1F
100
AcDbEntity
  8
0
  6
Continuous
 62
     7
370
    25
100
AcDbCircle
 10
0.0
 20
0.0
 30
0.0
 40
17.09999999999999
100
AcDbArc
 50
152.5859050707
 51
155.49978599
  0
SPLINE
  5
75
330
1F
100
AcDbEntity
  8
0
  6
Continuous
 62
     7
370
    25
100
AcDbSpline
210
0.0
220
0.0
230
1.0
 70
     8
 71
     3
 72
    21
 73
    17
 74
     0
 42
0.00000001
 43
0.00000001
 40
-0.5448854583874905
 40
-0.5448854583874905
 40
-0.5448854583874905
 40
-0.5448854583874905
 40
-0.4760133859089376
 40
-0.4071413134303847
 40
-0.3727052771911083
 40
-0.3382692409518319
 40
-0.3038332047125555
 40
-0.2866151865929173
 40
-0.269397168473279
 40
-0.2521791503536408
 40
-0.2349611322340026
 40
-0.2005250959947262
 40
-0.1660890597554497
 40
-0.1316530235161733
 40
-0.0627809510376205
 40
0.0060911214409324
 40
0.0060911214409324
 40
0.0060911214409324
 40
0.0060911214409324
 10
-15.56031124477207
 20
7.091312570026771
 30
0.0
 10
-15.41714972153996
 20
6.908728999068269
 30
0.0
 10
-15.12702071272186
 20
6.546741744009024
 30
0.0
 10
-14.70742239358043
 20
6.139662620542383
 30
0.0
 10
-14.34498622176942
 20
5.838707612689336
 30
0.0
 10
-14.03513586548749
 20
5.663849722914139
 30
0.0
 10
-13.88880660959017
 20
5.476014734151887
 30
0.0
 10
-13.86855244315899
 20
5.305491116410765
 30
0.0
 10
-13.9257343255759
 20
5.160171911536664
 30
0.0
 10
-13.97705333212915
 20
5.012680221775843
 30
0.0
 10
-14.10353456115709
 20
4.896529310592187
 30
0.0
 10
-14.33692937850516
 20
4.849400833320122
 30
0.0
 10
-14.68590534119294
 20
4.918670612955237
 30
0.0
 10
-15.15693793194735
 20
4.926556919835112
 30
0.0
 10
-15.74048355530532
 20
4.891192140064307
 30
0.0
 10
-16.19643844188597
 20
4.805665793326062
 30
0.0
 10
-16.42400844557724
 20
4.760456551593272
 30
0.0
  0
ARC
  5
76
330
1F
100
AcDbEntity
  8
0
  6
Continuous
 62
     7
370
    25
100
AcDbCircle
 10
0.0
 20
0.0
 30
0.0
 40
17.09999999999999
100
AcDbArc
 50
163.8359050707
 51
166.74978599
  0
SPLINE
  5
77
330
1F
100
AcDbEntity
  8
0
  6
Continuous
 62
     7
370
    25
100
AcDbSpline
210
0.0
220
0.0
230
1.0
 70
     8
 71
     3
 72
    21
 73
    17
 74
     0
 42
0.00000001
 43
0.00000001
 40
-0.5448854583874865
 40
-0.5448854583874865
 40
-0.5448854583874865
 40
-0.5448854583874865
 40
-0.4760133859089348
 40
-0.4071413134303831
 40
-0.3727052771911072
 40
-0.3382692409518313
 40
-0.3038332047125555
 40
-0.2866151865929175
 40
-0.2693971684732796
 40
-0.2521791503536417
 40
-0.2349611322340038
 40
-0.2005250959947279
 40
-0.166089059755452
 40
-0.1316530235161762
 40
-0.0627809510376245
 40
0.0060911214409272
 40
0.0060911214409272
 40
0.0060911214409272
 40
0.0060911214409272
 10
-16.64477068016885
 20
3.919388856006908
 30
0.0
 10
-16.46873967780955
 20
3.768243004834995
 30
0.0
 10
-16.11356520638747
 20
3.469812595135792
 30
0.0
 10
-15.62261215400858
 20
3.152414954079059
 30
0.0
 10
-15.20842668221613
 20
2.927950501781942
 30
0.0
 10
-14.87041693162395
 20
2.816901263112026
 30
0.0
 10
-14.69025456290395
 20
2.661222892642577
 30
0.0
 10
-14.63712206710494
 20
2.497927230252318
 30
0.0
 10
-14.66485484521114
 20
2.344244661297452
 30
0.0
 10
-14.6864135701934
 20
2.189575141484507
 30
0.0
 10
-14.78780457920595
 20
2.050980773790013
 30
0.0
 10
-15.00752047077623
 20
1.959224786920376
 30
0.0
 10
-15.36330482180996
 20
1.959081734226669
 30
0.0
 10
-15.82682519556074
 20
1.874922608120815
 30
0.0
 10
-16.3922588271205
 20
1.726393249104954
 30
0.0
 10
-16.82276730588073
 20
1.553557881489658
 30
0.0
 10
-17.03714473023465
 20
1.464820617358547
 30
0.0
  0
ARC
  5
78
330
1F
100
AcDbEntity
  8
0
  6
Continuous
 62
     7
370
    25
100
AcDbCircle
 10
0.0
 20
0.0
 30
0.0
 40
17.10000000000003
100
AcDbArc
 50
175.0859050707
 51
177.99978599
  0
SPLINE
  5
79
330
1F
100
AcDbEntity
  8
0
  6
Continuous
 62
     7
370
    25
100
AcDbSpline
210
0.0
220
0.0
230
1.0
 70
     8
 71
     3
 72
    21
 73
    17
 74
     0
 42
0.00000001
 43
0.00000001
 40
-0.5448854583874805
 40
-0.5448854583874805
 40
-0.5448854583874805
 40
-0.5448854583874805
 40
-0.4760133859089294
 40
-0.4071413134303782
 40
-0.3727052771911027
 40
-0.3382692409518271
 40
-0.3038332047125515
 40
-0.2866151865929137
 40
-0.269397168473276
 40
-0.2521791503536382
 40
-0.2349611322340004
 40
-0.2005250959947249
 40
-0.1660890597554494
 40
-0.1316530235161738
 40
-0.0627809510376227
 40
0.0060911214409285
 40
0.0060911214409285
 40
0.0060911214409285
 40
0.0060911214409285
 10
-17.08958091282173
 20
0.5968452262692793
 30
0.0
 10
-16.88744520403655
 20
0.4829455451809279
 30
0.0
 10
-16.48087442576309
 20
0.2595404941248708
 30
0.0
 10
-15.93743369061988
 20
0.0440217488252879
 30
0.0
 10
-15.48741583424925
 20
-0.0953261048951254
 30
0.0
 10
-15.13423621450371
 20
-0.1382991324949608
 30
0.0
 10
-14.92716427175472
 20
-0.2558382521997831
 30
0.0
 10
-14.84319529860463
 20
-0.4056305985107315
 30
0.0
 10
-14.8404132172902
 20
-0.561770596607441
 30
0.0
 10
-14.83138317099053
 20
-0.7176740835662401
 30
0.0
 10
-14.90378756037228
 20
-0.8733858039455742
 30
0.0
 10
-15.10138096766956
 20
-1.00624316929446
 30
0.0
 10
-15.45030111396538
 20
-1.075793556882352
 30
0.0
 10
-15.88849644269444
 20
-1.248763927954724
 30
0.0
 10
-16.41408878509397
 20
-1.504749966244868
 30
0.0
 10
-16.80260665662698
 20
-1.758252388487166
 30
0.0
 10
-16.99555309744991
 20
-1.887107551720448
 30
0.0
  0
ARC
  5
7A
330
1F
100
AcDbEntity
  8
0
  6
Continuous
 62
     7
370
    25
100
AcDbCircle
 10
0.0
 20
0.0
 30
0.0
 40
17.09999999999999
100
AcDbArc
 50
186.3359050707
 51
189.24978599
  0
SPLINE
  5
7B
330
1F
100
AcDbEntity
  8
0
  6
Continuous
 62
     7
370
    25
100
AcDbSpline
210
0.0
220
0.0
230
1.0
 70
     8
 71
     3
 72
    21
 73
    17
 74
     0
 42
0.00000001
 43
0.00000001
 40
-0.5448854583874898
 40
-0.5448854583874898
 40
-0.5448854583874898
 40
-0.5448854583874898
 40
-0.4760133859089373
 40
-0.4071413134303848
 40
-0.3727052771911086
 40
-0.3382692409518323
 40
-0.303833204712556
 40
-0.2866151865929179
 40
-0.2693971684732798
 40
-0.2521791503536416
 40
-0.2349611322340035
 40
-0.2005250959947273
 40
-0.166089059755451
 40
-0.1316530235161747
 40
-0.0627809510376222
 40
0.0060911214409303
 40
0.0060911214409303
 40
0.0060911214409303
 40
0.0060911214409303
 10
-16.87764813494218
 20
-2.748634830799188
 30
0.0
 10
-16.65717568166077
 20
-2.820911240935402
 30
0.0
 10
-16.2148328835376
 20
-2.960705602523119
 30
0.0
 10
-15.63978858831657
 20
-3.066063187548369
 30
0.0
 10
-15.17123228121505
 20
-3.114939382820692
 30
0.0
 10
-14.81645528703789
 20
-3.088184769999269
 30
0.0
 10
-14.5904314288923
 20
-3.163067676486067
 30
0.0
 10
-14.47885285893874
 20
-3.293600270853698
 30
0.0
 10
-14.44566283202839
 20
-3.446197325529427
 30
0.0
 10
-14.40639103406218
 20
-3.597343496061701
 30
0.0
 10
-14.44702634373386
 20
-3.764188655036015
 30
0.0
 10
-14.61490386292774
 20
-3.93304176482136
 30
0.0
 10
-14.94355099893972
 20
-4.069326704912505
 30
0.0
 10
-15.33958168190707
 20
-4.324461166593888
 30
0.0
 10
-15.80513451618346
 20
-4.678066484265616
 30
0.0
 10
-16.13673125656947
 20
-5.002494005213767
 30
0.0
 10
-16.3008318903462
 20
-5.166515235888877
 30
0.0
  0
ARC
  5
7C
330
1F
100
AcDbEntity
  8
0
  6
Continuous
 62
     7
370
    25
100
AcDbCircle
 10
0.0
 20
0.0
 30
0.0
 40
17.09999999999998
100
AcDbArc
 50
197.5859050707
 51
200.49978599
  0
SPLINE
  5
7D
330
1F
100
AcDbEntity
  8
0
  6
Continuous
 62
     7
370
    25
100
AcDbSpline
210
0.0
220
0.0
230
1.0
 70
     8
 71
     3
 72
    21
 73
    17
 74
     0
 42
0.00000001
 43
0.00000001
 40
-0.5448854583874873
 40
-0.5448854583874873
 40
-0.5448854583874873
 40
-0.5448854583874873
 40
-0.4760133859089352
 40
-0.4071413134303831
 40
-0.372705277191107
 40
-0.338269240951831
 40
-0.3038332047125549
 40
-0.2866151865929168
 40
-0.2693971684732788
 40
-0.2521791503536408
 40
-0.2349611322340028
 40
-0.2005250959947267
 40
-0.1660890597554507
 40
-0.1316530235161746
 40
-0.0627809510376225
 40
0.0060911214409296
 40
0.0060911214409296
 40
0.0060911214409296
 40
0.0060911214409296
 10
-16.01711680433095
 20
-5.988486392772269
 30
0.0
 10
-15.78678023929051
 20
-6.016361990047844
 30
0.0
 10
-15.32566440698077
 20
-6.067173443249176
 30
0.0
 10
-14.74111518145867
 20
-6.058321035092477
 30
0.0
 10
-14.27202677973884
 20
-6.014847287142654
 30
0.0
 10
-13.92928629205495
 20
-5.919393198666607
 30
0.0
 10
-13.69299648862582
 20
-5.948742183833697
 30
0.0
 10
-13.5580962237381
 20
-6.054998731859867
 30
0.0
 10
-13.49577372535282
 20
-6.198188623881324
 30
0.0
 10
-13.42776936889197
 20
-6.338769015417206
 30
0.0
 10
-13.43507400669147
 20
-6.510335847094811
 30
0.0
 10
-13.56678419886594
 20
-6.708695771001259
 30
0.0
 10
-13.86252859946496
 20
-6.906477909777711
 30
0.0
 10
-14.20117539962044
 20
-7.233971787786616
 30
0.0
 10
-14.58879779143762
 20
-7.671607530785956
 30
0.0
 10
-14.85073032390521
 20
-8.054492582750937
 30
0.0
 10
-14.97967885530835
 20
-8.247376636957258
 30
0.0
  0
ARC
  5
7E
330
1F
100
AcDbEntity
  8
0
  6
Continuous
 62
     7
370
    25
100
AcDbCircle
 10
0.0
 20
0.0
 30
0.0
 40
17.10000000000002
100
AcDbArc
 50
208.8359050707
 51
211.74978599
  0
SPLINE
  5
7F
330
1F
100
AcDbEntity
  8
0
  6
Continuous
 62
     7
370
    25
100
AcDbSpline
210
0.0
220
0.0
230
1.0
 70
     8
 71
     3
 72
    21
 73
    17
 74
     0
 42
0.00000001
 43
0.00000001
 40
-0.544885458387485
 40
-0.544885458387485
 40
-0.544885458387485
 40
-0.544885458387485
 40
-0.4760133859089333
 40
-0.4071413134303815
 40
-0.3727052771911056
 40
-0.3382692409518298
 40
-0.3038332047125539
 40
-0.286615186592916
 40
-0.269397168473278
 40
-0.2521791503536401
 40
-0.2349611322340022
 40
-0.2005250959947263
 40
-0.1660890597554504
 40
-0.1316530235161746
 40
-0.0627809510376228
 40
0.0060911214409289
 40
0.0060911214409289
 40
0.0060911214409289
 40
0.0060911214409289
 10
-14.54105665743189
 20
-8.998203781052991
 30
0.0
 10
-14.30970768565269
 20
-8.980607321897438
 30
0.0
 10
-13.84753924199518
 20
-8.940483211061137
 30
0.0
 10
-13.27594898509003
 20
-8.817761002803632
 30
0.0
 10
-12.82435529296208
 20
-8.683607983384857
 30
0.0
 10
-12.50682263650197
 20
-8.523122666343015
 30
0.0
 10
-12.26934737242248
 20
-8.5058098651495
 30
0.0
 10
-12.11630955412702
 20
-8.58370698728322
 30
0.0
 10
-12.02724960292902
 20
-8.711987009401335
 30
0.0
 10
-11.93312605725506
 20
-8.836599196332683
 30
0.0
 10
-11.90681931004811
 20
-9.006294483587778
 30
0.0
 10
-11.997300626382
 20
-9.226538360981566
 30
0.0
 10
-12.2487770001082
 20
-9.478217041767374
 30
0.0
 10
-12.51702591083732
 20
-9.865484930032846
 30
0.0
 10
-12.81182174905882
 20
-10.37033300218518
 30
0.0
 10
-12.99402415327872
 20
-10.79696152734449
 30
0.0
 10
-13.08286516256168
 20
-11.01129597904948
 30
0.0
  0
ARC
  5
80
330
1F
100
AcDbEntity
  8
0
  6
Continuous
 62
     7
370
    25
100
AcDbCircle
 10
0.0
 20
0.0
 30
0.0
 40
17.10000000000004
100
AcDbArc
 50
220.0859050707
 51
222.99978599
  0
SPLINE
  5
81
330
1F
100
AcDbEntity
  8
0
  6
Continuous
 62
     7
370
    25
100
AcDbSpline
210
0.0
220
0.0
230
1.0
 70
     8
 71
     3
 72
    21
 73
    17
 74
     0
 42
0.00000001
 43
0.00000001
 40
-0.5448854583874868
 40
-0.5448854583874868
 40
-0.5448854583874868
 40
-0.5448854583874868
 40
-0.4760133859089347
 40
-0.4071413134303826
 40
-0.3727052771911066
 40
-0.3382692409518305
 40
-0.3038332047125545
 40
-0.2866151865929165
 40
-0.2693971684732784
 40
-0.2521791503536404
 40
-0.2349611322340024
 40
-0.2005250959947263
 40
-0.1660890597554503
 40
-0.1316530235161743
 40
-0.0627809510376222
 40
0.00609112144093
 40
0.00609112144093
 40
0.00609112144093
 40
0.00609112144093
 10
-12.50619185790626
 20
-11.66212524427862
 30
0.0
 10
-12.28272109063179
 20
-11.5997329507492
 30
0.0
 10
-11.83726090972938
 20
-11.47021522295289
 30
0.0
 10
-11.30059551446225
 20
-11.23833936023433
 30
0.0
 10
-10.88385102425809
 20
-11.01866249464907
 30
0.0
 10
-10.6037288009352
 20
-10.79931330977415
 30
0.0
 10
-10.37419411742594
 20
-10.73600404346082
 30
0.0
 10
-10.20889990325573
 20
-10.78254819698352
 30
0.0
 10
-10.09652502322394
 20
-10.89098861988876
 30
0.0
 10
-9.979899403412036
 20
-10.99484382575504
 30
0.0
 10
-9.920992224740875
 20
-11.15614627386508
 30
0.0
 10
-9.96676751898985
 20
-11.38981025605157
 30
0.0
 10
-10.16431176983062
 20
-11.68571360828741
 30
0.0
 10
-10.3518541359297
 20
-12.11787301904558
 30
0.0
 10
-10.54249458181609
 20
-12.67053239206025
 30
0.0
 10
-10.63796492157449
 20
-13.12450929544794
 30
0.0
 10
-10.683284298573
 20
-13.35205739187275
 30
0.0
  0
ARC
  5
82
330
1F
100
AcDbEntity
  8
0
  6
Continuous
 62
     7
370
    25
100
AcDbCircle
 10
0.0
 20
0.0
 30
0.0
 40
17.1
100
AcDbArc
 50
231.3359050707
 51
234.24978599
  0
SPLINE
  5
83
330
1F
100
AcDbEntity
  8
0
  6
Continuous
 62
     7
370
    25
100
AcDbSpline
210
0.0
220
0.0
230
1.0
 70
     8
 71
     3
 72
    21
 73
    17
 74
     0
 42
0.00000001
 43
0.00000001
 40
-0.5448854583874848
 40
-0.5448854583874848
 40
-0.5448854583874848
 40
-0.5448854583874848
 40
-0.4760133859089326
 40
-0.4071413134303804
 40
-0.3727052771911043
 40
-0.3382692409518282
 40
-0.3038332047125522
 40
-0.2866151865929141
 40
-0.269397168473276
 40
-0.252179150353638
 40
-0.2349611322339999
 40
-0.2005250959947238
 40
-0.1660890597554477
 40
-0.1316530235161716
 40
-0.0627809510376194
 40
0.0060911214409328
 40
0.0060911214409328
 40
0.0060911214409328
 40
0.0060911214409328
 10
-9.990721118834424
 20
-13.87787777456178
 30
0.0
 10
-9.783716412327205
 20
-13.77308734750875
 30
0.0
 10
-9.372083279114946
 20
-13.55915329639723
 30
0.0
 10
-8.890966495660738
 20
-13.22703463858448
 30
0.0
 10
-8.525086464425844
 20
-12.93027598558094
 30
0.0
 10
-8.293139614188279
 20
-12.66049239903525
 30
0.0
 10
-8.080366400411751
 20
-12.55361960720227
 30
0.0
 10
-7.909167954319365
 20
-12.56702212639628
 30
0.0
 10
-7.777796649072888
 20
-12.65145564545056
 30
0.0
 10
-7.643150812288002
 20
-12.73056277293292
 30
0.0
 10
-7.553906971993414
 20
-12.87727361927624
 30
0.0
 10
-7.553217125270646
 20
-13.11537813046074
 30
0.0
 10
-7.689237738450172
 20
-13.4441347542645
 30
0.0
 10
-7.788866411965018
 20
-13.90457804371785
 30
0.0
 10
-7.868025260093149
 20
-14.4838103278246
 30
0.0
 10
-7.87309466377342
 20
-14.94768953163689
 30
0.0
 10
-7.873150810245105
 20
-15.17970672704636
 30
0.0
  0
ARC
  5
84
330
1F
100
AcDbEntity
  8
0
  6
Continuous
 62
     7
370
    25
100
AcDbCircle
 10
0.0
 20
0.0
 30
0.0
 40
17.09999999999999
100
AcDbArc
 50
242.5859050707
 51
245.49978599
  0
SPLINE
  5
85
330
1F
100
AcDbEntity
  8
0
  6
Continuous
 62
     7
370
    25
100
AcDbSpline
210
0.0
220
0.0
230
1.0
 70
     8
 71
     3
 72
    21
 73
    17
 74
     0
 42
0.00000001
 43
0.00000001
 40
-0.5448854583874911
 40
-0.5448854583874911
 40
-0.5448854583874911
 40
-0.5448854583874911
 40
-0.4760133859089383
 40
-0.4071413134303853
 40
-0.3727052771911089
 40
-0.3382692409518324
 40
-0.303833204712556
 40
-0.2866151865929177
 40
-0.2693971684732795
 40
-0.2521791503536414
 40
-0.2349611322340031
 40
-0.2005250959947266
 40
-0.1660890597554502
 40
-0.1316530235161738
 40
-0.0627809510376209
 40
0.006091121440932
 40
0.006091121440932
 40
0.006091121440932
 40
0.006091121440932
 10
-7.091312570026778
 20
-15.56031124477206
 30
0.0
 10
-6.90872899906828
 20
-15.41714972153996
 30
0.0
 10
-6.54674174400903
 20
-15.12702071272186
 30
0.0
 10
-6.139662620542394
 20
-14.70742239358042
 30
0.0
 10
-5.838707612689347
 20
-14.34498622176943
 30
0.0
 10
-5.663849722914152
 20
-14.03513586548749
 30
0.0
 10
-5.476014734151912
 20
-13.88880660959019
 30
0.0
 10
-5.305491116410758
 20
-13.86855244315897
 30
0.0
 10
-5.160171911536675
 20
-13.92573432557591
 30
0.0
 10
-5.012680221775854
 20
-13.97705333212913
 30
0.0
 10
-4.896529310592188
 20
-14.10353456115709
 30
0.0
 10
-4.849400833320133
 20
-14.33692937850516
 30
0.0
 10
-4.918670612955229
 20
-14.68590534119292
 30
0.0
 10
-4.926556919835123
 20
-15.15693793194734
 30
0.0
 10
-4.891192140064314
 20
-15.74048355530532
 30
0.0
 10
-4.805665793326071
 20
-16.19643844188597
 30
0.0
 10
-4.76045655159328
 20
-16.42400844557723
 30
0.0
  0
ARC
  5
86
330
1F
100
AcDbEntity
  8
0
  6
Continuous
 62
     7
370
    25
100
AcDbCircle
 10
0.0
 20
0.0
 30
0.0
 40
17.09999999999999
100
AcDbArc
 50
253.8359050707
 51
256.74978599
  0
SPLINE
  5
87
330
1F
100
AcDbEntity
  8
0
  6
Continuous
 62
     7
370
    25
100
AcDbSpline
210
0.0
220
0.0
230
1.0
 70
     8
 71
     3
 72
    21
 73
    17
 74
     0
 42
0.00000001
 43
0.00000001
 40
-0.544885458387486
 40
-0.544885458387486
 40
-0.544885458387486
 40
-0.544885458387486
 40
-0.4760133859089344
 40
-0.4071413134303827
 40
-0.3727052771911069
 40
-0.3382692409518311
 40
-0.3038332047125553
 40
-0.2866151865929173
 40
-0.2693971684732794
 40
-0.2521791503536415
 40
-0.2349611322340036
 40
-0.2005250959947277
 40
-0.1660890597554519
 40
-0.1316530235161761
 40
-0.0627809510376244
 40
0.0060911214409273
 40
0.0060911214409273
 40
0.0060911214409273
 40
0.0060911214409273
 10
-3.919388856006905
 20
-16.64477068016885
 30
0.0
 10
-3.768243004834991
 20
-16.46873967780954
 30
0.0
 10
-3.469812595135789
 20
-16.11356520638747
 30
0.0
 10
-3.152414954079058
 20
-15.62261215400858
 30
0.0
 10
-2.927950501781942
 20
-15.20842668221613
 30
0.0
 10
-2.816901263112024
 20
-14.87041693162395
 30
0.0
 10
-2.661222892642582
 20
-14.69025456290396
 30
0.0
 10
-2.497927230252317
 20
-14.63712206710493
 30
0.0
 10
-2.344244661297445
 20
-14.66485484521115
 30
0.0
 10
-2.189575141484513
 20
-14.6864135701934
 30
0.0
 10
-2.050980773790007
 20
-14.78780457920596
 30
0.0
 10
-1.959224786920375
 20
-15.00752047077622
 30
0.0
 10
-1.95908173422668
 20
-15.36330482180997
 30
0.0
 10
-1.874922608120809
 20
-15.82682519556073
 30
0.0
 10
-1.726393249104955
 20
-16.39225882712052
 30
0.0
 10
-1.553557881489655
 20
-16.82276730588073
 30
0.0
 10
-1.464820617358545
 20
-17.03714473023465
 30
0.0
  0
ARC
  5
88
330
1F
100
AcDbEntity
  8
0
  6
Continuous
 62
     7
370
    25
100
AcDbCircle
 10
0.0
 20
0.0
 30
0.0
 40
17.10000000000003
100
AcDbArc
 50
265.0859050707
 51
267.99978599
  0
SPLINE
  5
89
330
1F
100
AcDbEntity
  8
0
  6
Continuous
 62
     7
370
    25
100
AcDbSpline
210
0.0
220
0.0
230
1.0
 70
     8
 71
     3
 72
    21
 73
    17
 74
     0
 42
0.00000001
 43
0.00000001
 40
-0.5448854583874807
 40
-0.5448854583874807
 40
-0.5448854583874807
 40
-0.5448854583874807
 40
-0.4760133859089295
 40
-0.4071413134303783
 40
-0.3727052771911027
 40
-0.3382692409518271
 40
-0.3038332047125515
 40
-0.2866151865929137
 40
-0.2693971684732759
 40
-0.2521791503536381
 40
-0.2349611322340003
 40
-0.2005250959947247
 40
-0.1660890597554491
 40
-0.1316530235161736
 40
-0.0627809510376224
 40
0.0060911214409288
 40
0.0060911214409288
 40
0.0060911214409288
 40
0.0060911214409288
 10
-0.5968452262692756
 20
-17.08958091282172
 30
0.0
 10
-0.4829455451809311
 20
-16.88744520403655
 30
0.0
 10
-0.2595404941248701
 20
-16.48087442576309
 30
0.0
 10
-0.0440217488252947
 20
-15.93743369061987
 30
0.0
 10
0.0953261048951247
 20
-15.48741583424925
 30
0.0
 10
0.1382991324949559
 20
-15.13423621450371
 30
0.0
 10
0.2558382521997696
 20
-14.92716427175472
 30
0.0
 10
0.4056305985107278
 20
-14.84319529860463
 30
0.0
 10
0.56177059660743
 20
-14.84041321729019
 30
0.0
 10
0.7176740835662292
 20
-14.83138317099053
 30
0.0
 10
0.8733858039455679
 20
-14.90378756037228
 30
0.0
 10
1.006243169294453
 20
-15.10138096766956
 30
0.0
 10
1.075793556882347
 20
-15.45030111396537
 30
0.0
 10
1.248763927954728
 20
-15.88849644269444
 30
0.0
 10
1.504749966244863
 20
-16.41408878509397
 30
0.0
 10
1.758252388487168
 20
-16.80260665662697
 30
0.0
 10
1.887107551720445
 20
-16.99555309744991
 30
0.0
  0
ARC
  5
8A
330
1F
100
AcDbEntity
  8
0
  6
Continuous
 62
     7
370
    25
100
AcDbCircle
 10
0.0
 20
0.0
 30
0.0
 40
17.09999999999999
100
AcDbArc
 50
276.3359050707
 51
279.24978599
  0
SPLINE
  5
8B
330
1F
100
AcDbEntity
  8
0
  6
Continuous
 62
     7
370
    25
100
AcDbSpline
210
0.0
220
0.0
230
1.0
 70
     8
 71
     3
 72
    21
 73
    17
 74
     0
 42
0.00000001
 43
0.00000001
 40
-0.5448854583874885
 40
-0.5448854583874885
 40
-0.5448854583874885
 40
-0.5448854583874885
 40
-0.476013385908936
 40
-0.4071413134303836
 40
-0.3727052771911074
 40
-0.3382692409518312
 40
-0.303833204712555
 40
-0.286615186592917
 40
-0.2693971684732788
 40
-0.2521791503536407
 40
-0.2349611322340026
 40
-0.2005250959947264
 40
-0.1660890597554502
 40
-0.131653023516174
 40
-0.0627809510376216
 40
0.0060911214409308
 40
0.0060911214409308
 40
0.0060911214409308
 40
0.0060911214409308
 10
2.748634830799185
 20
-16.87764813494217
 30
0.0
 10
2.82091124093541
 20
-16.65717568166077
 30
0.0
 10
2.960705602523123
 20
-16.21483288353759
 30
0.0
 10
3.066063187548381
 20
-15.63978858831657
 30
0.0
 10
3.114939382820693
 20
-15.17123228121504
 30
0.0
 10
3.088184769999281
 20
-14.81645528703789
 30
0.0
 10
3.163067676486068
 20
-14.59043142889231
 30
0.0
 10
3.29360027085372
 20
-14.47885285893874
 30
0.0
 10
3.446197325529444
 20
-14.44566283202838
 30
0.0
 10
3.597343496061706
 20
-14.40639103406219
 30
0.0
 10
3.764188655036048
 20
-14.44702634373386
 30
0.0
 10
3.933041764821363
 20
-14.61490386292776
 30
0.0
 10
4.069326704912517
 20
-14.94355099893974
 30
0.0
 10
4.324461166593896
 20
-15.33958168190707
 30
0.0
 10
4.67806648426562
 20
-15.80513451618347
 30
0.0
 10
5.002494005213773
 20
-16.13673125656947
 30
0.0
 10
5.16651523588888
 20
-16.30083189034621
 30
0.0
  0
ARC
  5
8C
330
1F
100
AcDbEntity
  8
0
  6
Continuous
 62
     7
370
    25
100
AcDbCircle
 10
0.0
 20
0.0
 30
0.0
 40
17.09999999999999
100
AcDbArc
 50
287.5859050707
 51
290.49978599
  0
SPLINE
  5
8D
330
1F
100
AcDbEntity
  8
0
  6
Continuous
 62
     7
370
    25
100
AcDbSpline
210
0.0
220
0.0
230
1.0
 70
     8
 71
     3
 72
    21
 73
    17
 74
     0
 42
0.00000001
 43
0.00000001
 40
-0.5448854583874875
 40
-0.5448854583874875
 40
-0.5448854583874875
 40
-0.5448854583874875
 40
-0.4760133859089353
 40
-0.407141313430383
 40
-0.3727052771911069
 40
-0.3382692409518308
 40
-0.3038332047125546
 40
-0.2866151865929166
 40
-0.2693971684732785
 40
-0.2521791503536405
 40
-0.2349611322340024
 40
-0.2005250959947263
 40
-0.1660890597554502
 40
-0.1316530235161741
 40
-0.0627809510376219
 40
0.0060911214409304
 40
0.0060911214409304
 40
0.0060911214409304
 40
0.0060911214409304
 10
5.988486392772265
 20
-16.01711680433095
 30
0.0
 10
6.016361990047846
 20
-15.78678023929051
 30
0.0
 10
6.06717344324917
 20
-15.32566440698078
 30
0.0
 10
6.05832103509247
 20
-14.74111518145866
 30
0.0
 10
6.014847287142648
 20
-14.27202677973885
 30
0.0
 10
5.919393198666597
 20
-13.92928629205494
 30
0.0
 10
5.94874218383369
 20
-13.69299648862583
 30
0.0
 10
6.054998731859861
 20
-13.55809622373809
 30
0.0
 10
6.19818862388131
 20
-13.49577372535282
 30
0.0
 10
6.338769015417208
 20
-13.42776936889197
 30
0.0
 10
6.510335847094801
 20
-13.43507400669147
 30
0.0
 10
6.708695771001257
 20
-13.56678419886595
 30
0.0
 10
6.906477909777701
 20
-13.86252859946496
 30
0.0
 10
7.233971787786618
 20
-14.20117539962045
 30
0.0
 10
7.671607530785957
 20
-14.58879779143762
 30
0.0
 10
8.054492582750935
 20
-14.85073032390521
 30
0.0
 10
8.247376636957254
 20
-14.97967885530836
 30
0.0
  0
ARC
  5
8E
330
1F
100
AcDbEntity
  8
0
  6
Continuous
 62
     7
370
    25
100
AcDbCircle
 10
0.0
 20
0.0
 30
0.0
 40
17.10000000000002
100
AcDbArc
 50
298.8359050707
 51
301.74978599
  0
SPLINE
  5
8F
330
1F
100
AcDbEntity
  8
0
  6
Continuous
 62
     7
370
    25
100
AcDbSpline
210
0.0
220
0.0
230
1.0
 70
     8
 71
     3
 72
    21
 73
    17
 74
     0
 42
0.00000001
 43
0.00000001
 40
-0.5448854583874861
 40
-0.5448854583874861
 40
-0.5448854583874861
 40
-0.5448854583874861
 40
-0.4760133859089343
 40
-0.4071413134303823
 40
-0.3727052771911064
 40
-0.3382692409518304
 40
-0.3038332047125545
 40
-0.2866151865929165
 40
-0.2693971684732785
 40
-0.2521791503536406
 40
-0.2349611322340026
 40
-0.2005250959947266
 40
-0.1660890597554507
 40
-0.1316530235161747
 40
-0.0627809510376229
 40
0.006091121440929
 40
0.006091121440929
 40
0.006091121440929
 40
0.006091121440929
 10
8.998203781053006
 20
-14.54105665743188
 30
0.0
 10
8.980607321897432
 20
-14.30970768565269
 30
0.0
 10
8.940483211061153
 20
-13.8475392419952
 30
0.0
 10
8.817761002803636
 20
-13.27594898509004
 30
0.0
 10
8.683607983384853
 20
-12.82435529296209
 30
0.0
 10
8.52312266634303
 20
-12.50682263650196
 30
0.0
 10
8.505809865149496
 20
-12.2693473724225
 30
0.0
 10
8.583706987283211
 20
-12.11630955412702
 30
0.0
 10
8.711987009401321
 20
-12.02724960292903
 30
0.0
 10
8.836599196332685
 20
-11.93312605725506
 30
0.0
 10
9.00629448358777
 20
-11.90681931004812
 30
0.0
 10
9.226538360981566
 20
-11.99730062638199
 30
0.0
 10
9.478217041767373
 20
-12.24877700010821
 30
0.0
 10
9.86548493003284
 20
-12.51702591083731
 30
0.0
 10
10.37033300218517
 20
-12.81182174905882
 30
0.0
 10
10.79696152734449
 20
-12.9940241532787
 30
0.0
 10
11.01129597904948
 20
-13.08286516256168
 30
0.0
  0
ARC
  5
90
330
1F
100
AcDbEntity
  8
0
  6
Continuous
 62
     7
370
    25
100
AcDbCircle
 10
0.0
 20
0.0
 30
0.0
 40
17.10000000000004
100
AcDbArc
 50
310.0859050707
 51
312.99978599
  0
SPLINE
  5
91
330
1F
100
AcDbEntity
  8
0
  6
Continuous
 62
     7
370
    25
100
AcDbSpline
210
0.0
220
0.0
230
1.0
 70
     8
 71
     3
 72
    21
 73
    17
 74
     0
 42
0.00000001
 43
0.00000001
 40
-0.5448854583874856
 40
-0.5448854583874856
 40
-0.5448854583874856
 40
-0.5448854583874856
 40
-0.4760133859089336
 40
-0.4071413134303816
 40
-0.3727052771911056
 40
-0.3382692409518296
 40
-0.3038332047125537
 40
-0.2866151865929157
 40
-0.2693971684732777
 40
-0.2521791503536397
 40
-0.2349611322340017
 40
-0.2005250959947257
 40
-0.1660890597554497
 40
-0.1316530235161738
 40
-0.0627809510376218
 40
0.0060911214409302
 40
0.0060911214409302
 40
0.0060911214409302
 40
0.0060911214409302
 10
11.66212524427862
 20
-12.50619185790625
 30
0.0
 10
11.5997329507492
 20
-12.28272109063179
 30
0.0
 10
11.47021522295289
 20
-11.83726090972937
 30
0.0
 10
11.23833936023432
 20
-11.30059551446224
 30
0.0
 10
11.01866249464908
 20
-10.88385102425809
 30
0.0
 10
10.79931330977413
 20
-10.60372880093518
 30
0.0
 10
10.73600404346083
 20
-10.37419411742595
 30
0.0
 10
10.78254819698351
 20
-10.20889990325573
 30
0.0
 10
10.89098861988877
 20
-10.09652502322393
 30
0.0
 10
10.99484382575504
 20
-9.979899403412032
 30
0.0
 10
11.15614627386509
 20
-9.920992224740882
 30
0.0
 10
11.38981025605157
 20
-9.96676751898985
 30
0.0
 10
11.68571360828742
 20
-10.16431176983063
 30
0.0
 10
12.11787301904559
 20
-10.3518541359297
 30
0.0
 10
12.67053239206025
 20
-10.54249458181609
 30
0.0
 10
13.12450929544794
 20
-10.63796492157449
 30
0.0
 10
13.35205739187274
 20
-10.683284298573
 30
0.0
  0
ARC
  5
92
330
1F
100
AcDbEntity
  8
0
  6
Continuous
 62
     7
370
    25
100
AcDbCircle
 10
0.0
 20
0.0
 30
0.0
 40
17.09999999999999
100
AcDbArc
 50
321.3359050707
 51
324.24978599
  0
SPLINE
  5
93
330
1F
100
AcDbEntity
  8
0
  6
Continuous
 62
     7
370
    25
100
AcDbSpline
210
0.0
220
0.0
230
1.0
 70
     8
 71
     3
 72
    21
 73
    17
 74
     0
 42
0.00000001
 43
0.00000001
 40
-0.5448854583874836
 40
-0.5448854583874836
 40
-0.5448854583874836
 40
-0.5448854583874836
 40
-0.4760133859089317
 40
-0.4071413134303797
 40
-0.3727052771911038
 40
-0.3382692409518279
 40
-0.3038332047125519
 40
-0.286615186592914
 40
-0.2693971684732759
 40
-0.252179150353638
 40
-0.234961132234
 40
-0.200525095994724
 40
-0.1660890597554481
 40
-0.1316530235161721
 40
-0.0627809510376202
 40
0.0060911214409317
 40
0.0060911214409317
 40
0.0060911214409317
 40
0.0060911214409317
 10
13.87787777456177
 20
-9.990721118834433
 30
0.0
 10
13.77308734750875
 20
-9.7837164123272
 30
0.0
 10
13.55915329639719
 20
-9.372083279114939
 30
0.0
 10
13.22703463858448
 20
-8.890966495660725
 30
0.0
 10
12.93027598558092
 20
-8.525086464425852
 30
0.0
 10
12.66049239903524
 20
-8.293139614188258
 30
0.0
 10
12.55361960720227
 20
-8.080366400411796
 30
0.0
 10
12.56702212639627
 20
-7.909167954319358
 30
0.0
 10
12.65145564545055
 20
-7.777796649072904
 30
0.0
 10
12.73056277293293
 20
-7.643150812287993
 30
0.0
 10
12.87727361927622
 20
-7.553906971993425
 30
0.0
 10
13.11537813046075
 20
-7.553217125270648
 30
0.0
 10
13.44413475426448
 20
-7.68923773845017
 30
0.0
 10
13.90457804371785
 20
-7.788866411965018
 30
0.0
 10
14.48381032782459
 20
-7.868025260093142
 30
0.0
 10
14.94768953163689
 20
-7.873094663773427
 30
0.0
 10
15.17970672704636
 20
-7.873150810245099
 30
0.0
  0
ARC
  5
94
330
1F
100
AcDbEntity
  8
0
  6
Continuous
 62
     7
370
    25
100
AcDbCircle
 10
0.0
 20
0.0
 30
0.0
 40
17.09999999999999
100
AcDbArc
 50
332.5859050707
 51
335.49978599
  0
SPLINE
  5
95
330
1F
100
AcDbEntity
  8
0
  6
Continuous
 62
     7
370
    25
100
AcDbSpline
210
0.0
220
0.0
230
1.0
 70
     8
 71
     3
 72
    21
 73
    17
 74
     0
 42
0.00000001
 43
0.00000001
 40
-0.5448854583874903
 40
-0.5448854583874903
 40
-0.5448854583874903
 40
-0.5448854583874903
 40
-0.4760133859089375
 40
-0.4071413134303847
 40
-0.3727052771911084
 40
-0.338269240951832
 40
-0.3038332047125556
 40
-0.2866151865929174
 40
-0.2693971684732793
 40
-0.2521791503536411
 40
-0.2349611322340029
 40
-0.2005250959947265
 40
-0.1660890597554501
 40
-0.1316530235161738
 40
-0.062780951037621
 40
0.0060911214409317
 40
0.0060911214409317
 40
0.0060911214409317
 40
0.0060911214409317
 10
15.56031124477206
 20
-7.091312570026776
 30
0.0
 10
15.41714972153996
 20
-6.908728999068272
 30
0.0
 10
15.12702071272185
 20
-6.546741744009023
 30
0.0
 10
14.70742239358041
 20
-6.139662620542387
 30
0.0
 10
14.34498622176943
 20
-5.838707612689348
 30
0.0
 10
14.0351358654875
 20
-5.663849722914146
 30
0.0
 10
13.88880660959018
 20
-5.476014734151906
 30
0.0
 10
13.86855244315898
 20
-5.305491116410764
 30
0.0
 10
13.9257343255759
 20
-5.160171911536668
 30
0.0
 10
13.97705333212915
 20
-5.012680221775845
 30
0.0
 10
14.10353456115709
 20
-4.896529310592187
 30
0.0
 10
14.33692937850516
 20
-4.849400833320131
 30
0.0
 10
14.68590534119294
 20
-4.918670612955233
 30
0.0
 10
15.15693793194732
 20
-4.926556919835121
 30
0.0
 10
15.74048355530532
 20
-4.891192140064313
 30
0.0
 10
16.19643844188596
 20
-4.80566579332607
 30
0.0
 10
16.42400844557723
 20
-4.760456551593279
 30
0.0
  0
ARC
  5
96
330
1F
100
AcDbEntity
  8
0
  6
Continuous
 62
     7
370
    25
100
AcDbCircle
 10
0.0
 20
0.0
 30
0.0
 40
17.09999999999999
100
AcDbArc
 50
343.8359050707
 51
346.74978599
  0
SPLINE
  5
97
330
1F
100
AcDbEntity
  8
0
  6
Continuous
 62
     7
370
    25
100
AcDbSpline
210
0.0
220
0.0
230
1.0
 70
     8
 71
     3
 72
    21
 73
    17
 74
     0
 42
0.00000001
 43
0.00000001
 40
-0.5448854583874857
 40
-0.5448854583874857
 40
-0.5448854583874857
 40
-0.5448854583874857
 40
-0.4760133859089341
 40
-0.4071413134303824
 40
-0.3727052771911066
 40
-0.3382692409518308
 40
-0.3038332047125549
 40
-0.286615186592917
 40
-0.2693971684732791
 40
-0.2521791503536412
 40
-0.2349611322340033
 40
-0.2005250959947275
 40
-0.1660890597554516
 40
-0.1316530235161758
 40
-0.0627809510376242
 40
0.0060911214409275
 40
0.0060911214409275
 40
0.0060911214409275
 40
0.0060911214409275
 10
16.64477068016885
 20
-3.919388856006898
 30
0.0
 10
16.46873967780954
 20
-3.768243004834989
 30
0.0
 10
16.11356520638746
 20
-3.469812595135789
 30
0.0
 10
15.62261215400858
 20
-3.152414954079052
 30
0.0
 10
15.20842668221612
 20
-2.927950501781938
 30
0.0
 10
14.87041693162395
 20
-2.816901263112017
 30
0.0
 10
14.69025456290394
 20
-2.66122289264258
 30
0.0
 10
14.63712206710495
 20
-2.497927230252301
 30
0.0
 10
14.66485484521114
 20
-2.344244661297447
 30
0.0
 10
14.6864135701934
 20
-2.189575141484505
 30
0.0
 10
14.78780457920596
 20
-2.050980773790003
 30
0.0
 10
15.00752047077622
 20
-1.959224786920375
 30
0.0
 10
15.36330482180998
 20
-1.959081734226666
 30
0.0
 10
15.82682519556073
 20
-1.874922608120813
 30
0.0
 10
16.39225882712051
 20
-1.726393249104951
 30
0.0
 10
16.82276730588073
 20
-1.553557881489658
 30
0.0
 10
17.03714473023466
 20
-1.464820617358545
 30
0.0
  0
ARC
  5
98
330
1F
100
AcDbEntity
  8
0
  6
Continuous
 62
     7
370
    25
100
AcDbCircle
 10
0.0
 20
0.0
 30
0.0
 40
17.10000000000003
100
AcDbArc
 50
355.0859050707
 51
357.99978599
  0
SPLINE
  5
99
330
1F
100
AcDbEntity
  8
0
  6
Continuous
 62
     7
370
    25
100
AcDbSpline
210
0.0
220
0.0
230
1.0
 70
     8
 71
     3
 72
    21
 73
    17
 74
     0
 42
0.00000001
 43
0.00000001
 40
-0.5448854583874799
 40
-0.5448854583874799
 40
-0.5448854583874799
 40
-0.5448854583874799
 40
-0.4760133859089289
 40
-0.4071413134303778
 40
-0.3727052771911023
 40
-0.3382692409518268
 40
-0.3038332047125513
 40
-0.2866151865929135
 40
-0.2693971684732757
 40
-0.252179150353638
 40
-0.2349611322340002
 40
-0.2005250959947247
 40
-0.1660890597554492
 40
-0.1316530235161736
 40
-0.0627809510376226
 40
0.0060911214409284
 40
0.0060911214409284
 40
0.0060911214409284
 40
0.0060911214409284
 10
17.08958091282173
 20
-0.5968452262692755
 30
0.0
 10
16.88744520403655
 20
-0.4829455451809256
 30
0.0
 10
16.48087442576308
 20
-0.2595404941248699
 30
0.0
 10
15.93743369061986
 20
-0.0440217488252884
 30
0.0
 10
15.48741583424925
 20
0.0953261048951211
 30
0.0
 10
15.1342362145037
 20
0.1382991324949593
 30
0.0
 10
14.92716427175472
 20
0.255838252199772
 30
0.0
 10
14.84319529860462
 20
0.405630598510741
 30
0.0
 10
14.84041321729019
 20
0.5617705966074382
 30
0.0
 10
14.83138317099053
 20
0.7176740835662356
 30
0.0
 10
14.90378756037229
 20
0.8733858039455741
 30
0.0
 10
15.10138096766955
 20
1.006243169294454
 30
0.0
 10
15.45030111396537
 20
1.075793556882347
 30
0.0
 10
15.88849644269444
 20
1.248763927954722
 30
0.0
 10
16.41408878509397
 20
1.504749966244868
 30
0.0
 10
16.80260665662698
 20
1.758252388487166
 30
0.0
 10
16.99555309744991
 20
1.887107551720448
 30
0.0
  0
ARC
  5
9A
330
1F
100
AcDbEntity
  8
0
  6
Continuous
 62
     7
370
    25
100
AcDbCircle
 10
0.0
 20
0.0
 30
0.0
 40
17.09999999999999
100
AcDbArc
 50
6.3359050707
 51
9.24978599
  0
SPLINE
  5
9B
330
1F
100
AcDbEntity
  8
0
  6
Continuous
 62
     7
370
    25
100
AcDbSpline
210
0.0
220
0.0
230
1.0
 70
     8
 71
     3
 72
    21
 73
    17
 74
     0
 42
0.00000001
 43
0.00000001
 40
-0.5448854583874894
 40
-0.5448854583874894
 40
-0.5448854583874894
 40
-0.5448854583874894
 40
-0.4760133859089369
 40
-0.4071413134303844
 40
-0.3727052771911081
 40
-0.3382692409518319
 40
-0.3038332047125557
 40
-0.2866151865929176
 40
-0.2693971684732794
 40
-0.2521791503536413
 40
-0.2349611322340032
 40
-0.200525095994727
 40
-0.1660890597554507
 40
-0.1316530235161745
 40
-0.062780951037622
 40
0.0060911214409305
 40
0.0060911214409305
 40
0.0060911214409305
 40
0.0060911214409305
 10
16.87764813494217
 20
2.74863483079919
 30
0.0
 10
16.65717568166077
 20
2.820911240935404
 30
0.0
 10
16.21483288353759
 20
2.960705602523118
 30
0.0
 10
15.63978858831658
 20
3.066063187548362
 30
0.0
 10
15.17123228121504
 20
3.114939382820692
 30
0.0
 10
14.81645528703789
 20
3.088184769999266
 30
0.0
 10
14.59043142889232
 20
3.163067676486059
 30
0.0
 10
14.47885285893872
 20
3.293600270853712
 30
0.0
 10
14.44566283202839
 20
3.446197325529422
 30
0.0
 10
14.4063910340622
 20
3.597343496061725
 30
0.0
 10
14.44702634373377
 20
3.764188655035887
 30
0.0
 10
14.61490386292776
 20
3.933041764821392
 30
0.0
 10
14.94355099893973
 20
4.069326704912499
 30
0.0
 10
15.33958168190707
 20
4.324461166593888
 30
0.0
 10
15.80513451618347
 20
4.678066484265611
 30
0.0
 10
16.13673125656948
 20
5.002494005213763
 30
0.0
 10
16.3008318903462
 20
5.166515235888888
 30
0.0
  0
ARC
  5
9C
330
1F
100
AcDbEntity
  8
0
  6
Continuous
 62
     7
370
    25
100
AcDbCircle
 10
0.0
 20
0.0
 30
0.0
 40
17.09999999999999
100
AcDbArc
 50
17.5859050707
 51
20.49978599
  0
SPLINE
  5
9D
330
1F
100
AcDbEntity
  8
0
  6
Continuous
 62
     7
370
    25
100
AcDbSpline
210
0.0
220
0.0
230
1.0
 70
     8
 71
     3
 72
    21
 73
    17
 74
     0
 42
0.00000001
 43
0.00000001
 40
-0.5448854583874876
 40
-0.5448854583874876
 40
-0.5448854583874876
 40
-0.5448854583874876
 40
-0.4760133859089353
 40
-0.407141313430383
 40
-0.3727052771911068
 40
-0.3382692409518306
 40
-0.3038332047125545
 40
-0.2866151865929164
 40
-0.2693971684732783
 40
-0.2521791503536402
 40
-0.2349611322340022
 40
-0.200525095994726
 40
-0.1660890597554499
 40
-0.1316530235161737
 40
-0.0627809510376214
 40
0.0060911214409309
 40
0.0060911214409309
 40
0.0060911214409309
 40
0.0060911214409309
 10
16.01711680433095
 20
5.988486392772272
 30
0.0
 10
15.78678023929051
 20
6.016361990047847
 30
0.0
 10
15.32566440698078
 20
6.067173443249177
 30
0.0
 10
14.74111518145866
 20
6.058321035092473
 30
0.0
 10
14.27202677973884
 20
6.014847287142655
 30
0.0
 10
13.92928629205495
 20
5.919393198666602
 30
0.0
 10
13.6929964886258
 20
5.948742183833704
 30
0.0
 10
13.5580962237381
 20
6.054998731859867
 30
0.0
 10
13.49577372535282
 20
6.198188623881319
 30
0.0
 10
13.42776936889197
 20
6.338769015417202
 30
0.0
 10
13.43507400669147
 20
6.510335847094817
 30
0.0
 10
13.56678419886595
 20
6.708695771001262
 30
0.0
 10
13.86252859946496
 20
6.906477909777719
 30
0.0
 10
14.20117539962044
 20
7.233971787786624
 30
0.0
 10
14.58879779143763
 20
7.671607530785967
 30
0.0
 10
14.85073032390521
 20
8.05449258275094
 30
0.0
 10
14.97967885530836
 20
8.247376636957252
 30
0.0
  0
ARC
  5
9E
330
1F
100
AcDbEntity
  8
0
  6
Continuous
 62
     7
370
    25
100
AcDbCircle
 10
0.0
 20
0.0
 30
0.0
 40
17.10000000000002
100
AcDbArc
 50
28.8359050707
 51
31.74978599
  0
SPLINE
  5
9F
330
1F
100
AcDbEntity
  8
0
  6
Continuous
 62
     7
370
    25
100
AcDbSpline
210
0.0
220
0.0
230
1.0
 70
     8
 71
     3
 72
    21
 73
    17
 74
     0
 42
0.00000001
 43
0.00000001
 40
-0.544885458387485
 40
-0.544885458387485
 40
-0.544885458387485
 40
-0.544885458387485
 40
-0.4760133859089334
 40
-0.4071413134303817
 40
-0.3727052771911059
 40
-0.3382692409518301
 40
-0.3038332047125543
 40
-0.2866151865929163
 40
-0.2693971684732784
 40
-0.2521791503536405
 40
-0.2349611322340026
 40
-0.2005250959947268
 40
-0.166089059755451
 40
-0.1316530235161752
 40
-0.0627809510376235
 40
0.0060911214409281
 40
0.0060911214409281
 40
0.0060911214409281
 40
0.0060911214409281
 10
14.54105665743189
 20
8.998203781052991
 30
0.0
 10
14.30970768565269
 20
8.980607321897438
 30
0.0
 10
13.84753924199518
 20
8.940483211061144
 30
0.0
 10
13.27594898509004
 20
8.817761002803636
 30
0.0
 10
12.82435529296208
 20
8.683607983384857
 30
0.0
 10
12.50682263650198
 20
8.52312266634303
 30
0.0
 10
12.2693473724225
 20
8.505809865149493
 30
0.0
 10
12.11630955412702
 20
8.58370698728322
 30
0.0
 10
12.02724960292903
 20
8.711987009401323
 30
0.0
 10
11.93312605725506
 20
8.836599196332692
 30
0.0
 10
11.90681931004811
 20
9.00629448358777
 30
0.0
 10
11.997300626382
 20
9.226538360981563
 30
0.0
 10
12.24877700010819
 20
9.478217041767367
 30
0.0
 10
12.51702591083732
 20
9.865484930032835
 30
0.0
 10
12.8118217490588
 20
10.37033300218518
 30
0.0
 10
12.99402415327871
 20
10.79696152734449
 30
0.0
 10
13.08286516256168
 20
11.01129597904948
 30
0.0
  0
ARC
  5
A0
330
1F
100
AcDbEntity
  8
0
  6
Continuous
 62
     7
370
    25
100
AcDbCircle
 10
0.0
 20
0.0
 30
0.0
 40
17.10000000000004
100
AcDbArc
 50
40.0859050707
 51
42.99978599
  0
SPLINE
  5
A1
330
1F
100
AcDbEntity
  8
0
  6
Continuous
 62
     7
370
    25
100
AcDbSpline
210
0.0
220
0.0
230
1.0
 70
     8
 71
     3
 72
    21
 73
    17
 74
     0
 42
0.00000001
 43
0.00000001
 40
-0.5448854583874866
 40
-0.5448854583874866
 40
-0.5448854583874866
 40
-0.5448854583874866
 40
-0.4760133859089345
 40
-0.4071413134303824
 40
-0.3727052771911064
 40
-0.3382692409518303
 40
-0.3038332047125543
 40
-0.2866151865929163
 40
-0.2693971684732783
 40
-0.2521791503536402
 40
-0.2349611322340022
 40
-0.2005250959947262
 40
-0.1660890597554502
 40
-0.1316530235161741
 40
-0.0627809510376221
 40
0.00609112144093
 40
0.00609112144093
 40
0.00609112144093
 40
0.00609112144093
 10
12.50619185790625
 20
11.66212524427862
 30
0.0
 10
12.2827210906318
 20
11.59973295074919
 30
0.0
 10
11.83726090972939
 20
11.47021522295286
 30
0.0
 10
11.30059551446226
 20
11.23833936023428
 30
0.0
 10
10.88385102425811
 20
11.01866249464902
 30
0.0
 10
10.60372880093522
 20
10.79931330977408
 30
0.0
 10
10.37419411742598
 20
10.73600404346076
 30
0.0
 10
10.20889990325576
 20
10.78254819698344
 30
0.0
 10
10.09652502322396
 20
10.89098861988868
 30
0.0
 10
9.979899403412057
 20
10.99484382575496
 30
0.0
 10
9.920992224740901
 20
11.156146273865
 30
0.0
 10
9.966767518989865
 20
11.38981025605149
 30
0.0
 10
10.16431176983062
 20
11.68571360828733
 30
0.0
 10
10.35185413592969
 20
12.11787301904552
 30
0.0
 10
10.54249458181607
 20
12.67053239206015
 30
0.0
 10
10.63796492157443
 20
13.12450929544794
 30
0.0
 10
10.68328429857305
 20
13.35205739187275
 30
0.0
  0
ARC
  5
A2
330
1F
100
AcDbEntity
  8
0
  6
Continuous
 62
     7
370
    25
100
AcDbCircle
 10
0.0
 20
0.0
 30
0.0
 40
17.10000000000003
100
AcDbArc
 50
51.3359050707
 51
54.24978599
  0
CIRCLE
  5
A3
330
1F
100
AcDbEntity
  8
0
  6
Continuous
 62
     7
370
    25
100
AcDbCircle
 10
0.0
 20
0.0
 30
0.0
 40
3.3
  0
MTEXT
  5
A5
330
1F
100
AcDbEntity
  8
0
  6
Continuous
 62
     7
100
AcDbMText
 10
-17.0895809128
 20
-18.1091473045
 30
0.0
 40
4.83362
 41
0.0
 71
     1
 72
     1
  1
SOLIDWORKS Educational Product.
  7
SLDTEXTSTYLE0
 73
     1
 44
1.0
  0
MTEXT
  5
A6
330
1F
100
AcDbEntity
  8
0
  6
Continuous
 62
     7
100
AcDbMText
 10
-17.0895809128
 20
-25.3595773045
 30
0.0
 40
4.83362
 41
0.0
 71
     1
 72
     1
  1
For Instructional Use Only.
  7
SLDTEXTSTYLE0
 73
     1
 44
1.0
  0
ENDSEC
  0
SECTION
  2
OBJECTS
  0
DICTIONARY
  5
C
330
0
100
AcDbDictionary
281
     1
  3
ACAD_GROUP
350
D
  3
ACAD_LAYOUT
350
1A
  3
ACAD_MLINESTYLE
350
17
  3
ACAD_PLOTSETTINGS
350
19
  3
ACAD_PLOTSTYLENAME
350
E
  3
ACAD_SCALELIST
350
47
  3
DWGPROPS
350
A7
  0
DICTIONARY
  5
D
102
{ACAD_REACTORS
330
C
102
}
330
C
100
AcDbDictionary
281
     1
  0
DICTIONARY
  5
1A
102
{ACAD_REACTORS
330
C
102
}
330
C
100
AcDbDictionary
281
     1
  3
Layout1
350
1E
  3
Layout2
350
26
  3
Model
350
22
  0
DICTIONARY
  5
17
102
{ACAD_REACTORS
330
C
102
}
330
C
100
AcDbDictionary
281
     1
  3
Standard
350
18
  0
DICTIONARY
  5
19
102
{ACAD_REACTORS
330
C
102
}
330
C
100
AcDbDictionary
281
     1
  0
ACDBDICTIONARYWDFLT
  5
E
102
{ACAD_REACTORS
330
C
102
}
330
C
100
AcDbDictionary
281
     1
  3
Normal
350
F
100
AcDbDictionaryWithDefault
340
F
  0
DICTIONARY
  5
47
102
{ACAD_REACTORS
330
C
102
}
330
C
100
AcDbDictionary
281
     1
  3
A0
350
48
  3
A1
350
49
  3
A2
350
4A
  3
A3
350
4B
  3
A4
350
4C
  3
A5
350
4D
  3
A6
350
4E
  3
A7
350
4F
  3
A8
350
50
  3
A9
350
51
  3
B0
350
52
  3
B1
350
53
  3
B2
350
54
  3
B3
350
55
  3
B4
350
56
  3
B5
350
57
  3
B6
350
58
  0
XRECORD
  5
A7
102
{ACAD_REACTORS
330
C
102
}
330
C
100
AcDbXrecord
280
     1
  1
DWGPROPS COOKIE
  2

  3

  4

  6

  7

  8
11326
  9

300
=
301
=
302
=
303
=
304
=
305
=
306
=
307
=
308
=
309
=
 40
0.0
 41
2460903.594857338
 42
2460903.594870452
  1

 90
        0
  0
LAYOUT
  5
1E
102
{ACAD_REACTORS
330
1A
102
}
330
1A
100
AcDbPlotSettings
  1

  2
none_device
  4

  6

 40
0.0
 41
0.0
 42
0.0
 43
0.0
 44
0.0
 45
0.0
 46
0.0
 47
0.0
 48
0.0
 49
0.0
140
0.0
141
0.0
142
1.0
143
1.0
 70
   688
 72
     1
 73
     0
 74
     5
  7

 75
    16
147
1.0
148
0.0
149
0.0
100
AcDbLayout
  1
Layout1
 70
     1
 71
     1
 10
0.0
 20
0.0
 11
420.0
 21
297.0
 12
0.0
 22
0.0
 32
0.0
 14
1.0000000000E+20
 24
1.0000000000E+20
 34
1.0000000000E+20
 15
-1.0000000000E+20
 25
-1.0000000000E+20
 35
-1.0000000000E+20
146
0.0
 13
0.0
 23
0.0
 33
0.0
 16
1.0
 26
0.0
 36
0.0
 17
0.0
 27
1.0
 37
0.0
 76
     0
330
1B
  0
LAYOUT
  5
26
102
{ACAD_REACTORS
330
1A
102
}
330
1A
100
AcDbPlotSettings
  1

  2
none_device
  4

  6

 40
0.0
 41
0.0
 42
0.0
 43
0.0
 44
0.0
 45
0.0
 46
0.0
 47
0.0
 48
0.0
 49
0.0
140
0.0
141
0.0
142
1.0
143
1.0
 70
   688
 72
     1
 73
     0
 74
     5
  7

 75
    16
147
1.0
148
0.0
149
0.0
100
AcDbLayout
  1
Layout2
 70
     1
 71
     2
 10
0.0
 20
0.0
 11
0.0
 21
0.0
 12
0.0
 22
0.0
 32
0.0
 14
0.0
 24
0.0
 34
0.0
 15
0.0
 25
0.0
 35
0.0
146
0.0
 13
0.0
 23
0.0
 33
0.0
 16
1.0
 26
0.0
 36
0.0
 17
0.0
 27
1.0
 37
0.0
 76
     0
330
23
  0
LAYOUT
  5
22
102
{ACAD_REACTORS
330
1A
102
}
330
1A
100
AcDbPlotSettings
  1

  2
none_device
  4
ANSI_A_(11.00_x_8.50_Inches)
  6

 40
6.35
 41
19.05
 42
6.35000508
 43
19.05000254
 44
279.4
 45
215.9
 46
133.34999746
 47
88.89999873
 48
0.0
 49
0.0
140
0.0
141
0.0
142
0.2462026437
143
1.0
 70
  1696
 72
     0
 73
     0
 74
     0
  7

 75
     0
147
0.0179189148
148
-1300.4909072572
149
0.0
100
AcDbLayout
  1
Model
 70
     1
 71
     0
 10
0.0
 20
0.0
 11
420.0
 21
297.0
 12
0.0
 22
0.0
 32
0.0
 14
-17.0895809128
 24
-17.0895809128
 34
0.0
 15
17.0895809128
 25
17.0895809128
 35
0.0
146
0.0
 13
0.0
 23
0.0
 33
0.0
 16
1.0
 26
0.0
 36
0.0
 17
0.0
 27
1.0
 37
0.0
 76
     0
330
1F
331
29
  0
MLINESTYLE
  5
18
102
{ACAD_REACTORS
330
17
102
}
330
17
100
AcDbMlineStyle
  2
Standard
 70
     0
  3

 62
   256
 51
90.0
 52
90.0
 71
     2
 49
0.5
 62
   256
  6
BYLAYER
 49
-0.5
 62
   256
  6
BYLAYER
  0
ACDBPLACEHOLDER
  5
F
102
{ACAD_REACTORS
330
E
102
}
330
E
  0
SCALE
  5
48
102
{ACAD_REACTORS
330
47
102
}
330
47
100
AcDbScale
 70
     0
300
1:1
140
1.0
141
1.0
290
     1
  0
SCALE
  5
49
102
{ACAD_REACTORS
330
47
102
}
330
47
100
AcDbScale
 70
     0
300
1:2
140
1.0
141
2.0
290
     0
  0
SCALE
  5
4A
102
{ACAD_REACTORS
330
47
102
}
330
47
100
AcDbScale
 70
     0
300
1:4
140
1.0
141
4.0
290
     0
  0
SCALE
  5
4B
102
{ACAD_REACTORS
330
47
102
}
330
47
100
AcDbScale
 70
     0
300
1:5
140
1.0
141
5.0
290
     0
  0
SCALE
  5
4C
102
{ACAD_REACTORS
330
47
102
}
330
47
100
AcDbScale
 70
     0
300
1:8
140
1.0
141
8.0
290
     0
  0
SCALE
  5
4D
102
{ACAD_REACTORS
330
47
102
}
330
47
100
AcDbScale
 70
     0
300
1:10
140
1.0
141
10.0
290
     0
  0
SCALE
  5
4E
102
{ACAD_REACTORS
330
47
102
}
330
47
100
AcDbScale
 70
     0
300
1:16
140
1.0
141
16.0
290
     0
  0
SCALE
  5
4F
102
{ACAD_REACTORS
330
47
102
}
330
47
100
AcDbScale
 70
     0
300
1:20
140
1.0
141
20.0
290
     0
  0
SCALE
  5
50
102
{ACAD_REACTORS
330
47
102
}
330
47
100
AcDbScale
 70
     0
300
1:30
140
1.0
141
30.0
290
     0
  0
SCALE
  5
51
102
{ACAD_REACTORS
330
47
102
}
330
47
100
AcDbScale
 70
     0
300
1:40
140
1.0
141
40.0
290
     0
  0
SCALE
  5
52
102
{ACAD_REACTORS
330
47
102
}
330
47
100
AcDbScale
 70
     0
300
1:50
140
1.0
141
50.0
290
     0
  0
SCALE
  5
53
102
{ACAD_REACTORS
330
47
102
}
330
47
100
AcDbScale
 70
     0
300
1:100
140
1.0
141
100.0
290
     0
  0
SCALE
  5
54
102
{ACAD_REACTORS
330
47
102
}
330
47
100
AcDbScale
 70
     0
300
2:1
140
2.0
141
1.0
290
     0
  0
SCALE
  5
55
102
{ACAD_REACTORS
330
47
102
}
330
47
100
AcDbScale
 70
     0
300
4:1
140
4.0
141
1.0
290
     0
  0
SCALE
  5
56
102
{ACAD_REACTORS
330
47
102
}
330
47
100
AcDbScale
 70
     0
300
8:1
140
8.0
141
1.0
290
     0
  0
SCALE
  5
57
102
{ACAD_REACTORS
330
47
102
}
330
47
100
AcDbScale
 70
     0
300
10:1
140
10.0
141
1.0
290
     0
  0
SCALE
  5
58
102
{ACAD_REACTORS
330
47
102
}
330
47
100
AcDbScale
 70
     0
300
100:1
140
100.0
141
1.0
290
     0
  0
ENDSEC
  0
EOF
