  0
SECTION
  2
HEADER
  9
$ACADVER
  1
AC1015
  9
$ACADMAINTVER
 70
     6
  9
$DWGCODEPAGE
  3
ANSI_936
  9
$INSBASE
 10
0.0
 20
0.0
 30
0.0
  9
$EXTMIN
 10
-17.0547730663
 20
-17.0547730663
 30
0.0
  9
$EXTMAX
 10
17.0547730663
 20
17.0547730663
 30
0.0
  9
$LIMMIN
 10
0.0
 20
0.0
  9
$LIMMAX
 10
420.0
 20
297.0
  9
$ORTHOMODE
 70
     0
  9
$REGENMODE
 70
     1
  9
$FILLMODE
 70
     1
  9
$QTEXTMODE
 70
     0
  9
$MIRRTEXT
 70
     1
  9
$LTSCALE
 40
1.0
  9
$ATTMODE
 70
     1
  9
$TEXTSIZE
 40
3.5
  9
$TRACEWID
 40
1.0
  9
$TEXTSTYLE
  7
Standard
  9
$CLAYER
  8
0
  9
$CELTYPE
  6
ByLayer
  9
$CECOLOR
 62
   256
  9
$CELTSCALE
 40
1.0
  9
$DISPSILH
 70
     0
  9
$DIMSCALE
 40
1.0
  9
$DIMASZ
 40
3.302
  9
$DIMEXO
 40
0.0
  9
$DIMDLI
 40
3.75
  9
$DIMRND
 40
0.0
  9
$DIMDLE
 40
0.0
  9
$DIMEXE
 40
1.0
  9
$DIMTP
 40
0.0
  9
$DIMTM
 40
0.0
  9
$DIMTXT
 40
3.5
  9
$DIMCEN
 40
2.5
  9
$DIMTSZ
 40
0.0
  9
$DIMTOL
 70
     0
  9
$DIMLIM
 70
     0
  9
$DIMTIH
 70
     1
  9
$DIMTOH
 70
     1
  9
$DIMSE1
 70
     0
  9
$DIMSE2
 70
     0
  9
$DIMTAD
 70
     1
  9
$DIMZIN
 70
     1
  9
$DIMBLK
  1

  9
$DIMASO
 70
     1
  9
$DIMSHO
 70
     1
  9
$DIMPOST
  1

  9
$DIMAPOST
  1

  9
$DIMALT
 70
     0
  9
$DIMALTD
 70
     3
  9
$DIMALTF
 40
0.0393700787
  9
$DIMLFAC
 40
1.0
  9
$DIMTOFL
 70
     1
  9
$DIMTVP
 40
0.0
  9
$DIMTIX
 70
     0
  9
$DIMSOXD
 70
     0
  9
$DIMSAH
 70
     0
  9
$DIMBLK1
  1

  9
$DIMBLK2
  1

  9
$DIMSTYLE
  2
ISO-25
  9
$DIMCLRD
 70
     0
  9
$DIMCLRE
 70
     0
  9
$DIMCLRT
 70
     0
  9
$DIMTFAC
 40
1.0
  9
$DIMGAP
 40
1.524
  9
$DIMJUST
 70
     0
  9
$DIMSD1
 70
     0
  9
$DIMSD2
 70
     0
  9
$DIMTOLJ
 70
     0
  9
$DIMTZIN
 70
     1
  9
$DIMALTZ
 70
     0
  9
$DIMALTTZ
 70
     0
  9
$DIMUPT
 70
     0
  9
$DIMDEC
 70
     2
  9
$DIMTDEC
 70
     2
  9
$DIMALTU
 70
     2
  9
$DIMALTTD
 70
     3
  9
$DIMTXSTY
  7
Standard
  9
$DIMAUNIT
 70
     0
  9
$DIMADEC
 70
     2
  9
$DIMALTRND
 40
0.0
  9
$DIMAZIN
 70
     0
  9
$DIMDSEP
 70
    44
  9
$DIMATFIT
 70
     3
  9
$DIMFRAC
 70
     0
  9
$DIMLDRBLK
  1

  9
$DIMLUNIT
 70
     2
  9
$DIMLWD
 70
    -2
  9
$DIMLWE
 70
    -2
  9
$DIMTMOVE
 70
     0
  9
$LUNITS
 70
     2
  9
$LUPREC
 70
     2
  9
$SKETCHINC
 40
1.0
  9
$FILLETRAD
 40
0.0
  9
$AUNITS
 70
     0
  9
$AUPREC
 70
     2
  9
$MENU
  1
.
  9
$ELEVATION
 40
0.0
  9
$PELEVATION
 40
0.0
  9
$THICKNESS
 40
0.0
  9
$LIMCHECK
 70
     0
  9
$CHAMFERA
 40
0.0
  9
$CHAMFERB
 40
0.0
  9
$CHAMFERC
 40
0.0
  9
$CHAMFERD
 40
0.0
  9
$SKPOLY
 70
     0
  9
$TDCREATE
 40
2460903.657705371
  9
$TDUCREATE
 40
2460903.616038704
  9
$TDUPDATE
 40
2460903.657720857
  9
$TDUUPDATE
 40
2460903.61605419
  9
$TDINDWG
 40
0.0000000116
  9
$TDUSRTIMER
 40
0.0000000116
  9
$USRTIMER
 70
     1
  9
$ANGBASE
 50
0.0
  9
$ANGDIR
 70
     0
  9
$PDMODE
 70
     0
  9
$PDSIZE
 40
-1.0
  9
$PLINEWID
 40
0.0
  9
$SPLFRAME
 70
     0
  9
$SPLINETYPE
 70
     6
  9
$SPLINESEGS
 70
     8
  9
$HANDSEED
  5
F7
  9
$SURFTAB1
 70
     6
  9
$SURFTAB2
 70
     6
  9
$SURFTYPE
 70
     6
  9
$SURFU
 70
     6
  9
$SURFV
 70
     6
  9
$UCSBASE
  2

  9
$UCSNAME
  2

  9
$UCSORG
 10
0.0
 20
0.0
 30
0.0
  9
$UCSXDIR
 10
1.0
 20
0.0
 30
0.0
  9
$UCSYDIR
 10
0.0
 20
1.0
 30
0.0
  9
$UCSORTHOREF
  2

  9
$UCSORTHOVIEW
 70
     0
  9
$UCSORGTOP
 10
0.0
 20
0.0
 30
0.0
  9
$UCSORGBOTTOM
 10
0.0
 20
0.0
 30
0.0
  9
$UCSORGLEFT
 10
0.0
 20
0.0
 30
0.0
  9
$UCSORGRIGHT
 10
0.0
 20
0.0
 30
0.0
  9
$UCSORGFRONT
 10
0.0
 20
0.0
 30
0.0
  9
$UCSORGBACK
 10
0.0
 20
0.0
 30
0.0
  9
$PUCSBASE
  2

  9
$PUCSNAME
  2

  9
$PUCSORG
 10
0.0
 20
0.0
 30
0.0
  9
$PUCSXDIR
 10
1.0
 20
0.0
 30
0.0
  9
$PUCSYDIR
 10
0.0
 20
1.0
 30
0.0
  9
$PUCSORTHOREF
  2

  9
$PUCSORTHOVIEW
 70
     0
  9
$PUCSORGTOP
 10
0.0
 20
0.0
 30
0.0
  9
$PUCSORGBOTTOM
 10
0.0
 20
0.0
 30
0.0
  9
$PUCSORGLEFT
 10
0.0
 20
0.0
 30
0.0
  9
$PUCSORGRIGHT
 10
0.0
 20
0.0
 30
0.0
  9
$PUCSORGFRONT
 10
0.0
 20
0.0
 30
0.0
  9
$PUCSORGBACK
 10
0.0
 20
0.0
 30
0.0
  9
$USERI1
 70
     0
  9
$USERI2
 70
     0
  9
$USERI3
 70
     0
  9
$USERI4
 70
     0
  9
$USERI5
 70
     0
  9
$USERR1
 40
0.0
  9
$USERR2
 40
0.0
  9
$USERR3
 40
0.0
  9
$USERR4
 40
0.0
  9
$USERR5
 40
0.0
  9
$WORLDVIEW
 70
     1
  9
$SHADEDGE
 70
     3
  9
$SHADEDIF
 70
    70
  9
$TILEMODE
 70
     1
  9
$MAXACTVP
 70
    64
  9
$PINSBASE
 10
0.0
 20
0.0
 30
0.0
  9
$PLIMCHECK
 70
     0
  9
$PEXTMIN
 10
1.0000000000E+20
 20
1.0000000000E+20
 30
1.0000000000E+20
  9
$PEXTMAX
 10
-1.0000000000E+20
 20
-1.0000000000E+20
 30
-1.0000000000E+20
  9
$PLIMMIN
 10
0.0
 20
0.0
  9
$PLIMMAX
 10
420.0
 20
297.0
  9
$UNITMODE
 70
     0
  9
$VISRETAIN
 70
     1
  9
$PLINEGEN
 70
     0
  9
$PSLTSCALE
 70
     1
  9
$TREEDEPTH
 70
  3020
  9
$CMLSTYLE
  2
Standard
  9
$CMLJUST
 70
     0
  9
$CMLSCALE
 40
20.0
  9
$PROXYGRAPHICS
 70
     1
  9
$MEASUREMENT
 70
     1
  9
$CELWEIGHT
370
    -1
  9
$ENDCAPS
280
     0
  9
$JOINSTYLE
280
     0
  9
$LWDISPLAY
290
     1
  9
$INSUNITS
 70
     4
  9
$HYPERLINKBASE
  1

  9
$STYLESHEET
  1

  9
$XEDIT
290
     1
  9
$CEPSNTYPE
380
     0
  9
$PSTYLEMODE
290
     1
  9
$FINGERPRINTGUID
  2
{4a29cdba-1e25-4a49-8de3-da61ffab888c}
  9
$VERSIONGUID
  2
{FAEB1C32-E019-11D5-929B-00C0DF256EC4}
  9
$EXTNAMES
290
     1
  9
$PSVPSCALE
 40
0.0
  9
$OLESTARTUP
290
     0
  0
ENDSEC
  0
SECTION
  2
CLASSES
  0
CLASS
  1
ACDBDICTIONARYWDFLT
  2
AcDbDictionaryWithDefault
  3
ObjectDBX Classes
 90
        0
280
     0
281
     0
  0
CLASS
  1
VISUALSTYLE
  2
AcDbVisualStyle
  3
ObjectDBX Classes
 90
     4095
280
     0
281
     0
  0
CLASS
  1
MATERIAL
  2
AcDbMaterial
  3
ObjectDBX Classes
 90
     1153
280
     0
281
     0
  0
CLASS
  1
SCALE
  2
AcDbScale
  3
ObjectDBX Classes
 90
     1153
280
     0
281
     0
  0
CLASS
  1
TABLESTYLE
  2
AcDbTableStyle
  3
ObjectDBX Classes
 90
     4095
280
     0
281
     0
  0
CLASS
  1
MLEADERSTYLE
  2
AcDbMLeaderStyle
  3
ACDB_MLEADERSTYLE_CLASS
 90
     4095
280
     0
281
     0
  0
CLASS
  1
SUN
  2
AcDbSun
  3
SCENEOE
 90
     1153
280
     0
281
     0
  0
CLASS
  1
ACDBPLACEHOLDER
  2
AcDbPlaceHolder
  3
ObjectDBX Classes
 90
        0
280
     0
281
     0
  0
CLASS
  1
LAYOUT
  2
AcDbLayout
  3
ObjectDBX Classes
 90
        0
280
     0
281
     0
  0
ENDSEC
  0
SECTION
  2
TABLES
  0
TABLE
  2
VPORT
  5
8
330
0
100
AcDbSymbolTable
 70
     1
  0
VPORT
  5
29
330
8
100
AcDbSymbolTableRecord
100
AcDbViewportTableRecord
  2
*Active
 70
     0
 10
0.0
 20
0.0
 11
1.0
 21
1.0
 12
0.0
 22
0.0
 13
0.0
 23
0.0
 14
10.0
 24
10.0
 15
10.0
 25
10.0
 16
0.0
 26
0.0
 36
1.0
 17
0.0
 27
0.0
 37
0.0
 40
34.7917370552
 41
1.0
 42
50.0
 43
0.0
 44
0.0
 50
0.0
 51
0.0
 71
     0
 72
   100
 73
     1
 74
     3
 75
     0
 76
     0
 77
     0
 78
     0
281
     0
 65
     1
110
0.0
120
0.0
130
0.0
111
1.0
121
0.0
131
0.0
112
0.0
122
1.0
132
0.0
 79
     0
146
0.0
  0
ENDTAB
  0
TABLE
  2
LTYPE
  5
5
330
0
100
AcDbSymbolTable
 70
     6
  0
LTYPE
  5
14
330
5
100
AcDbSymbolTableRecord
100
AcDbLinetypeTableRecord
  2
ByBlock
 70
     0
  3

 72
    65
 73
     0
 40
0.0
  0
LTYPE
  5
15
330
5
100
AcDbSymbolTableRecord
100
AcDbLinetypeTableRecord
  2
ByLayer
 70
     0
  3

 72
    65
 73
     0
 40
0.0
  0
LTYPE
  5
16
330
5
100
AcDbSymbolTableRecord
100
AcDbLinetypeTableRecord
  2
Continuous
 70
     0
  3
Solid line
 72
    65
 73
     0
 40
0.0
  0
LTYPE
  5
5E
330
5
100
AcDbSymbolTableRecord
100
AcDbLinetypeTableRecord
  2
HIDDEN
 70
     0
  3
Hidden __ __ __ __ __ __ __ __ __ __ __ __ __ __
 72
    65
 73
     2
 40
1.905
 49
1.27
 74
     0
 49
-0.635
 74
     0
  0
LTYPE
  5
5F
330
5
100
AcDbSymbolTableRecord
100
AcDbLinetypeTableRecord
  2
PHANTOM
 70
     0
  3
Phantom ______  __  __  ______  __  __  ______
 72
    65
 73
     6
 40
12.7
 49
6.35
 74
     0
 49
-1.27
 74
     0
 49
1.27
 74
     0
 49
-1.27
 74
     0
 49
1.27
 74
     0
 49
-1.27
 74
     0
  0
LTYPE
  5
60
330
5
100
AcDbSymbolTableRecord
100
AcDbLinetypeTableRecord
  2
CENTER
 70
     0
  3
Center ____ _ ____ _ ____ _ ____ _ ____ _ ____
 72
    65
 73
     4
 40
10.16
 49
6.35
 74
     0
 49
-1.27
 74
     0
 49
1.27
 74
     0
 49
-1.27
 74
     0
  0
LTYPE
  5
61
330
5
100
AcDbSymbolTableRecord
100
AcDbLinetypeTableRecord
  2
CENTERX2
 70
     0
  3
Center (2x) ________  __  ________  __  _____
 72
    65
 73
     4
 40
20.32
 49
12.7
 74
     0
 49
-2.54
 74
     0
 49
2.54
 74
     0
 49
-2.54
 74
     0
  0
LTYPE
  5
62
330
5
100
AcDbSymbolTableRecord
100
AcDbLinetypeTableRecord
  2
DOT2
 70
     0
  3
Dot (.5x) ........................................
 72
    65
 73
     2
 40
0.635
 49
0.0
 74
     0
 49
-0.635
 74
     0
  0
ENDTAB
  0
TABLE
  2
LAYER
  5
2
330
0
100
AcDbSymbolTable
 70
     1
  0
LAYER
  5
10
330
2
100
AcDbSymbolTableRecord
100
AcDbLayerTableRecord
  2
0
 70
     0
 62
     7
  6
Continuous
370
    -3
390
F
  0
ENDTAB
  0
TABLE
  2
STYLE
  5
3
330
0
100
AcDbSymbolTable
 70
     2
  0
STYLE
  5
11
330
3
100
AcDbSymbolTableRecord
100
AcDbTextStyleTableRecord
  2
Standard
 70
     0
 40
0.0
 41
1.0
 50
0.0
 71
     0
 42
3.5
  3
txt
  4

  0
STYLE
  5
F3
330
3
100
AcDbSymbolTableRecord
100
AcDbTextStyleTableRecord
  2
SLDTEXTSTYLE0
 70
     0
 40
0.0
 41
0.7
 50
0.0
 71
     0
 42
3.5
  3
TXT
  4

  0
ENDTAB
  0
TABLE
  2
VIEW
  5
6
330
0
100
AcDbSymbolTable
 70
     0
  0
ENDTAB
  0
TABLE
  2
UCS
  5
7
330
0
100
AcDbSymbolTable
 70
     0
  0
ENDTAB
  0
TABLE
  2
APPID
  5
9
330
0
100
AcDbSymbolTable
 70
     1
  0
APPID
  5
12
330
9
100
AcDbSymbolTableRecord
100
AcDbRegAppTableRecord
  2
ACAD
 70
     0
  0
ENDTAB
  0
TABLE
  2
DIMSTYLE
  5
A
330
0
100
AcDbSymbolTable
 70
     1
100
AcDbDimStyleTable
  0
DIMSTYLE
105
27
330
A
100
AcDbSymbolTableRecord
100
AcDbDimStyleTableRecord
  2
ISO-25
 70
     0
 41
2.5
 42
0.625
 43
3.75
 44
1.25
 73
     0
 74
     0
 77
     1
 78
     8
140
2.5
141
2.5
143
0.0393700787
147
0.625
171
     3
172
     1
178
     0
271
     2
272
     2
274
     3
278
    44
283
     0
284
     8
340
11
  0
ENDTAB
  0
TABLE
  2
BLOCK_RECORD
  5
1
330
0
100
AcDbSymbolTable
 70
     1
  0
BLOCK_RECORD
  5
1F
330
1
100
AcDbSymbolTableRecord
100
AcDbBlockTableRecord
  2
*Model_Space
340
22
  0
BLOCK_RECORD
  5
1B
330
1
100
AcDbSymbolTableRecord
100
AcDbBlockTableRecord
  2
*Paper_Space
340
1E
  0
BLOCK_RECORD
  5
23
330
1
100
AcDbSymbolTableRecord
100
AcDbBlockTableRecord
  2
*Paper_Space0
340
26
  0
ENDTAB
  0
ENDSEC
  0
SECTION
  2
BLOCKS
  0
BLOCK
  5
20
330
1F
100
AcDbEntity
  8
0
100
AcDbBlockBegin
  2
*Model_Space
 70
     0
 10
0.0
 20
0.0
 30
0.0
  3
*Model_Space
  1

  0
ENDBLK
  5
21
330
1F
100
AcDbEntity
  8
0
100
AcDbBlockEnd
  0
BLOCK
  5
1C
330
1B
100
AcDbEntity
 67
     1
  8
0
100
AcDbBlockBegin
  2
*Paper_Space
 70
     0
 10
0.0
 20
0.0
 30
0.0
  3
*Paper_Space
  1

  0
ENDBLK
  5
1D
330
1B
100
AcDbEntity
 67
     1
  8
0
100
AcDbBlockEnd
  0
BLOCK
  5
24
330
23
100
AcDbEntity
  8
0
100
AcDbBlockBegin
  2
*Paper_Space0
 70
     0
 10
0.0
 20
0.0
 30
0.0
  3
*Paper_Space0
  1

  0
ENDBLK
  5
25
330
23
100
AcDbEntity
  8
0
100
AcDbBlockEnd
  0
ENDSEC
  0
SECTION
  2
ENTITIES
  0
ARC
  5
63
330
1F
100
AcDbEntity
  8
0
  6
Continuous
 62
     7
100
AcDbCircle
 10
0.0
 20
0.0
 30
0.0
 40
17.10000000000004
100
AcDbArc
 50
262.9180595403
 51
265.8319404596
  0
ARC
  5
64
330
1F
100
AcDbEntity
  8
0
  6
Continuous
 62
     7
100
AcDbCircle
 10
0.0
 20
0.0
 30
0.0
 40
17.10000000000003
100
AcDbArc
 50
274.1680595404
 51
277.0819404597
  0
ARC
  5
65
330
1F
100
AcDbEntity
  8
0
  6
Continuous
 62
     7
100
AcDbCircle
 10
0.0
 20
0.0
 30
0.0
 40
17.09999999999999
100
AcDbArc
 50
285.4180595404
 51
288.3319404597
  0
ARC
  5
66
330
1F
100
AcDbEntity
  8
0
  6
Continuous
 62
     7
100
AcDbCircle
 10
0.0
 20
0.0
 30
0.0
 40
17.09999999999999
100
AcDbArc
 50
296.6680595404
 51
299.5819404597
  0
ARC
  5
67
330
1F
100
AcDbEntity
  8
0
  6
Continuous
 62
     7
100
AcDbCircle
 10
0.0
 20
0.0
 30
0.0
 40
17.10000000000004
100
AcDbArc
 50
307.9180595404
 51
310.8319404597
  0
ARC
  5
68
330
1F
100
AcDbEntity
  8
0
  6
Continuous
 62
     7
100
AcDbCircle
 10
0.0
 20
0.0
 30
0.0
 40
17.09999999999999
100
AcDbArc
 50
319.1680595404
 51
322.0819404596
  0
ARC
  5
69
330
1F
100
AcDbEntity
  8
0
  6
Continuous
 62
     7
100
AcDbCircle
 10
0.0
 20
0.0
 30
0.0
 40
17.09999999999999
100
AcDbArc
 50
330.4180595404
 51
333.3319404597
  0
ARC
  5
6A
330
1F
100
AcDbEntity
  8
0
  6
Continuous
 62
     7
100
AcDbCircle
 10
0.0
 20
0.0
 30
0.0
 40
17.10000000000002
100
AcDbArc
 50
341.6680595404
 51
344.5819404597
  0
ARC
  5
6B
330
1F
100
AcDbEntity
  8
0
  6
Continuous
 62
     7
100
AcDbCircle
 10
0.0
 20
0.0
 30
0.0
 40
17.09999999999997
100
AcDbArc
 50
352.9180595404
 51
355.8319404596
  0
ARC
  5
6C
330
1F
100
AcDbEntity
  8
0
  6
Continuous
 62
     7
100
AcDbCircle
 10
0.0
 20
0.0
 30
0.0
 40
17.10000000000003
100
AcDbArc
 50
4.1680595404
 51
7.0819404596
  0
ARC
  5
6D
330
1F
100
AcDbEntity
  8
0
  6
Continuous
 62
     7
100
AcDbCircle
 10
0.0
 20
0.0
 30
0.0
 40
17.09999999999999
100
AcDbArc
 50
15.4180595404
 51
18.3319404596
  0
ARC
  5
6E
330
1F
100
AcDbEntity
  8
0
  6
Continuous
 62
     7
100
AcDbCircle
 10
0.0
 20
0.0
 30
0.0
 40
17.09999999999999
100
AcDbArc
 50
26.6680595404
 51
29.5819404596
  0
ARC
  5
6F
330
1F
100
AcDbEntity
  8
0
  6
Continuous
 62
     7
100
AcDbCircle
 10
0.0
 20
0.0
 30
0.0
 40
17.10000000000004
100
AcDbArc
 50
37.9180595404
 51
40.8319404596
  0
ARC
  5
70
330
1F
100
AcDbEntity
  8
0
  6
Continuous
 62
     7
100
AcDbCircle
 10
0.0
 20
0.0
 30
0.0
 40
17.09999999999999
100
AcDbArc
 50
49.1680595404
 51
52.0819404596
  0
ARC
  5
71
330
1F
100
AcDbEntity
  8
0
  6
Continuous
 62
     7
100
AcDbCircle
 10
0.0
 20
0.0
 30
0.0
 40
17.09999999999999
100
AcDbArc
 50
60.4180595404
 51
63.3319404596
  0
ARC
  5
72
330
1F
100
AcDbEntity
  8
0
  6
Continuous
 62
     7
100
AcDbCircle
 10
0.0
 20
0.0
 30
0.0
 40
17.10000000000002
100
AcDbArc
 50
71.6680595404
 51
74.5819404596
  0
ARC
  5
73
330
1F
100
AcDbEntity
  8
0
  6
Continuous
 62
     7
100
AcDbCircle
 10
0.0
 20
0.0
 30
0.0
 40
17.09999999999997
100
AcDbArc
 50
82.9180595404
 51
85.8319404596
  0
ARC
  5
74
330
1F
100
AcDbEntity
  8
0
  6
Continuous
 62
     7
100
AcDbCircle
 10
0.0
 20
0.0
 30
0.0
 40
17.10000000000003
100
AcDbArc
 50
94.1680595404
 51
97.0819404596
  0
ARC
  5
75
330
1F
100
AcDbEntity
  8
0
  6
Continuous
 62
     7
100
AcDbCircle
 10
0.0
 20
0.0
 30
0.0
 40
17.09999999999999
100
AcDbArc
 50
105.4180595404
 51
108.3319404596
  0
ARC
  5
76
330
1F
100
AcDbEntity
  8
0
  6
Continuous
 62
     7
100
AcDbCircle
 10
0.0
 20
0.0
 30
0.0
 40
17.09999999999999
100
AcDbArc
 50
116.6680595404
 51
119.5819404596
  0
ARC
  5
77
330
1F
100
AcDbEntity
  8
0
  6
Continuous
 62
     7
100
AcDbCircle
 10
0.0
 20
0.0
 30
0.0
 40
17.10000000000004
100
AcDbArc
 50
127.9180595404
 51
130.8319404596
  0
ARC
  5
78
330
1F
100
AcDbEntity
  8
0
  6
Continuous
 62
     7
100
AcDbCircle
 10
0.0
 20
0.0
 30
0.0
 40
17.09999999999999
100
AcDbArc
 50
139.1680595404
 51
142.0819404596
  0
ARC
  5
79
330
1F
100
AcDbEntity
  8
0
  6
Continuous
 62
     7
100
AcDbCircle
 10
0.0
 20
0.0
 30
0.0
 40
17.09999999999999
100
AcDbArc
 50
150.4180595404
 51
153.3319404596
  0
ARC
  5
7A
330
1F
100
AcDbEntity
  8
0
  6
Continuous
 62
     7
100
AcDbCircle
 10
0.0
 20
0.0
 30
0.0
 40
17.10000000000002
100
AcDbArc
 50
161.6680595404
 51
164.5819404596
  0
ARC
  5
7B
330
1F
100
AcDbEntity
  8
0
  6
Continuous
 62
     7
100
AcDbCircle
 10
0.0
 20
0.0
 30
0.0
 40
17.09999999999997
100
AcDbArc
 50
172.9180595404
 51
175.8319404596
  0
ARC
  5
7C
330
1F
100
AcDbEntity
  8
0
  6
Continuous
 62
     7
100
AcDbCircle
 10
0.0
 20
0.0
 30
0.0
 40
17.10000000000003
100
AcDbArc
 50
184.1680595404
 51
187.0819404597
  0
ARC
  5
7D
330
1F
100
AcDbEntity
  8
0
  6
Continuous
 62
     7
100
AcDbCircle
 10
0.0
 20
0.0
 30
0.0
 40
17.09999999999999
100
AcDbArc
 50
195.4180595404
 51
198.3319404597
  0
ARC
  5
7E
330
1F
100
AcDbEntity
  8
0
  6
Continuous
 62
     7
100
AcDbCircle
 10
0.0
 20
0.0
 30
0.0
 40
17.09999999999999
100
AcDbArc
 50
206.6680595404
 51
209.5819404597
  0
ARC
  5
7F
330
1F
100
AcDbEntity
  8
0
  6
Continuous
 62
     7
100
AcDbCircle
 10
0.0
 20
0.0
 30
0.0
 40
17.10000000000004
100
AcDbArc
 50
217.9180595404
 51
220.8319404597
  0
ARC
  5
80
330
1F
100
AcDbEntity
  8
0
  6
Continuous
 62
     7
100
AcDbCircle
 10
0.0
 20
0.0
 30
0.0
 40
17.09999999999999
100
AcDbArc
 50
229.1680595404
 51
232.0819404596
  0
ARC
  5
81
330
1F
100
AcDbEntity
  8
0
  6
Continuous
 62
     7
100
AcDbCircle
 10
0.0
 20
0.0
 30
0.0
 40
17.09999999999999
100
AcDbArc
 50
240.4180595404
 51
243.3319404597
  0
ARC
  5
82
330
1F
100
AcDbEntity
  8
0
  6
Continuous
 62
     7
100
AcDbCircle
 10
0.0
 20
0.0
 30
0.0
 40
17.10000000000001
100
AcDbArc
 50
251.6680595404
 51
254.5819404597
  0
ARC
  5
83
330
1F
100
AcDbEntity
  8
0
  6
Continuous
 62
     7
100
AcDbCircle
 10
0.0
 20
0.0
 30
0.0
 40
11.24999999999997
100
AcDbArc
 50
251.0056793991
 51
252.9943206009
  0
ARC
  5
84
330
1F
100
AcDbEntity
  8
0
  6
Continuous
 62
     7
100
AcDbCircle
 10
0.0
 20
0.0
 30
0.0
 40
9.551265184098002
100
AcDbArc
 50
257.2376373019
 51
264.7623626981
  0
ARC
  5
85
330
1F
100
AcDbEntity
  8
0
  6
Continuous
 62
     7
100
AcDbCircle
 10
0.0
 20
0.0
 30
0.0
 40
11.24999999999997
100
AcDbArc
 50
269.0056793991
 51
270.9943206009
  0
ARC
  5
86
330
1F
100
AcDbEntity
  8
0
  6
Continuous
 62
     7
100
AcDbCircle
 10
0.0
 20
0.0
 30
0.0
 40
9.551265184098
100
AcDbArc
 50
275.2376373019
 51
282.7623626981
  0
ARC
  5
87
330
1F
100
AcDbEntity
  8
0
  6
Continuous
 62
     7
100
AcDbCircle
 10
0.0
 20
0.0
 30
0.0
 40
11.24999999999996
100
AcDbArc
 50
287.0056793991
 51
288.9943206009
  0
ARC
  5
88
330
1F
100
AcDbEntity
  8
0
  6
Continuous
 62
     7
100
AcDbCircle
 10
0.0
 20
0.0
 30
0.0
 40
9.551265184097996
100
AcDbArc
 50
293.2376373019
 51
300.7623626981
  0
ARC
  5
89
330
1F
100
AcDbEntity
  8
0
  6
Continuous
 62
     7
100
AcDbCircle
 10
0.0
 20
0.0
 30
0.0
 40
11.25
100
AcDbArc
 50
305.0056793991
 51
306.9943206009
  0
ARC
  5
8A
330
1F
100
AcDbEntity
  8
0
  6
Continuous
 62
     7
100
AcDbCircle
 10
0.0
 20
0.0
 30
0.0
 40
9.551265184097998
100
AcDbArc
 50
311.2376373019
 51
318.7623626981
  0
ARC
  5
8B
330
1F
100
AcDbEntity
  8
0
  6
Continuous
 62
     7
100
AcDbCircle
 10
0.0
 20
0.0
 30
0.0
 40
11.25
100
AcDbArc
 50
323.0056793991
 51
324.9943206009
  0
ARC
  5
8C
330
1F
100
AcDbEntity
  8
0
  6
Continuous
 62
     7
100
AcDbCircle
 10
0.0
 20
0.0
 30
0.0
 40
9.551265184098002
100
AcDbArc
 50
329.2376373019
 51
336.7623626981
  0
ARC
  5
8D
330
1F
100
AcDbEntity
  8
0
  6
Continuous
 62
     7
100
AcDbCircle
 10
0.0
 20
0.0
 30
0.0
 40
11.24999999999996
100
AcDbArc
 50
341.0056793991
 51
342.9943206009
  0
ARC
  5
8E
330
1F
100
AcDbEntity
  8
0
  6
Continuous
 62
     7
100
AcDbCircle
 10
0.0
 20
0.0
 30
0.0
 40
9.551265184098005
100
AcDbArc
 50
347.2376373019
 51
354.7623626981
  0
ARC
  5
8F
330
1F
100
AcDbEntity
  8
0
  6
Continuous
 62
     7
100
AcDbCircle
 10
0.0
 20
0.0
 30
0.0
 40
11.24999999999997
100
AcDbArc
 50
359.0056793991
 51
0.9943206009
  0
ARC
  5
90
330
1F
100
AcDbEntity
  8
0
  6
Continuous
 62
     7
100
AcDbCircle
 10
0.0
 20
0.0
 30
0.0
 40
9.551265184098005
100
AcDbArc
 50
5.2376373019
 51
12.7623626981
  0
ARC
  5
91
330
1F
100
AcDbEntity
  8
0
  6
Continuous
 62
     7
100
AcDbCircle
 10
0.0
 20
0.0
 30
0.0
 40
11.24999999999997
100
AcDbArc
 50
17.0056793991
 51
18.9943206009
  0
ARC
  5
92
330
1F
100
AcDbEntity
  8
0
  6
Continuous
 62
     7
100
AcDbCircle
 10
0.0
 20
0.0
 30
0.0
 40
9.551265184098
100
AcDbArc
 50
23.2376373019
 51
30.7623626981
  0
ARC
  5
93
330
1F
100
AcDbEntity
  8
0
  6
Continuous
 62
     7
100
AcDbCircle
 10
0.0
 20
0.0
 30
0.0
 40
11.25
100
AcDbArc
 50
35.0056793991
 51
36.9943206009
  0
ARC
  5
94
330
1F
100
AcDbEntity
  8
0
  6
Continuous
 62
     7
100
AcDbCircle
 10
0.0
 20
0.0
 30
0.0
 40
9.551265184097996
100
AcDbArc
 50
41.2376373019
 51
48.7623626981
  0
ARC
  5
95
330
1F
100
AcDbEntity
  8
0
  6
Continuous
 62
     7
100
AcDbCircle
 10
0.0
 20
0.0
 30
0.0
 40
11.24999999999999
100
AcDbArc
 50
53.0056793991
 51
54.9943206009
  0
ARC
  5
96
330
1F
100
AcDbEntity
  8
0
  6
Continuous
 62
     7
100
AcDbCircle
 10
0.0
 20
0.0
 30
0.0
 40
9.551265184097998
100
AcDbArc
 50
59.2376373019
 51
66.7623626981
  0
ARC
  5
97
330
1F
100
AcDbEntity
  8
0
  6
Continuous
 62
     7
100
AcDbCircle
 10
0.0
 20
0.0
 30
0.0
 40
11.24999999999997
100
AcDbArc
 50
71.0056793991
 51
72.9966117564
  0
ARC
  5
98
330
1F
100
AcDbEntity
  8
0
  6
Continuous
 62
     7
100
AcDbCircle
 10
0.0
 20
0.0
 30
0.0
 40
9.551265184098256
100
AcDbArc
 50
77.2474371347
 51
84.7623626981
  0
ARC
  5
99
330
1F
100
AcDbEntity
  8
0
  6
Continuous
 62
     7
100
AcDbCircle
 10
0.0
 20
0.0
 30
0.0
 40
11.24999999999998
100
AcDbArc
 50
89.0056793991
 51
90.9943206009
  0
ARC
  5
9A
330
1F
100
AcDbEntity
  8
0
  6
Continuous
 62
     7
100
AcDbCircle
 10
0.0
 20
0.0
 30
0.0
 40
9.551265184098009
100
AcDbArc
 50
95.2376373019
 51
102.7623626981
  0
ARC
  5
9B
330
1F
100
AcDbEntity
  8
0
  6
Continuous
 62
     7
100
AcDbCircle
 10
0.0
 20
0.0
 30
0.0
 40
11.24999999999996
100
AcDbArc
 50
107.0056793991
 51
108.9943206009
  0
ARC
  5
9C
330
1F
100
AcDbEntity
  8
0
  6
Continuous
 62
     7
100
AcDbCircle
 10
0.0
 20
0.0
 30
0.0
 40
9.551265184098002
100
AcDbArc
 50
113.2376373019
 51
120.7623626981
  0
ARC
  5
9D
330
1F
100
AcDbEntity
  8
0
  6
Continuous
 62
     7
100
AcDbCircle
 10
0.0
 20
0.0
 30
0.0
 40
11.25
100
AcDbArc
 50
125.0056793991
 51
126.9943206009
  0
ARC
  5
9E
330
1F
100
AcDbEntity
  8
0
  6
Continuous
 62
     7
100
AcDbCircle
 10
0.0
 20
0.0
 30
0.0
 40
9.551265184097998
100
AcDbArc
 50
131.2376373019
 51
138.7623626981
  0
ARC
  5
9F
330
1F
100
AcDbEntity
  8
0
  6
Continuous
 62
     7
100
AcDbCircle
 10
0.0
 20
0.0
 30
0.0
 40
11.25
100
AcDbArc
 50
143.0056793991
 51
144.9943206009
  0
ARC
  5
A0
330
1F
100
AcDbEntity
  8
0
  6
Continuous
 62
     7
100
AcDbCircle
 10
0.0
 20
0.0
 30
0.0
 40
9.551265184098
100
AcDbArc
 50
149.2376373019
 51
156.7623626981
  0
ARC
  5
A1
330
1F
100
AcDbEntity
  8
0
  6
Continuous
 62
     7
100
AcDbCircle
 10
0.0
 20
0.0
 30
0.0
 40
11.24999999999997
100
AcDbArc
 50
161.0056793991
 51
162.9943206009
  0
ARC
  5
A2
330
1F
100
AcDbEntity
  8
0
  6
Continuous
 62
     7
100
AcDbCircle
 10
0.0
 20
0.0
 30
0.0
 40
9.551265184098009
100
AcDbArc
 50
167.2376373019
 51
174.7623626981
  0
ARC
  5
A3
330
1F
100
AcDbEntity
  8
0
  6
Continuous
 62
     7
100
AcDbCircle
 10
0.0
 20
0.0
 30
0.0
 40
11.24999999999997
100
AcDbArc
 50
179.0056793991
 51
180.9943206009
  0
ARC
  5
A4
330
1F
100
AcDbEntity
  8
0
  6
Continuous
 62
     7
100
AcDbCircle
 10
0.0
 20
0.0
 30
0.0
 40
9.551265184098009
100
AcDbArc
 50
185.2376373019
 51
192.7623626981
  0
ARC
  5
A5
330
1F
100
AcDbEntity
  8
0
  6
Continuous
 62
     7
100
AcDbCircle
 10
0.0
 20
0.0
 30
0.0
 40
11.24999999999996
100
AcDbArc
 50
197.0056793991
 51
198.9943206009
  0
ARC
  5
A6
330
1F
100
AcDbEntity
  8
0
  6
Continuous
 62
     7
100
AcDbCircle
 10
0.0
 20
0.0
 30
0.0
 40
9.551265184098
100
AcDbArc
 50
203.2376373019
 51
210.7623626981
  0
ARC
  5
A7
330
1F
100
AcDbEntity
  8
0
  6
Continuous
 62
     7
100
AcDbCircle
 10
0.0
 20
0.0
 30
0.0
 40
11.25
100
AcDbArc
 50
215.0056793991
 51
216.9943206009
  0
ARC
  5
A8
330
1F
100
AcDbEntity
  8
0
  6
Continuous
 62
     7
100
AcDbCircle
 10
0.0
 20
0.0
 30
0.0
 40
9.551265184098003
100
AcDbArc
 50
221.2376373019
 51
228.7623626981
  0
ARC
  5
A9
330
1F
100
AcDbEntity
  8
0
  6
Continuous
 62
     7
100
AcDbCircle
 10
0.0
 20
0.0
 30
0.0
 40
11.25
100
AcDbArc
 50
233.0056793992
 51
234.9943206009
  0
ARC
  5
AA
330
1F
100
AcDbEntity
  8
0
  6
Continuous
 62
     7
100
AcDbCircle
 10
0.0
 20
0.0
 30
0.0
 40
9.551265184098
100
AcDbArc
 50
239.2376373019
 51
246.7623626981
  0
SPLINE
  5
AB
330
1F
100
AcDbEntity
  8
0
  6
Continuous
 62
     7
100
AcDbSpline
210
0.0
220
0.0
230
1.0
 70
     8
 71
     3
 72
     9
 73
     5
 74
     0
 42
0.00000001
 43
0.00000001
 40
0.0
 40
0.0
 40
0.0
 40
0.0
 40
0.5598773973608566
 40
1.0
 40
1.0
 40
1.0
 40
1.0
 10
-3.290247172117233
 20
-10.75810241417988
 30
0.0
 10
-2.547823178220778
 20
-10.0152327801051
 30
0.0
 10
-2.109949736329385
 20
-9.31529810189271
 30
0.0
 10
-2.245216237850351
 20
-9.557115830450499
 30
0.0
 10
-2.109949736329385
 20
-9.315298101892711
 30
0.0
  0
SPLINE
  5
AC
330
1F
100
AcDbEntity
  8
0
  6
Continuous
 62
     7
100
AcDbSpline
210
0.0
220
0.0
230
1.0
 70
     8
 71
     3
 72
     9
 73
     5
 74
     0
 42
0.00000001
 43
0.00000001
 40
0.0
 40
0.0
 40
0.0
 40
0.0
 40
0.5598904129660277
 40
1.0
 40
1.0
 40
1.0
 40
1.0
 10
-0.8719037286937237
 20
-9.511385286839673
 30
0.0
 10
-0.5853780379671858
 20
-10.52123353822948
 30
0.0
 10
-0.1952245938841087
 20
-11.24830597725463
 30
0.0
 10
-0.3373733253437038
 20
-11.01084344903434
 30
0.0
 10
-0.1952245938841087
 20
-11.24830597725463
 30
0.0
  0
SPLINE
  5
AD
330
1F
100
AcDbEntity
  8
0
  6
Continuous
 62
     7
100
AcDbSpline
210
0.0
220
0.0
230
1.0
 70
     8
 71
     3
 72
     9
 73
     5
 74
     0
 42
0.00000001
 43
0.00000001
 40
0.0
 40
0.0
 40
0.0
 40
0.0
 40
0.5598775544915873
 40
1.0
 40
1.0
 40
1.0
 40
1.0
 10
0.1952245365828276
 20
-11.24830597725463
 30
0.0
 10
0.6717532956588227
 20
-10.31237305846436
 30
0.0
 10
0.8719039753622386
 20
-9.511385286839674
 30
0.0
 10
0.8179837064735562
 20
-9.783167277559134
 30
0.0
 10
0.8719039753622386
 20
-9.511385286839674
 30
0.0
  0
SPLINE
  5
AE
330
1F
100
AcDbEntity
  8
0
  6
Continuous
 62
     7
100
AcDbSpline
210
0.0
220
0.0
230
1.0
 70
     8
 71
     3
 72
     9
 73
     5
 74
     0
 42
0.00000001
 43
0.00000001
 40
0.0
 40
0.0
 40
0.0
 40
0.0
 40
0.5598905844163802
 40
1.0
 40
1.0
 40
1.0
 40
1.0
 10
2.109948545694351
 20
-9.315298101892711
 30
0.0
 10
2.694512367595816
 20
-10.18717947786204
 30
0.0
 10
3.290248082746437
 20
-10.75810241417988
 30
0.0
 10
3.081676711279979
 20
-10.57618846044668
 30
0.0
 10
3.290248082746437
 20
-10.75810241417989
 30
0.0
  0
SPLINE
  5
AF
330
1F
100
AcDbEntity
  8
0
  6
Continuous
 62
     7
100
AcDbSpline
210
0.0
220
0.0
230
1.0
 70
     8
 71
     3
 72
     9
 73
     5
 74
     0
 42
0.00000001
 43
0.00000001
 40
0.0
 40
0.0
 40
0.0
 40
0.0
 40
0.5598775980429095
 40
1.0
 40
1.0
 40
1.0
 40
1.0
 10
3.661585971713066
 20
-10.63744697971957
 30
0.0
 10
3.825573876578917
 20
-9.600066411333184
 30
0.0
 10
3.768409651033195
 20
-8.776431810192722
 30
0.0
 10
3.801113753833292
 20
-9.051574134440395
 30
0.0
 10
3.768409651033195
 20
-8.776431810192724
 30
0.0
  0
SPLINE
  5
B0
330
1F
100
AcDbEntity
  8
0
  6
Continuous
 62
     7
100
AcDbSpline
210
0.0
220
0.0
230
1.0
 70
     8
 71
     3
 72
     9
 73
     5
 74
     0
 42
0.00000001
 43
0.00000001
 40
0.0
 40
0.0
 40
0.0
 40
0.0
 40
0.5598910057465906
 40
0.9999999999999999
 40
0.9999999999999999
 40
0.9999999999999999
 40
0.9999999999999999
 10
4.885263741016388
 20
-8.2073646352342
 30
0.0
 10
5.710645128846941
 20
-8.85593331194836
 30
0.0
 10
6.453648352531375
 20
-9.214820830698208
 30
0.0
 10
6.199070727557223
 20
-9.106262424593025
 30
0.0
 10
6.453648352531376
 20
-9.21482083069821
 30
0.0
  0
SPLINE
  5
B1
330
1F
100
AcDbEntity
  8
0
  6
Continuous
 62
     7
100
AcDbSpline
210
0.0
220
0.0
230
1.0
 70
     8
 71
     3
 72
     9
 73
     5
 74
     0
 42
0.00000001
 43
0.00000001
 40
0.0
 40
0.0
 40
0.0
 40
0.0
 40
0.559877488415214
 40
0.9999999999999999
 40
0.9999999999999999
 40
0.9999999999999999
 40
0.9999999999999999
 10
6.769526749849319
 20
-8.98532055635841
 30
0.0
 10
6.604920632118957
 20
-7.948038376264939
 30
0.0
 10
6.296037134007101
 20
-7.182380038968052
 30
0.0
 10
6.412164256927783
 20
-7.433949812432726
 30
0.0
 10
6.296037134007101
 20
-7.182380038968052
 30
0.0
  0
SPLINE
  5
B2
330
1F
100
AcDbEntity
  8
0
  6
Continuous
 62
     7
100
AcDbSpline
210
0.0
220
0.0
230
1.0
 70
     8
 71
     3
 72
     9
 73
     5
 74
     0
 42
0.00000001
 43
0.00000001
 40
0.0
 40
0.0
 40
0.0
 40
0.0
 40
0.5598908071517819
 40
1.0
 40
1.0
 40
1.0
 40
1.0
 10
7.182378321886063
 20
-6.296037134007046
 30
0.0
 10
8.1677801564823
 20
-6.657806690545611
 30
0.0
 10
8.985320556358458
 20
-6.769528380875799
 30
0.0
 10
8.70965642681374
 20
-6.744952092077828
 30
0.0
 10
8.985320556358458
 20
-6.769528380875799
 30
0.0
  0
SPLINE
  5
B3
330
1F
100
AcDbEntity
  8
0
  6
Continuous
 62
     7
100
AcDbSpline
210
0.0
220
0.0
230
1.0
 70
     8
 71
     3
 72
     9
 73
     5
 74
     0
 42
0.00000001
 43
0.00000001
 40
0.0
 40
0.0
 40
0.0
 40
0.0
 40
0.5598772976048458
 40
1.0
 40
1.0
 40
1.0
 40
1.0
 10
9.214818477630615
 20
-6.453648352531316
 30
0.0
 10
8.737731736999178
 20
-5.518000967688268
 30
0.0
 10
8.20736463523425
 20
-4.885266866944886
 30
0.0
 10
8.395547457353898
 20
-5.088638668827413
 30
0.0
 10
8.20736463523425
 20
-4.885266866944886
 30
0.0
  0
SPLINE
  5
B4
330
1F
100
AcDbEntity
  8
0
  6
Continuous
 62
     7
100
AcDbSpline
210
0.0
220
0.0
230
1.0
 70
     8
 71
     3
 72
     9
 73
     5
 74
     0
 42
0.00000001
 43
0.00000001
 40
0.0
 40
0.0
 40
0.0
 40
0.0
 40
0.5598917177429746
 40
0.9999999999999999
 40
0.9999999999999999
 40
0.9999999999999999
 40
0.9999999999999999
 10
8.776426315307617
 20
-3.76840965103316
 30
0.0
 10
9.825395954130519
 20
-3.807967562605394
 30
0.0
 10
10.6374469797196
 20
-3.661587327055603
 30
0.0
 10
10.36768031937682
 20
-3.723398783447872
 30
0.0
 10
10.6374469797196
 20
-3.661587327055603
 30
0.0
  0
SPLINE
  5
B5
330
1F
100
AcDbEntity
  8
0
  6
Continuous
 62
     7
100
AcDbSpline
210
0.0
220
0.0
230
1.0
 70
     8
 71
     3
 72
     9
 73
     5
 74
     0
 42
0.00000001
 43
0.00000001
 40
0.0
 40
0.0
 40
0.0
 40
0.0
 40
0.5598774697259782
 40
1.0
 40
1.0
 40
1.0
 40
1.0
 10
10.75810194015503
 20
-3.290248082746368
 30
0.0
 10
10.01523278010513
 20
-2.547823178220832
 30
0.0
 10
9.315298101892743
 20
-2.109949736329445
 30
0.0
 10
9.557115868965933
 20
-2.245216199670366
 30
0.0
 10
9.315298101892743
 20
-2.109949736329445
 30
0.0
  0
SPLINE
  5
B6
330
1F
100
AcDbEntity
  8
0
  6
Continuous
 62
     7
100
AcDbSpline
210
0.0
220
0.0
230
1.0
 70
     8
 71
     3
 72
     9
 73
     5
 74
     0
 42
0.00000001
 43
0.00000001
 40
0.0
 40
0.0
 40
0.0
 40
0.0
 40
0.5598913093097238
 40
1.0
 40
1.0
 40
1.0
 40
1.0
 10
9.511381387710571
 20
-0.8719039753622047
 30
0.0
 10
10.52123353822947
 20
-0.5853780379672657
 30
0.0
 10
11.24830597725465
 20
-0.1952245938841758
 30
0.0
 10
11.01084345208061
 20
-0.3373733465780424
 30
0.0
 10
11.24830597725465
 20
-0.1952245938841758
 30
0.0
  0
SPLINE
  5
B7
330
1F
100
AcDbEntity
  8
0
  6
Continuous
 62
     7
100
AcDbSpline
210
0.0
220
0.0
230
1.0
 70
     8
 71
     3
 72
     9
 73
     5
 74
     0
 42
0.00000001
 43
0.00000001
 40
0.0
 40
0.0
 40
0.0
 40
0.0
 40
0.5598774360508395
 40
1.0
 40
1.0
 40
1.0
 40
1.0
 10
11.24830543994904
 20
0.1952245938841711
 30
0.0
 10
10.31237305846438
 20
0.6717532956587623
 30
0.0
 10
9.511385286839687
 20
0.8719039753621662
 30
0.0
 10
9.783167283889455
 20
0.8179837198206379
 30
0.0
 10
9.511385286839689
 20
0.8719039753621664
 30
0.0
  0
SPLINE
  5
B8
330
1F
100
AcDbEntity
  8
0
  6
Continuous
 62
     7
100
AcDbSpline
210
0.0
220
0.0
230
1.0
 70
     8
 71
     3
 72
     9
 73
     5
 74
     0
 42
0.00000001
 43
0.00000001
 40
0.0
 40
0.0
 40
0.0
 40
0.0
 40
0.5598906421405496
 40
0.9999999999999999
 40
0.9999999999999999
 40
0.9999999999999999
 40
0.9999999999999999
 10
9.31529700756073
 20
2.109949736329396
 30
0.0
 10
10.18717947786204
 20
2.694512367595713
 30
0.0
 10
10.75810241417988
 20
3.290248082746349
 30
0.0
 10
10.57618851066726
 20
3.081676636044018
 30
0.0
 10
10.75810241417988
 20
3.290248082746349
 30
0.0
  0
SPLINE
  5
B9
330
1F
100
AcDbEntity
  8
0
  6
Continuous
 62
     7
100
AcDbSpline
210
0.0
220
0.0
230
1.0
 70
     8
 71
     3
 72
     9
 73
     5
 74
     0
 42
0.00000001
 43
0.00000001
 40
0.0
 40
0.0
 40
0.0
 40
0.0
 40
0.5598758816020069
 40
0.9999999999999999
 40
0.9999999999999999
 40
0.9999999999999999
 40
0.9999999999999999
 10
10.63743978738785
 20
3.661587327055595
 30
0.0
 10
9.600066411333183
 20
3.825573876578833
 30
0.0
 10
8.776431810192726
 20
3.768409651033099
 30
0.0
 10
9.051574134828254
 20
3.801113794778439
 30
0.0
 10
8.776431810192726
 20
3.768409651033099
 30
0.0
  0
SPLINE
  5
BA
330
1F
100
AcDbEntity
  8
0
  6
Continuous
 62
     7
100
AcDbSpline
210
0.0
220
0.0
230
1.0
 70
     8
 71
     3
 72
     9
 73
     5
 74
     0
 42
0.00000001
 43
0.00000001
 40
0.0
 40
0.0
 40
0.0
 40
0.0
 40
0.5598913302315456
 40
0.9999999999999999
 40
0.9999999999999999
 40
0.9999999999999999
 40
0.9999999999999999
 10
8.207358419895172
 20
4.885266866944816
 30
0.0
 10
8.855933311948363
 20
5.710645128846819
 30
0.0
 10
9.214820830698205
 20
6.453648352531261
 30
0.0
 10
9.106262725555258
 20
6.199070489745967
 30
0.0
 10
9.214820830698205
 20
6.453648352531261
 30
0.0
  0
SPLINE
  5
BB
330
1F
100
AcDbEntity
  8
0
  6
Continuous
 62
     7
100
AcDbSpline
210
0.0
220
0.0
230
1.0
 70
     8
 71
     3
 72
     9
 73
     5
 74
     0
 42
0.00000001
 43
0.00000001
 40
0.0
 40
0.0
 40
0.0
 40
0.0
 40
0.559877012450416
 40
1.0
 40
1.0
 40
1.0
 40
1.0
 10
8.98531824350357
 20
6.769528380875754
 30
0.0
 10
7.948038376264919
 20
6.604920632118836
 30
0.0
 10
7.182380038968044
 20
6.296037134006968
 30
0.0
 10
7.433949826320355
 20
6.412164158780382
 30
0.0
 10
7.182380038968045
 20
6.296037134006969
 30
0.0
  0
SPLINE
  5
BC
330
1F
100
AcDbEntity
  8
0
  6
Continuous
 62
     7
100
AcDbSpline
210
0.0
220
0.0
230
1.0
 70
     8
 71
     3
 72
     9
 73
     5
 74
     0
 42
0.00000001
 43
0.00000001
 40
0.0
 40
0.0
 40
0.0
 40
0.0
 40
0.5598906093177592
 40
1.0
 40
1.0
 40
1.0
 40
1.0
 10
6.296034902334213
 20
7.182380038967928
 30
0.0
 10
6.657806690545627
 20
8.167780156482129
 30
0.0
 10
6.76952838087579
 20
8.985320556358289
 30
0.0
 10
6.744952243193463
 20
8.70965637200814
 30
0.0
 10
6.76952838087579
 20
8.985320556358289
 30
0.0
  0
SPLINE
  5
BD
330
1F
100
AcDbEntity
  8
0
  6
Continuous
 62
     7
100
AcDbSpline
210
0.0
220
0.0
230
1.0
 70
     8
 71
     3
 72
     9
 73
     5
 74
     0
 42
0.00000001
 43
0.00000001
 40
0.0
 40
0.0
 40
0.0
 40
0.0
 40
0.5598775185105572
 40
1.0
 40
1.0
 40
1.0
 40
1.0
 10
6.453648209571838
 20
9.214820830698116
 30
0.0
 10
5.518000967688232
 20
8.737731736998995
 30
0.0
 10
4.885266866944883
 20
8.207364635234047
 30
0.0
 10
5.088638729222935
 20
8.39554734061097
 30
0.0
 10
4.885266866944883
 20
8.207364635234047
 30
0.0
  0
SPLINE
  5
BE
330
1F
100
AcDbEntity
  8
0
  6
Continuous
 62
     7
100
AcDbSpline
210
0.0
220
0.0
230
1.0
 70
     8
 71
     3
 72
     9
 73
     5
 74
     0
 42
0.00000001
 43
0.00000001
 40
0.0
 40
0.0
 40
0.0
 40
0.0
 40
0.5598904374408405
 40
1.0
 40
1.0
 40
1.0
 40
1.0
 10
3.768408671021461
 20
8.776431810192527
 30
0.0
 10
3.807967562605434
 20
9.825395954130293
 30
0.0
 10
3.661587327055614
 20
10.63744697971937
 30
0.0
 10
3.723398889675528
 20
10.36768031946637
 30
0.0
 10
3.661587327055614
 20
10.63744697971937
 30
0.0
  0
SPLINE
  5
BF
330
1F
100
AcDbEntity
  8
0
  6
Continuous
 62
     7
100
AcDbSpline
210
0.0
220
0.0
230
1.0
 70
     8
 71
     3
 72
     9
 73
     5
 74
     0
 42
0.00000001
 43
0.00000001
 40
0.0
 40
0.0
 40
0.0
 40
0.0
 40
0.6504405249094873
 40
1.0
 40
1.0
 40
1.0
 40
1.0
 10
3.289816901087761
 20
10.7582339767056
 30
0.0
 10
2.443483436501254
 20
9.879296935519013
 30
0.0
 10
2.10835642294496
 20
9.315658850064754
 30
0.0
 10
2.213091182081703
 20
9.508856182993386
 30
0.0
 10
2.10835642294496
 20
9.315658850064754
 30
0.0
  0
SPLINE
  5
C0
330
1F
100
AcDbEntity
  8
0
  6
Continuous
 62
     7
100
AcDbSpline
210
0.0
220
0.0
230
1.0
 70
     8
 71
     3
 72
     9
 73
     5
 74
     0
 42
0.00000001
 43
0.00000001
 40
0.0
 40
0.0
 40
0.0
 40
0.0
 40
0.5598904129660085
 40
1.0
 40
1.0
 40
1.0
 40
1.0
 10
0.8719037286937237
 20
9.511385286839678
 30
0.0
 10
0.5853780379673278
 20
10.52123353822946
 30
0.0
 10
0.195224593884245
 20
11.24830597725463
 30
0.0
 10
0.3373733253438498
 20
11.01084344903433
 30
0.0
 10
0.195224593884245
 20
11.24830597725463
 30
0.0
  0
SPLINE
  5
C1
330
1F
100
AcDbEntity
  8
0
  6
Continuous
 62
     7
100
AcDbSpline
210
0.0
220
0.0
230
1.0
 70
     8
 71
     3
 72
     9
 73
     5
 74
     0
 42
0.00000001
 43
0.00000001
 40
0.0
 40
0.0
 40
0.0
 40
0.0
 40
0.5598775544915741
 40
0.9999999999999999
 40
0.9999999999999999
 40
0.9999999999999999
 40
0.9999999999999999
 10
-0.1952245365828276
 20
11.24830597725463
 30
0.0
 10
-0.6717532956586884
 20
10.31237305846437
 30
0.0
 10
-0.8719039753621024
 20
9.511385286839682
 30
0.0
 10
-0.8179837064734146
 20
9.783167277559137
 30
0.0
 10
-0.8719039753621025
 20
9.511385286839683
 30
0.0
  0
SPLINE
  5
C2
330
1F
100
AcDbEntity
  8
0
  6
Continuous
 62
     7
100
AcDbSpline
210
0.0
220
0.0
230
1.0
 70
     8
 71
     3
 72
     9
 73
     5
 74
     0
 42
0.00000001
 43
0.00000001
 40
0.0
 40
0.0
 40
0.0
 40
0.0
 40
0.5598905844163586
 40
1.0
 40
1.0
 40
1.0
 40
1.0
 10
-2.109948545694351
 20
9.315298101892719
 30
0.0
 10
-2.694512367595675
 20
10.18717947786204
 30
0.0
 10
-3.290248082746302
 20
10.75810241417988
 30
0.0
 10
-3.081676711279837
 20
10.57618846044668
 30
0.0
 10
-3.290248082746302
 20
10.75810241417988
 30
0.0
  0
SPLINE
  5
C3
330
1F
100
AcDbEntity
  8
0
  6
Continuous
 62
     7
100
AcDbSpline
210
0.0
220
0.0
230
1.0
 70
     8
 71
     3
 72
     9
 73
     5
 74
     0
 42
0.00000001
 43
0.00000001
 40
0.0
 40
0.0
 40
0.0
 40
0.0
 40
0.5598775980429063
 40
1.0
 40
1.0
 40
1.0
 40
1.0
 10
-3.661585971713066
 20
10.63744697971958
 30
0.0
 10
-3.825573876578782
 20
9.600066411333191
 30
0.0
 10
-3.768409651033065
 20
8.776431810192737
 30
0.0
 10
-3.801113753833153
 20
9.051574134440408
 30
0.0
 10
-3.768409651033065
 20
8.776431810192737
 30
0.0
  0
SPLINE
  5
C4
330
1F
100
AcDbEntity
  8
0
  6
Continuous
 62
     7
100
AcDbSpline
210
0.0
220
0.0
230
1.0
 70
     8
 71
     3
 72
     9
 73
     5
 74
     0
 42
0.00000001
 43
0.00000001
 40
0.0
 40
0.0
 40
0.0
 40
0.0
 40
0.5598910057465671
 40
1.0
 40
1.0
 40
1.0
 40
1.0
 10
-4.885263741016388
 20
8.207364635234203
 30
0.0
 10
-5.710645128846815
 20
8.855933311948366
 30
0.0
 10
-6.453648352531248
 20
9.214820830698223
 30
0.0
 10
-6.199070727557094
 20
9.106262424593039
 30
0.0
 10
-6.453648352531248
 20
9.214820830698223
 30
0.0
  0
SPLINE
  5
C5
330
1F
100
AcDbEntity
  8
0
  6
Continuous
 62
     7
100
AcDbSpline
210
0.0
220
0.0
230
1.0
 70
     8
 71
     3
 72
     9
 73
     5
 74
     0
 42
0.00000001
 43
0.00000001
 40
0.0
 40
0.0
 40
0.0
 40
0.0
 40
0.5598774884152208
 40
1.0
 40
1.0
 40
1.0
 40
1.0
 10
-6.769526749849319
 20
8.98532055635843
 30
0.0
 10
-6.604920632118827
 20
7.948038376264953
 30
0.0
 10
-6.296037134006976
 20
7.182380038968066
 30
0.0
 10
-6.412164256927648
 20
7.433949812432741
 30
0.0
 10
-6.296037134006976
 20
7.182380038968066
 30
0.0
  0
SPLINE
  5
C6
330
1F
100
AcDbEntity
  8
0
  6
Continuous
 62
     7
100
AcDbSpline
210
0.0
220
0.0
230
1.0
 70
     8
 71
     3
 72
     9
 73
     5
 74
     0
 42
0.00000001
 43
0.00000001
 40
0.0
 40
0.0
 40
0.0
 40
0.0
 40
0.5598908071517553
 40
1.0
 40
1.0
 40
1.0
 40
1.0
 10
-7.182378321886063
 20
6.296037134007054
 30
0.0
 10
-8.167780156482177
 20
6.657806690545621
 30
0.0
 10
-8.985320556358335
 20
6.769528380875808
 30
0.0
 10
-8.709656426813616
 20
6.744952092077839
 30
0.0
 10
-8.985320556358335
 20
6.769528380875808
 30
0.0
  0
SPLINE
  5
C7
330
1F
100
AcDbEntity
  8
0
  6
Continuous
 62
     7
100
AcDbSpline
210
0.0
220
0.0
230
1.0
 70
     8
 71
     3
 72
     9
 73
     5
 74
     0
 42
0.00000001
 43
0.00000001
 40
0.0
 40
0.0
 40
0.0
 40
0.0
 40
0.559877297604867
 40
1.0
 40
1.0
 40
1.0
 40
1.0
 10
-9.214818477630615
 20
6.45364835253134
 30
0.0
 10
-8.737731736999047
 20
5.518000967688275
 30
0.0
 10
-8.207364635234125
 20
4.885266866944903
 30
0.0
 10
-8.395547457353768
 20
5.08863866882743
 30
0.0
 10
-8.207364635234125
 20
4.885266866944903
 30
0.0
  0
SPLINE
  5
C8
330
1F
100
AcDbEntity
  8
0
  6
Continuous
 62
     7
100
AcDbSpline
210
0.0
220
0.0
230
1.0
 70
     8
 71
     3
 72
     9
 73
     5
 74
     0
 42
0.00000001
 43
0.00000001
 40
0.0
 40
0.0
 40
0.0
 40
0.0
 40
0.5598917177429517
 40
0.9999999999999999
 40
0.9999999999999999
 40
0.9999999999999999
 40
0.9999999999999999
 10
-8.776426315307617
 20
3.768409651033164
 30
0.0
 10
-9.82539595413042
 20
3.807967562605402
 30
0.0
 10
-10.6374469797195
 20
3.661587327055615
 30
0.0
 10
-10.36768031937672
 20
3.723398783447882
 30
0.0
 10
-10.6374469797195
 20
3.661587327055615
 30
0.0
  0
SPLINE
  5
C9
330
1F
100
AcDbEntity
  8
0
  6
Continuous
 62
     7
100
AcDbSpline
210
0.0
220
0.0
230
1.0
 70
     8
 71
     3
 72
     9
 73
     5
 74
     0
 42
0.00000001
 43
0.00000001
 40
0.0
 40
0.0
 40
0.0
 40
0.0
 40
0.5598774697259958
 40
1.0
 40
1.0
 40
1.0
 40
1.0
 10
-10.75810194015503
 20
3.290248082746393
 30
0.0
 10
-10.01523278010503
 20
2.547823178220849
 30
0.0
 10
-9.315298101892648
 20
2.109949736329454
 30
0.0
 10
-9.557115868965834
 20
2.245216199670382
 30
0.0
 10
-9.315298101892648
 20
2.109949736329454
 30
0.0
  0
SPLINE
  5
CA
330
1F
100
AcDbEntity
  8
0
  6
Continuous
 62
     7
100
AcDbSpline
210
0.0
220
0.0
230
1.0
 70
     8
 71
     3
 72
     9
 73
     5
 74
     0
 42
0.00000001
 43
0.00000001
 40
0.0
 40
0.0
 40
0.0
 40
0.0
 40
0.5598913093097104
 40
0.9999999999999999
 40
0.9999999999999999
 40
0.9999999999999999
 40
0.9999999999999999
 10
-9.511381387710571
 20
0.871903975362192
 30
0.0
 10
-10.5212335382294
 20
0.5853780379672627
 30
0.0
 10
-11.24830597725456
 20
0.1952245938841801
 30
0.0
 10
-11.01084345208052
 20
0.3373733465780436
 30
0.0
 10
-11.24830597725456
 20
0.1952245938841801
 30
0.0
  0
SPLINE
  5
CB
330
1F
100
AcDbEntity
  8
0
  6
Continuous
 62
     7
100
AcDbSpline
210
0.0
220
0.0
230
1.0
 70
     8
 71
     3
 72
     9
 73
     5
 74
     0
 42
0.00000001
 43
0.00000001
 40
0.0
 40
0.0
 40
0.0
 40
0.0
 40
0.5598774360508605
 40
1.0
 40
1.0
 40
1.0
 40
1.0
 10
-11.24830543994904
 20
-0.1952245938841524
 30
0.0
 10
-10.31237305846429
 20
-0.6717532956587563
 30
0.0
 10
-9.511385286839614
 20
-0.8719039753621709
 30
0.0
 10
-9.783167283889378
 20
-0.8179837198206359
 30
0.0
 10
-9.511385286839614
 20
-0.8719039753621709
 30
0.0
  0
SPLINE
  5
CC
330
1F
100
AcDbEntity
  8
0
  6
Continuous
 62
     7
100
AcDbSpline
210
0.0
220
0.0
230
1.0
 70
     8
 71
     3
 72
     9
 73
     5
 74
     0
 42
0.00000001
 43
0.00000001
 40
0.0
 40
0.0
 40
0.0
 40
0.0
 40
0.559890642140536
 40
1.0
 40
1.0
 40
1.0
 40
1.0
 10
-9.31529700756073
 20
-2.109949736329442
 30
0.0
 10
-10.18717947786197
 20
-2.694512367595745
 30
0.0
 10
-10.75810241417981
 20
-3.290248082746368
 30
0.0
 10
-10.57618851066719
 20
-3.081676636044043
 30
0.0
 10
-10.75810241417981
 20
-3.290248082746368
 30
0.0
  0
SPLINE
  5
CD
330
1F
100
AcDbEntity
  8
0
  6
Continuous
 62
     7
100
AcDbSpline
210
0.0
220
0.0
230
1.0
 70
     8
 71
     3
 72
     9
 73
     5
 74
     0
 42
0.00000001
 43
0.00000001
 40
0.0
 40
0.0
 40
0.0
 40
0.0
 40
0.5598758816020214
 40
0.9999999999999999
 40
0.9999999999999999
 40
0.9999999999999999
 40
0.9999999999999999
 10
-10.63743978738785
 20
-3.661587327055583
 30
0.0
 10
-9.600066411333124
 20
-3.825573876578849
 30
0.0
 10
-8.776431810192669
 20
-3.768409651033132
 30
0.0
 10
-9.051574134828197
 20
-3.801113794778466
 30
0.0
 10
-8.776431810192669
 20
-3.768409651033132
 30
0.0
  0
SPLINE
  5
CE
330
1F
100
AcDbEntity
  8
0
  6
Continuous
 62
     7
100
AcDbSpline
210
0.0
220
0.0
230
1.0
 70
     8
 71
     3
 72
     9
 73
     5
 74
     0
 42
0.00000001
 43
0.00000001
 40
0.0
 40
0.0
 40
0.0
 40
0.0
 40
0.5598913302315335
 40
1.0
 40
1.0
 40
1.0
 40
1.0
 10
-8.207358419895172
 20
-4.885266866944882
 30
0.0
 10
-8.8559333119483
 20
-5.710645128846871
 30
0.0
 10
-9.214820830698152
 20
-6.453648352531312
 30
0.0
 10
-9.106262725555199
 20
-6.19907048974602
 30
0.0
 10
-9.214820830698152
 20
-6.453648352531312
 30
0.0
  0
SPLINE
  5
CF
330
1F
100
AcDbEntity
  8
0
  6
Continuous
 62
     7
100
AcDbSpline
210
0.0
220
0.0
230
1.0
 70
     8
 71
     3
 72
     9
 73
     5
 74
     0
 42
0.00000001
 43
0.00000001
 40
0.0
 40
0.0
 40
0.0
 40
0.0
 40
0.5598770124504233
 40
1.0
 40
1.0
 40
1.0
 40
1.0
 10
-8.98531824350357
 20
-6.76952838087578
 30
0.0
 10
-7.948038376264883
 20
-6.604920632118892
 30
0.0
 10
-7.182380038968
 20
-6.296037134007046
 30
0.0
 10
-7.433949826320312
 20
-6.41216415878045
 30
0.0
 10
-7.182380038968
 20
-6.296037134007046
 30
0.0
  0
SPLINE
  5
D0
330
1F
100
AcDbEntity
  8
0
  6
Continuous
 62
     7
100
AcDbSpline
210
0.0
220
0.0
230
1.0
 70
     8
 71
     3
 72
     9
 73
     5
 74
     0
 42
0.00000001
 43
0.00000001
 40
0.0
 40
0.0
 40
0.0
 40
0.0
 40
0.5598906093177538
 40
1.0
 40
1.0
 40
1.0
 40
1.0
 10
-6.296034902334213
 20
-7.182380038968061
 30
0.0
 10
-6.657806690545557
 20
-8.167780156482257
 30
0.0
 10
-6.769528380875741
 20
-8.98532055635841
 30
0.0
 10
-6.744952243193403
 20
-8.709656372008268
 30
0.0
 10
-6.769528380875742
 20
-8.985320556358412
 30
0.0
  0
SPLINE
  5
D1
330
1F
100
AcDbEntity
  8
0
  6
Continuous
 62
     7
100
AcDbSpline
210
0.0
220
0.0
230
1.0
 70
     8
 71
     3
 72
     9
 73
     5
 74
     0
 42
0.00000001
 43
0.00000001
 40
0.0
 40
0.0
 40
0.0
 40
0.0
 40
0.5598775185105626
 40
1.0
 40
1.0
 40
1.0
 40
1.0
 10
-6.453648209571838
 20
-9.214820830698198
 30
0.0
 10
-5.518000967688202
 20
-8.737731736999107
 30
0.0
 10
-4.885266866944839
 20
-8.20736463523419
 30
0.0
 10
-5.088638729222896
 20
-8.3955473406111
 30
0.0
 10
-4.885266866944839
 20
-8.20736463523419
 30
0.0
  0
SPLINE
  5
D2
330
1F
100
AcDbEntity
  8
0
  6
Continuous
 62
     7
100
AcDbSpline
210
0.0
220
0.0
230
1.0
 70
     8
 71
     3
 72
     9
 73
     5
 74
     0
 42
0.00000001
 43
0.00000001
 40
0.0
 40
0.0
 40
0.0
 40
0.0
 40
0.5598904374408423
 40
1.0
 40
1.0
 40
1.0
 40
1.0
 10
-3.768408671021461
 20
-8.776431810192722
 30
0.0
 10
-3.807967562605334
 20
-9.82539595413049
 30
0.0
 10
-3.661587327055545
 20
-10.63744697971957
 30
0.0
 10
-3.723398889675441
 20
-10.36768031946657
 30
0.0
 10
-3.661587327055545
 20
-10.63744697971957
 30
0.0
  0
SPLINE
  5
D3
330
1F
100
AcDbEntity
  8
0
  6
Continuous
 62
     7
100
AcDbSpline
210
0.0
220
0.0
230
1.0
 70
     8
 71
     3
 72
    15
 73
    11
 74
     0
 42
0.00000001
 43
0.00000001
 40
0.0
 40
0.0
 40
0.0
 40
0.0
 40
0.2642014001199701
 40
0.395365310469872
 40
0.4481121332215833
 40
0.4999998221094194
 40
0.55188751099725
 40
0.604634333748964
 40
0.7357982440988455
 40
1.0
 40
1.0
 40
1.0
 40
1.0
 10
-4.546202719211578
 20
-16.48459927433578
 30
0.0
 10
-3.683507951308178
 20
-15.38895826309323
 30
0.0
 10
-3.365538255348694
 20
-14.77398485538118
 30
0.0
 10
-3.170769331802185
 20
-14.57504514099648
 30
0.0
 10
-2.897091281939446
 20
-14.56466141398801
 30
0.0
 10
-2.64821941346604
 20
-14.6789867823268
 30
0.0
 10
-2.544407324166616
 20
-14.9373179528313
 30
0.0
 10
-2.485981764587307
 20
-15.62716103189293
 30
0.0
 10
-2.10823658406259
 20
-16.96954149367685
 30
0.0
 10
-2.274542410394776
 20
-16.52470473740885
 30
0.0
 10
-2.10823658406259
 20
-16.96954149367685
 30
0.0
  0
SPLINE
  5
D4
330
1F
100
AcDbEntity
  8
0
  6
Continuous
 62
     7
100
AcDbSpline
210
0.0
220
0.0
230
1.0
 70
     8
 71
     3
 72
    15
 73
    11
 74
     0
 42
0.00000001
 43
0.00000001
 40
0.0
 40
0.0
 40
0.0
 40
0.0
 40
0.2642016557774516
 40
0.395365520553674
 40
0.4481123249782077
 40
0.4999999958373651
 40
0.5518876666965291
 40
0.604634471121046
 40
0.7357983358972754
 40
0.9999999999999999
 40
0.9999999999999999
 40
0.9999999999999999
 40
0.9999999999999999
 10
-1.242865808308125
 20
-17.0547730662611
 30
0.0
 10
-0.6104935558517167
 20
-15.81188049755115
 30
0.0
 10
-0.4186089185822879
 20
-15.14669082105176
 30
0.0
 10
-0.2663936382289808
 20
-14.91357614548214
 30
0.0
 10
0.000000000000027
 20
-14.84999999999999
 30
0.0
 10
0.2663936382290565
 20
-14.9135761454822
 30
0.0
 10
0.4186089185823322
 20
-15.14669082105173
 30
0.0
 10
0.6104935558517953
 20
-15.81188049755115
 30
0.0
 10
1.242865905211307
 20
-17.05477306626108
 30
0.0
 10
0.992972252710489
 20
-16.65092838076329
 30
0.0
 10
1.242865905211307
 20
-17.05477306626108
 30
0.0
  0
SPLINE
  5
D5
330
1F
100
AcDbEntity
  8
0
  6
Continuous
 62
     7
100
AcDbSpline
210
0.0
220
0.0
230
1.0
 70
     8
 71
     3
 72
    15
 73
    11
 74
     0
 42
0.00000001
 43
0.00000001
 40
0.0
 40
0.0
 40
0.0
 40
0.0
 40
0.2642017250364649
 40
0.3953655774665468
 40
0.4481123769261345
 40
0.5000000429012266
 40
0.5518877088763229
 40
0.604634508335887
 40
0.7357983607659825
 40
1.0
 40
1.0
 40
1.0
 40
1.0
 10
2.108234912157059
 20
-16.96954149367687
 30
0.0
 10
2.485981764587392
 20
-15.62716103189301
 30
0.0
 10
2.544407324166685
 20
-14.93731795283131
 30
0.0
 10
2.6482194134661
 20
-14.67898678232681
 30
0.0
 10
2.897091281939535
 20
-14.56466141398801
 30
0.0
 10
3.170769331802298
 20
-14.57504514099656
 30
0.0
 10
3.365538255348754
 20
-14.77398485538114
 30
0.0
 10
3.683507951308258
 20
-15.38895826309322
 30
0.0
 10
4.546205754755129
 20
-16.48459927433578
 30
0.0
 10
4.222327549009862
 20
-16.13726618437608
 30
0.0
 10
4.546205754755129
 20
-16.48459927433578
 30
0.0
  0
SPLINE
  5
D6
330
1F
100
AcDbEntity
  8
0
  6
Continuous
 62
     7
100
AcDbSpline
210
0.0
220
0.0
230
1.0
 70
     8
 71
     3
 72
    15
 73
    11
 74
     0
 42
0.00000001
 43
0.00000001
 40
0.0
 40
0.0
 40
0.0
 40
0.0
 40
0.2642017013756047
 40
0.39536555802349
 40
0.4481123591792455
 40
0.5000000268228755
 40
0.551887694466528
 40
0.6046344956222363
 40
0.7357983522701207
 40
1.0
 40
1.0
 40
1.0
 40
1.0
 10
5.378317087888718
 20
-16.23217995811913
 30
0.0
 10
5.486922199968101
 20
-14.84189853159208
 30
0.0
 10
5.409643420368065
 20
-14.15391233262801
 30
0.0
 10
5.461062878240301
 20
-13.88029218919725
 30
0.0
 10
5.682848970621665
 20
-13.71961105779263
 30
0.0
 10
5.953294138142462
 20
-13.67640332552193
 30
0.0
 10
6.183131844377784
 20
-13.83352293706451
 30
0.0
 10
6.61496720193103
 20
-14.37464699281176
 30
0.0
 10
7.674837466685307
 20
-15.28093157696756
 30
0.0
 10
7.289421165522056
 20
-15.00345789839411
 30
0.0
 10
7.674837466685307
 20
-15.28093157696756
 30
0.0
  0
SPLINE
  5
D7
330
1F
100
AcDbEntity
  8
0
  6
Continuous
 62
     7
100
AcDbSpline
210
0.0
220
0.0
230
1.0
 70
     8
 71
     3
 72
    15
 73
    11
 74
     0
 42
0.00000001
 43
0.00000001
 40
0.0
 40
0.0
 40
0.0
 40
0.0
 40
0.2642016193955106
 40
0.39536549065721
 40
0.4481122976898326
 40
0.4999999711145894
 40
0.5518876445393757
 40
0.60463445157199
 40
0.735798322833699
 40
1.0
 40
1.0
 40
1.0
 40
1.0
 10
8.441716432571411
 20
-14.8710248498823
 30
0.0
 10
8.27700329230546
 20
-13.48627019415457
 30
0.0
 10
8.066989953687711
 20
-12.82657979908727
 30
0.0
 10
8.064040759203122
 20
-12.54818575139437
 30
0.0
 10
8.25021796034119
 20
-12.34732374269286
 30
0.0
 10
8.507037189399414
 20
-12.25218500006277
 30
0.0
 10
8.763111144167752
 20
-12.36144649020557
 30
0.0
 10
9.29221697270002
 20
-12.80792609999158
 30
0.0
 10
10.50852947886921
 20
-13.49002624874167
 30
0.0
 10
10.07638641453716
 20
-13.29307513940364
 30
0.0
 10
10.50852947886921
 20
-13.49002624874167
 30
0.0
  0
SPLINE
  5
D8
330
1F
100
AcDbEntity
  8
0
  6
Continuous
 62
     7
100
AcDbSpline
210
0.0
220
0.0
230
1.0
 70
     8
 71
     3
 72
    15
 73
    11
 74
     0
 42
0.00000001
 43
0.00000001
 40
0.0
 40
0.0
 40
0.0
 40
0.0
 40
0.2642016422729096
 40
0.3953655094564744
 40
0.44811231484909
 40
0.4999999866605683
 40
0.551887658472053
 40
0.6046344638646667
 40
0.7357983310482328
 40
1.0
 40
1.0
 40
1.0
 40
1.0
 10
11.18070632219315
 20
-12.93838459643135
 30
0.0
 10
10.74900378991627
 20
-11.61237205634322
 30
0.0
 10
10.41432658710694
 20
-11.00632899709642
 30
0.0
 10
10.35712207615564
 20
-10.73385957226906
 30
0.0
 10
10.50053570062022
 20
-10.50053570062028
 30
0.0
 10
10.73385957226905
 20
-10.35712207615571
 30
0.0
 10
11.00632899709641
 20
-10.41432658710699
 30
0.0
 10
11.61237205634324
 20
-10.74900378991629
 30
0.0
 10
12.93838459643137
 20
-11.18070677707043
 30
0.0
 10
12.47612178452146
 20
-11.07184695766412
 30
0.0
 10
12.93838459643137
 20
-11.18070677707043
 30
0.0
  0
SPLINE
  5
D9
330
1F
100
AcDbEntity
  8
0
  6
Continuous
 62
     7
100
AcDbSpline
210
0.0
220
0.0
230
1.0
 70
     8
 71
     3
 72
    15
 73
    11
 74
     0
 42
0.00000001
 43
0.00000001
 40
0.0
 40
0.0
 40
0.0
 40
0.0
 40
0.2642013196136628
 40
0.3953652443146573
 40
0.4481120728376022
 40
0.4999997674026506
 40
0.5518874619676927
 40
0.6046342904906203
 40
0.7357982151916151
 40
1.0
 40
1.0
 40
1.0
 40
1.0
 10
13.49002122879028
 20
-10.50852947886917
 30
0.0
 10
12.8079260999916
 20
-9.292216972699922
 30
0.0
 10
12.36144649020564
 20
-8.763111144167647
 30
0.0
 10
12.25218500006275
 20
-8.507037189399218
 30
0.0
 10
12.34732374269286
 20
-8.250217960341086
 30
0.0
 10
12.54818575139442
 20
-8.064040759203003
 30
0.0
 10
12.82657979908731
 20
-8.066989953687585
 30
0.0
 10
13.48627019415462
 20
-8.277003292305361
 30
0.0
 10
14.87102484988235
 20
-8.44171901416904
 30
0.0
 10
14.39640679113824
 20
-8.425133906454093
 30
0.0
 10
14.87102484988235
 20
-8.44171901416904
 30
0.0
  0
SPLINE
  5
DA
330
1F
100
AcDbEntity
  8
0
  6
Continuous
 62
     7
100
AcDbSpline
210
0.0
220
0.0
230
1.0
 70
     8
 71
     3
 72
    15
 73
    11
 74
     0
 42
0.00000001
 43
0.00000001
 40
0.0
 40
0.0
 40
0.0
 40
0.0
 40
0.2642010422677982
 40
0.3953650164086569
 40
0.4481118648135053
 40
0.4999995789366832
 40
0.551887293059862
 40
0.6046341414647413
 40
0.7357981156055855
 40
1.0
 40
1.0
 40
1.0
 40
1.0
 10
15.28092473745346
 20
-7.674837466685262
 30
0.0
 10
14.37464699281193
 20
-6.614967201930986
 30
0.0
 10
13.83352293706463
 20
-6.183131844377712
 30
0.0
 10
13.67640332552202
 20
-5.953294138142335
 30
0.0
 10
13.71961105779272
 20
-5.682848970621622
 30
0.0
 10
13.88029218919737
 20
-5.461062878240234
 30
0.0
 10
14.1539123326281
 20
-5.409643420367993
 30
0.0
 10
14.84189853159215
 20
-5.486922199968037
 30
0.0
 10
16.23217995811921
 20
-5.378320723723718
 30
0.0
 10
15.76344595830192
 20
-5.454647684101314
 30
0.0
 10
16.23217995811921
 20
-5.378320723723718
 30
0.0
  0
SPLINE
  5
DB
330
1F
100
AcDbEntity
  8
0
  6
Continuous
 62
     7
100
AcDbSpline
210
0.0
220
0.0
230
1.0
 70
     8
 71
     3
 72
    15
 73
    11
 74
     0
 42
0.00000001
 43
0.00000001
 40
0.0
 40
0.0
 40
0.0
 40
0.0
 40
0.2642004692029234
 40
0.3953645454986724
 40
0.4481114349845613
 40
0.4999991895196216
 40
0.5518869440546708
 40
0.6046338335405643
 40
0.7357979098362998
 40
1.0
 40
1.0
 40
1.0
 40
1.0
 10
16.4845883846283
 20
-4.546205754755086
 30
0.0
 10
15.38895826309327
 20
-3.683507951308278
 30
0.0
 10
14.7739848553812
 20
-3.365538255348808
 30
0.0
 10
14.57504514099652
 20
-3.1707693318023
 30
0.0
 10
14.56466141398806
 20
-2.89709128193955
 30
0.0
 10
14.67898678232683
 20
-2.648219413466163
 30
0.0
 10
14.93731795283133
 20
-2.544407324166734
 30
0.0
 10
15.62716103189301
 20
-2.485981764587406
 30
0.0
 10
16.96954149367687
 20
-2.108236584062626
 30
0.0
 10
16.52470473753636
 20
-2.274542410224863
 30
0.0
 10
16.96954149367687
 20
-2.108236584062626
 30
0.0
  0
SPLINE
  5
DC
330
1F
100
AcDbEntity
  8
0
  6
Continuous
 62
     7
100
AcDbSpline
210
0.0
220
0.0
230
1.0
 70
     8
 71
     3
 72
    15
 73
    11
 74
     0
 42
0.00000001
 43
0.00000001
 40
0.0
 40
0.0
 40
0.0
 40
0.0
 40
0.2642008357062483
 40
0.3953648466688694
 40
0.4481117098814306
 40
0.4999994385710873
 40
0.5518871672607477
 40
0.6046340304732961
 40
0.7357980414359204
 40
1.0
 40
1.0
 40
1.0
 40
1.0
 10
17.05476641654968
 20
-1.242865905211305
 30
0.0
 10
15.81188049755123
 20
-0.6104935558517924
 30
0.0
 10
15.14669082105183
 20
-0.4186089185823575
 30
0.0
 10
14.91357614548222
 20
-0.2663936382290611
 30
0.0
 10
14.85000000000006
 20
-0.0000000000000479
 30
0.0
 10
14.91357614548226
 20
0.2663936382289768
 30
0.0
 10
15.14669082105179
 20
0.4186089185822633
 30
0.0
 10
15.81188049755121
 20
0.6104935558517242
 30
0.0
 10
17.05477306626115
 20
1.242865905211238
 30
0.0
 10
16.65092838079796
 20
0.9929722527881428
 30
0.0
 10
17.05477306626115
 20
1.242865905211238
 30
0.0
  0
SPLINE
  5
DD
330
1F
100
AcDbEntity
  8
0
  6
Continuous
 62
     7
100
AcDbSpline
210
0.0
220
0.0
230
1.0
 70
     8
 71
     3
 72
    15
 73
    11
 74
     0
 42
0.00000001
 43
0.00000001
 40
0.0
 40
0.0
 40
0.0
 40
0.0
 40
0.2642003576804418
 40
0.39536445385625
 40
0.448111351336797
 40
0.4999991137362985
 40
0.5518868761358001
 40
0.6046337736163291
 40
0.7357978697921489
 40
1.0
 40
1.0
 40
1.0
 40
1.0
 10
16.96953177452087
 20
2.108236584062605
 30
0.0
 10
15.62716103189307
 20
2.485981764587328
 30
0.0
 10
14.93731795283137
 20
2.54440732416662
 30
0.0
 10
14.67898678232688
 20
2.648219413466034
 30
0.0
 10
14.56466141398808
 20
2.89709128193948
 30
0.0
 10
14.57504514099663
 20
3.170769331802232
 30
0.0
 10
14.77398485538123
 20
3.365538255348697
 30
0.0
 10
15.3889582630933
 20
3.683507951308197
 30
0.0
 10
16.48459927433586
 20
4.546205754755041
 30
0.0
 10
16.13726618438418
 20
4.222327549065468
 30
0.0
 10
16.48459927433586
 20
4.546205754755041
 30
0.0
  0
SPLINE
  5
DE
330
1F
100
AcDbEntity
  8
0
  6
Continuous
 62
     7
100
AcDbSpline
210
0.0
220
0.0
230
1.0
 70
     8
 71
     3
 72
    15
 73
    11
 74
     0
 42
0.00000001
 43
0.00000001
 40
0.0
 40
0.0
 40
0.0
 40
0.0
 40
0.2642013362813319
 40
0.3953652580111459
 40
0.448112085339229
 40
0.4999997787288951
 40
0.5518874721185849
 40
0.6046342994466204
 40
0.7357982211764346
 40
0.9999999999999999
 40
0.9999999999999999
 40
0.9999999999999999
 40
0.9999999999999999
 10
16.23217761516571
 20
5.378320723723663
 30
0.0
 10
14.84189853159215
 20
5.486922199968035
 30
0.0
 10
14.15391233262808
 20
5.409643420367997
 30
0.0
 10
13.88029218919732
 20
5.461062878240231
 30
0.0
 10
13.7196110577927
 20
5.682848970621587
 30
0.0
 10
13.67640332552199
 20
5.953294138142383
 30
0.0
 10
13.83352293706456
 20
6.183131844377701
 30
0.0
 10
14.37464699281182
 20
6.614967201930952
 30
0.0
 10
15.28093157696763
 20
7.674837466685241
 30
0.0
 10
15.00345789838739
 20
7.289421165460297
 30
0.0
 10
15.28093157696763
 20
7.674837466685241
 30
0.0
  0
SPLINE
  5
DF
330
1F
100
AcDbEntity
  8
0
  6
Continuous
 62
     7
100
AcDbSpline
210
0.0
220
0.0
230
1.0
 70
     8
 71
     3
 72
    15
 73
    11
 74
     0
 42
0.00000001
 43
0.00000001
 40
0.0
 40
0.0
 40
0.0
 40
0.0
 40
0.2642014882400537
 40
0.3953653828816099
 40
0.4481121993163066
 40
0.4999998819899985
 40
0.5518875646637168
 40
0.6046343810984106
 40
0.7357982757399666
 40
0.9999999999999999
 40
0.9999999999999999
 40
0.9999999999999999
 40
0.9999999999999999
 10
14.8710235953331
 20
8.44171901416902
 30
0.0
 10
13.48627019415465
 20
8.277003292305393
 30
0.0
 10
12.82657979908733
 20
8.066989953687633
 30
0.0
 10
12.54818575139443
 20
8.06404075920305
 30
0.0
 10
12.34732374269293
 20
8.250217960341123
 30
0.0
 10
12.25218500006284
 20
8.507037189399332
 30
0.0
 10
12.36144649020564
 20
8.763111144167693
 30
0.0
 10
12.80792609999164
 20
9.29221697269994
 30
0.0
 10
13.49002624874174
 20
10.50852947886915
 30
0.0
 10
13.29307513940924
 20
10.07638641448455
 30
0.0
 10
13.49002624874174
 20
10.50852947886915
 30
0.0
  0
SPLINE
  5
E0
330
1F
100
AcDbEntity
  8
0
  6
Continuous
 62
     7
100
AcDbSpline
210
0.0
220
0.0
230
1.0
 70
     8
 71
     3
 72
    15
 73
    11
 74
     0
 42
0.00000001
 43
0.00000001
 40
0.0
 40
0.0
 40
0.0
 40
0.0
 40
0.2642010846228961
 40
0.3953650512134941
 40
0.4481118965820845
 40
0.4999996077184122
 40
0.5518873188547491
 40
0.6046341642233379
 40
0.7357981308139377
 40
0.9999999999999999
 40
0.9999999999999999
 40
0.9999999999999999
 40
0.9999999999999999
 10
12.93838024139404
 20
11.18070677707045
 30
0.0
 10
11.61237205634328
 20
10.7490037899162
 30
0.0
 10
11.00632899709649
 20
10.41432658710687
 30
0.0
 10
10.73385957226912
 20
10.35712207615558
 30
0.0
 10
10.50053570062035
 20
10.50053570062016
 30
0.0
 10
10.35712207615578
 20
10.73385957226899
 30
0.0
 10
10.41432658710706
 20
11.00632899709635
 30
0.0
 10
10.74900378991635
 20
11.61237205634318
 30
0.0
 10
11.1807067770705
 20
12.93838459643131
 30
0.0
 10
11.07184695766838
 20
12.47612178449882
 30
0.0
 10
11.1807067770705
 20
12.93838459643131
 30
0.0
  0
SPLINE
  5
E1
330
1F
100
AcDbEntity
  8
0
  6
Continuous
 62
     7
100
AcDbSpline
210
0.0
220
0.0
230
1.0
 70
     8
 71
     3
 72
    15
 73
    11
 74
     0
 42
0.00000001
 43
0.00000001
 40
0.0
 40
0.0
 40
0.0
 40
0.0
 40
0.2642008001389702
 40
0.3953648174418425
 40
0.4481116832041078
 40
0.4999994144019278
 40
0.5518871455997387
 40
0.6046340113619858
 40
0.7357980286648579
 40
1.0
 40
1.0
 40
1.0
 40
1.0
 10
10.50852239131927
 20
13.49002624874159
 30
0.0
 10
9.292216972699991
 20
12.80792609999153
 30
0.0
 10
8.76311114416772
 20
12.36144649020557
 30
0.0
 10
8.50703718939929
 20
12.25218500006268
 30
0.0
 10
8.250217960341152
 20
12.3473237426928
 30
0.0
 10
8.064040759203078
 20
12.54818575139435
 30
0.0
 10
8.066989953687653
 20
12.82657979908723
 30
0.0
 10
8.277003292305425
 20
13.48627019415454
 30
0.0
 10
8.44171901416911
 20
14.87102484988229
 30
0.0
 10
8.425133906524742
 20
14.3964067910066
 30
0.0
 10
8.44171901416911
 20
14.87102484988229
 30
0.0
  0
SPLINE
  5
E2
330
1F
100
AcDbEntity
  8
0
  6
Continuous
 62
     7
100
AcDbSpline
210
0.0
220
0.0
230
1.0
 70
     8
 71
     3
 72
    15
 73
    11
 74
     0
 42
0.00000001
 43
0.00000001
 40
0.0
 40
0.0
 40
0.0
 40
0.0
 40
0.2642014664922778
 40
0.3953653650106209
 40
0.4481121830043028
 40
0.4999998672116488
 40
0.5518875514189939
 40
0.6046343694127065
 40
0.7357982679310356
 40
1.0
 40
1.0
 40
1.0
 40
1.0
 10
7.674835622310638
 20
15.28093157696754
 30
0.0
 10
6.614967201931052
 20
14.37464699281186
 30
0.0
 10
6.183131844377779
 20
13.83352293706455
 30
0.0
 10
5.9532941381424
 20
13.67640332552195
 30
0.0
 10
5.682848970621682
 20
13.71961105779266
 30
0.0
 10
5.461062878240297
 20
13.8802921891973
 30
0.0
 10
5.409643420368062
 20
14.15391233262803
 30
0.0
 10
5.486922199968105
 20
14.84189853159209
 30
0.0
 10
5.378320723723785
 20
16.23217995811914
 30
0.0
 10
5.454647684196156
 20
15.76344595819453
 30
0.0
 10
5.378320723723785
 20
16.23217995811914
 30
0.0
  0
SPLINE
  5
E3
330
1F
100
AcDbEntity
  8
0
  6
Continuous
 62
     7
100
AcDbSpline
210
0.0
220
0.0
230
1.0
 70
     8
 71
     3
 72
    15
 73
    11
 74
     0
 42
0.00000001
 43
0.00000001
 40
0.0
 40
0.0
 40
0.0
 40
0.0
 40
0.2642014001199611
 40
0.3953653104698699
 40
0.4481121332215646
 40
0.4999998221094097
 40
0.5518875109972365
 40
0.6046343337489533
 40
0.7357982440988476
 40
1.0
 40
1.0
 40
1.0
 40
1.0
 10
4.546202719211578
 20
16.4845992743358
 30
0.0
 10
3.683507951308353
 20
15.38895826309321
 30
0.0
 10
3.365538255348875
 20
14.77398485538114
 30
0.0
 10
3.170769331802403
 20
14.57504514099653
 30
0.0
 10
2.897091281939625
 20
14.56466141398798
 30
0.0
 10
2.648219413466241
 20
14.67898678232675
 30
0.0
 10
2.544407324166809
 20
14.93731795283126
 30
0.0
 10
2.485981764587481
 20
15.62716103189294
 30
0.0
 10
2.108236584062707
 20
16.9695414936768
 30
0.0
 10
2.274542410394913
 20
16.52470473740883
 30
0.0
 10
2.108236584062707
 20
16.9695414936768
 30
0.0
  0
SPLINE
  5
E4
330
1F
100
AcDbEntity
  8
0
  6
Continuous
 62
     7
100
AcDbSpline
210
0.0
220
0.0
230
1.0
 70
     8
 71
     3
 72
    15
 73
    11
 74
     0
 42
0.00000001
 43
0.00000001
 40
0.0
 40
0.0
 40
0.0
 40
0.0
 40
0.2642016557774277
 40
0.3953655205536556
 40
0.4481123249781878
 40
0.4999999958373464
 40
0.5518876666965126
 40
0.6046344711210307
 40
0.7357983358972648
 40
1.0
 40
1.0
 40
1.0
 40
1.0
 10
1.242865808308125
 20
17.05477306626101
 30
0.0
 10
0.6104935558518632
 20
15.81188049755117
 30
0.0
 10
0.4186089185824262
 20
15.14669082105177
 30
0.0
 10
0.266393638229136
 20
14.91357614548216
 30
0.0
 10
0.0000000000001326
 20
14.84999999999999
 30
0.0
 10
-0.2663936382289059
 20
14.91357614548218
 30
0.0
 10
-0.4186089185821905
 20
15.14669082105171
 30
0.0
 10
-0.610493555851655
 20
15.81188049755113
 30
0.0
 10
-1.242865905211169
 20
17.05477306626108
 30
0.0
 10
-0.9929722527103481
 20
16.6509283807633
 30
0.0
 10
-1.242865905211169
 20
17.05477306626108
 30
0.0
  0
SPLINE
  5
E5
330
1F
100
AcDbEntity
  8
0
  6
Continuous
 62
     7
100
AcDbSpline
210
0.0
220
0.0
230
1.0
 70
     8
 71
     3
 72
    15
 73
    11
 74
     0
 42
0.00000001
 43
0.00000001
 40
0.0
 40
0.0
 40
0.0
 40
0.0
 40
0.2642017250364593
 40
0.3953655774665444
 40
0.4481123769261309
 40
0.5000000429012232
 40
0.5518877088763209
 40
0.6046345083358866
 40
0.7357983607659819
 40
0.9999999999999999
 40
0.9999999999999999
 40
0.9999999999999999
 40
0.9999999999999999
 10
-2.108234912157059
 20
16.96954149367687
 30
0.0
 10
-2.485981764587257
 20
15.62716103189301
 30
0.0
 10
-2.544407324166548
 20
14.9373179528313
 30
0.0
 10
-2.648219413465961
 20
14.67898678232681
 30
0.0
 10
-2.897091281939396
 20
14.56466141398801
 30
0.0
 10
-3.170769331802166
 20
14.57504514099656
 30
0.0
 10
-3.365538255348622
 20
14.77398485538115
 30
0.0
 10
-3.683507951308123
 20
15.38895826309322
 30
0.0
 10
-4.546205754754987
 20
16.48459927433578
 30
0.0
 10
-4.222327549009723
 20
16.13726618437607
 30
0.0
 10
-4.546205754754987
 20
16.48459927433578
 30
0.0
  0
SPLINE
  5
E6
330
1F
100
AcDbEntity
  8
0
  6
Continuous
 62
     7
100
AcDbSpline
210
0.0
220
0.0
230
1.0
 70
     8
 71
     3
 72
    15
 73
    11
 74
     0
 42
0.00000001
 43
0.00000001
 40
0.0
 40
0.0
 40
0.0
 40
0.0
 40
0.2642017013756034
 40
0.3953655580234873
 40
0.4481123591792444
 40
0.5000000268228731
 40
0.551887694466525
 40
0.604634495622236
 40
0.73579835227012
 40
1.0
 40
1.0
 40
1.0
 40
1.0
 10
-5.378317087888718
 20
16.23217995811913
 30
0.0
 10
-5.486922199967958
 20
14.84189853159208
 30
0.0
 10
-5.409643420367924
 20
14.15391233262801
 30
0.0
 10
-5.461062878240163
 20
13.88029218919724
 30
0.0
 10
-5.682848970621523
 20
13.71961105779262
 30
0.0
 10
-5.953294138142314
 20
13.67640332552192
 30
0.0
 10
-6.183131844377646
 20
13.83352293706451
 30
0.0
 10
-6.614967201930893
 20
14.37464699281176
 30
0.0
 10
-7.674837466685173
 20
15.28093157696755
 30
0.0
 10
-7.289421165521923
 20
15.00345789839411
 30
0.0
 10
-7.674837466685174
 20
15.28093157696756
 30
0.0
  0
SPLINE
  5
E7
330
1F
100
AcDbEntity
  8
0
  6
Continuous
 62
     7
100
AcDbSpline
210
0.0
220
0.0
230
1.0
 70
     8
 71
     3
 72
    15
 73
    11
 74
     0
 42
0.00000001
 43
0.00000001
 40
0.0
 40
0.0
 40
0.0
 40
0.0
 40
0.2642016193955112
 40
0.3953654906572135
 40
0.4481122976898362
 40
0.4999999711145925
 40
0.551887644539376
 40
0.6046344515719937
 40
0.735798322833697
 40
1.0
 40
1.0
 40
1.0
 40
1.0
 10
-8.441716432571411
 20
14.8710248498823
 30
0.0
 10
-8.277003292305325
 20
13.48627019415458
 30
0.0
 10
-8.066989953687564
 20
12.82657979908726
 30
0.0
 10
-8.064040759202983
 20
12.54818575139436
 30
0.0
 10
-8.25021796034106
 20
12.34732374269286
 30
0.0
 10
-8.50703718939927
 20
12.25218500006277
 30
0.0
 10
-8.763111144167626
 20
12.36144649020557
 30
0.0
 10
-9.29221697269987
 20
12.80792609999157
 30
0.0
 10
-10.50852947886908
 20
13.49002624874167
 30
0.0
 10
-10.07638641453702
 20
13.29307513940364
 30
0.0
 10
-10.50852947886908
 20
13.49002624874167
 30
0.0
  0
SPLINE
  5
E8
330
1F
100
AcDbEntity
  8
0
  6
Continuous
 62
     7
100
AcDbSpline
210
0.0
220
0.0
230
1.0
 70
     8
 71
     3
 72
    15
 73
    11
 74
     0
 42
0.00000001
 43
0.00000001
 40
0.0
 40
0.0
 40
0.0
 40
0.0
 40
0.2642016422729154
 40
0.3953655094564772
 40
0.4481123148490928
 40
0.4999999866605674
 40
0.5518876584720537
 40
0.604634463864666
 40
0.7357983310482316
 40
1.0
 40
1.0
 40
1.0
 40
1.0
 10
-11.18070632219315
 20
12.93838459643135
 30
0.0
 10
-10.74900378991613
 20
11.61237205634322
 30
0.0
 10
-10.4143265871068
 20
11.00632899709643
 30
0.0
 10
-10.35712207615551
 20
10.73385957226906
 30
0.0
 10
-10.50053570062008
 20
10.50053570062029
 30
0.0
 10
-10.73385957226891
 20
10.35712207615572
 30
0.0
 10
-11.00632899709627
 20
10.41432658710699
 30
0.0
 10
-11.6123720563431
 20
10.74900378991628
 30
0.0
 10
-12.93838459643124
 20
11.18070677707043
 30
0.0
 10
-12.47612178452132
 20
11.07184695766412
 30
0.0
 10
-12.93838459643124
 20
11.18070677707043
 30
0.0
  0
SPLINE
  5
E9
330
1F
100
AcDbEntity
  8
0
  6
Continuous
 62
     7
100
AcDbSpline
210
0.0
220
0.0
230
1.0
 70
     8
 71
     3
 72
    15
 73
    11
 74
     0
 42
0.00000001
 43
0.00000001
 40
0.0
 40
0.0
 40
0.0
 40
0.0
 40
0.2642013196136715
 40
0.3953652443146649
 40
0.4481120728376082
 40
0.4999997674026568
 40
0.5518874619676986
 40
0.6046342904906256
 40
0.7357982151916198
 40
1.0
 40
1.0
 40
1.0
 40
1.0
 10
-13.49002122879028
 20
10.50852947886917
 30
0.0
 10
-12.80792609999147
 20
9.292216972699922
 30
0.0
 10
-12.3614464902055
 20
8.763111144167649
 30
0.0
 10
-12.25218500006262
 20
8.507037189399226
 30
0.0
 10
-12.34732374269273
 20
8.250217960341088
 30
0.0
 10
-12.54818575139429
 20
8.064040759203005
 30
0.0
 10
-12.82657979908718
 20
8.066989953687584
 30
0.0
 10
-13.48627019415449
 20
8.277003292305363
 30
0.0
 10
-14.87102484988222
 20
8.441719014169044
 30
0.0
 10
-14.39640679113811
 20
8.425133906454095
 30
0.0
 10
-14.87102484988222
 20
8.441719014169044
 30
0.0
  0
SPLINE
  5
EA
330
1F
100
AcDbEntity
  8
0
  6
Continuous
 62
     7
100
AcDbSpline
210
0.0
220
0.0
230
1.0
 70
     8
 71
     3
 72
    15
 73
    11
 74
     0
 42
0.00000001
 43
0.00000001
 40
0.0
 40
0.0
 40
0.0
 40
0.0
 40
0.2642010422678139
 40
0.3953650164086595
 40
0.4481118648135151
 40
0.4999995789366959
 40
0.5518872930598697
 40
0.6046341414647508
 40
0.7357981156055935
 40
0.9999999999999999
 40
0.9999999999999999
 40
0.9999999999999999
 40
0.9999999999999999
 10
-15.28092473745346
 20
7.674837466685274
 30
0.0
 10
-14.37464699281179
 20
6.614967201930981
 30
0.0
 10
-13.83352293706452
 20
6.183131844377758
 30
0.0
 10
-13.67640332552189
 20
5.953294138142347
 30
0.0
 10
-13.71961105779259
 20
5.682848970621613
 30
0.0
 10
-13.88029218919723
 20
5.461062878240245
 30
0.0
 10
-14.15391233262798
 20
5.409643420368
 30
0.0
 10
-14.84189853159202
 20
5.486922199968046
 30
0.0
 10
-16.23217995811907
 20
5.378320723723729
 30
0.0
 10
-15.76344595830178
 20
5.454647684101325
 30
0.0
 10
-16.23217995811907
 20
5.378320723723729
 30
0.0
  0
SPLINE
  5
EB
330
1F
100
AcDbEntity
  8
0
  6
Continuous
 62
     7
100
AcDbSpline
210
0.0
220
0.0
230
1.0
 70
     8
 71
     3
 72
    15
 73
    11
 74
     0
 42
0.00000001
 43
0.00000001
 40
0.0
 40
0.0
 40
0.0
 40
0.0
 40
0.2642004692029374
 40
0.3953645454986816
 40
0.4481114349845719
 40
0.4999991895196301
 40
0.5518869440546785
 40
0.6046338335405715
 40
0.7357979098363092
 40
1.0
 40
1.0
 40
1.0
 40
1.0
 10
-16.4845883846283
 20
4.546205754755081
 30
0.0
 10
-15.38895826309313
 20
3.683507951308281
 30
0.0
 10
-14.77398485538108
 20
3.36553825534882
 30
0.0
 10
-14.57504514099639
 20
3.170769331802305
 30
0.0
 10
-14.56466141398792
 20
2.89709128193956
 30
0.0
 10
-14.67898678232669
 20
2.648219413466169
 30
0.0
 10
-14.93731795283119
 20
2.544407324166746
 30
0.0
 10
-15.62716103189289
 20
2.48598176458741
 30
0.0
 10
-16.96954149367674
 20
2.108236584062638
 30
0.0
 10
-16.52470473753623
 20
2.274542410224867
 30
0.0
 10
-16.96954149367674
 20
2.108236584062638
 30
0.0
  0
SPLINE
  5
EC
330
1F
100
AcDbEntity
  8
0
  6
Continuous
 62
     7
100
AcDbSpline
210
0.0
220
0.0
230
1.0
 70
     8
 71
     3
 72
    15
 73
    11
 74
     0
 42
0.00000001
 43
0.00000001
 40
0.0
 40
0.0
 40
0.0
 40
0.0
 40
0.2642008357062649
 40
0.3953648466688823
 40
0.4481117098814433
 40
0.4999994385710971
 40
0.5518871672607579
 40
0.604634030473305
 40
0.7357980414359271
 40
1.0
 40
1.0
 40
1.0
 40
1.0
 10
-17.05476641654968
 20
1.242865905211308
 30
0.0
 10
-15.8118804975511
 20
0.6104935558517957
 30
0.0
 10
-15.1466908210517
 20
0.4186089185823595
 30
0.0
 10
-14.91357614548208
 20
0.2663936382290635
 30
0.0
 10
-14.84999999999992
 20
0.0000000000000581
 30
0.0
 10
-14.91357614548212
 20
-0.2663936382289768
 30
0.0
 10
-15.14669082105165
 20
-0.4186089185822599
 30
0.0
 10
-15.81188049755107
 20
-0.6104935558517226
 30
0.0
 10
-17.05477306626101
 20
-1.242865905211239
 30
0.0
 10
-16.65092838079782
 20
-0.9929722527881435
 30
0.0
 10
-17.05477306626101
 20
-1.242865905211239
 30
0.0
  0
SPLINE
  5
ED
330
1F
100
AcDbEntity
  8
0
  6
Continuous
 62
     7
100
AcDbSpline
210
0.0
220
0.0
230
1.0
 70
     8
 71
     3
 72
    15
 73
    11
 74
     0
 42
0.00000001
 43
0.00000001
 40
0.0
 40
0.0
 40
0.0
 40
0.0
 40
0.2642003576804593
 40
0.3953644538562636
 40
0.4481113513368112
 40
0.4999991137363101
 40
0.5518868761358114
 40
0.6046337736163369
 40
0.7357978697921547
 40
1.0
 40
1.0
 40
1.0
 40
1.0
 10
-16.96953177452087
 20
-2.108236584062605
 30
0.0
 10
-15.62716103189294
 20
-2.485981764587326
 30
0.0
 10
-14.93731795283123
 20
-2.544407324166616
 30
0.0
 10
-14.67898678232674
 20
-2.648219413466033
 30
0.0
 10
-14.56466141398794
 20
-2.897091281939475
 30
0.0
 10
-14.57504514099649
 20
-3.170769331802234
 30
0.0
 10
-14.77398485538109
 20
-3.36553825534869
 30
0.0
 10
-15.38895826309316
 20
-3.683507951308198
 30
0.0
 10
-16.48459927433571
 20
-4.546205754755059
 30
0.0
 10
-16.13726618438404
 20
-4.22232754906548
 30
0.0
 10
-16.48459927433571
 20
-4.546205754755059
 30
0.0
  0
SPLINE
  5
EE
330
1F
100
AcDbEntity
  8
0
  6
Continuous
 62
     7
100
AcDbSpline
210
0.0
220
0.0
230
1.0
 70
     8
 71
     3
 72
    15
 73
    11
 74
     0
 42
0.00000001
 43
0.00000001
 40
0.0
 40
0.0
 40
0.0
 40
0.0
 40
0.2642013362813512
 40
0.3953652580111615
 40
0.4481120853392446
 40
0.4999997787289117
 40
0.5518874721186005
 40
0.604634299446635
 40
0.7357982211764461
 40
1.0
 40
1.0
 40
1.0
 40
1.0
 10
-16.23217761516571
 20
-5.378320723723662
 30
0.0
 10
-14.84189853159201
 20
-5.486922199968032
 30
0.0
 10
-14.15391233262794
 20
-5.409643420368003
 30
0.0
 10
-13.88029218919718
 20
-5.461062878240238
 30
0.0
 10
-13.71961105779256
 20
-5.682848970621608
 30
0.0
 10
-13.67640332552185
 20
-5.953294138142406
 30
0.0
 10
-13.83352293706444
 20
-6.183131844377722
 30
0.0
 10
-14.37464699281169
 20
-6.614967201930972
 30
0.0
 10
-15.28093157696749
 20
-7.674837466685236
 30
0.0
 10
-15.00345789838726
 20
-7.289421165460301
 30
0.0
 10
-15.28093157696749
 20
-7.674837466685236
 30
0.0
  0
SPLINE
  5
EF
330
1F
100
AcDbEntity
  8
0
  6
Continuous
 62
     7
100
AcDbSpline
210
0.0
220
0.0
230
1.0
 70
     8
 71
     3
 72
    15
 73
    11
 74
     0
 42
0.00000001
 43
0.00000001
 40
0.0
 40
0.0
 40
0.0
 40
0.0
 40
0.2642014882400742
 40
0.3953653828816257
 40
0.4481121993163247
 40
0.4999998819900125
 40
0.5518875646637286
 40
0.6046343810984212
 40
0.7357982757399768
 40
1.0
 40
1.0
 40
1.0
 40
1.0
 10
-14.8710235953331
 20
-8.44171901416902
 30
0.0
 10
-13.48627019415451
 20
-8.2770032923054
 30
0.0
 10
-12.82657979908719
 20
-8.06698995368764
 30
0.0
 10
-12.54818575139427
 20
-8.064040759203062
 30
0.0
 10
-12.34732374269279
 20
-8.250217960341141
 30
0.0
 10
-12.2521850000627
 20
-8.507037189399343
 30
0.0
 10
-12.3614464902055
 20
-8.763111144167707
 30
0.0
 10
-12.80792609999152
 20
-9.292216972699965
 30
0.0
 10
-13.49002624874161
 20
-10.50852947886915
 30
0.0
 10
-13.29307513940912
 20
-10.07638641448456
 30
0.0
 10
-13.49002624874161
 20
-10.50852947886915
 30
0.0
  0
SPLINE
  5
F0
330
1F
100
AcDbEntity
  8
0
  6
Continuous
 62
     7
100
AcDbSpline
210
0.0
220
0.0
230
1.0
 70
     8
 71
     3
 72
    15
 73
    11
 74
     0
 42
0.00000001
 43
0.00000001
 40
0.0
 40
0.0
 40
0.0
 40
0.0
 40
0.2642010846229068
 40
0.3953650512135037
 40
0.4481118965820978
 40
0.49999960771841
 40
0.5518873188547571
 40
0.6046341642233333
 40
0.7357981308139337
 40
1.0
 40
1.0
 40
1.0
 40
1.0
 10
-12.93838024139404
 20
-11.1807067770705
 30
0.0
 10
-11.61237205634319
 20
-10.74900378991622
 30
0.0
 10
-11.00632899709638
 20
-10.41432658710688
 30
0.0
 10
-10.73385957226899
 20
-10.3571220761556
 30
0.0
 10
-10.50053570062023
 20
-10.50053570062007
 30
0.0
 10
-10.35712207615565
 20
-10.73385957226897
 30
0.0
 10
-10.4143265871069
 20
-11.00632899709627
 30
0.0
 10
-10.74900378991621
 20
-11.61237205634311
 30
0.0
 10
-11.18070677707036
 20
-12.93838459643131
 30
0.0
 10
-11.07184695766826
 20
-12.4761217844988
 30
0.0
 10
-11.18070677707036
 20
-12.93838459643131
 30
0.0
  0
SPLINE
  5
F1
330
1F
100
AcDbEntity
  8
0
  6
Continuous
 62
     7
100
AcDbSpline
210
0.0
220
0.0
230
1.0
 70
     8
 71
     3
 72
    15
 73
    11
 74
     0
 42
0.00000001
 43
0.00000001
 40
0.0
 40
0.0
 40
0.0
 40
0.0
 40
0.2642008001389871
 40
0.3953648174418564
 40
0.4481116832041196
 40
0.4999994144019382
 40
0.5518871455997486
 40
0.6046340113619958
 40
0.7357980286648658
 40
1.0
 40
1.0
 40
1.0
 40
1.0
 10
-10.50852239131927
 20
-13.49002624874159
 30
0.0
 10
-9.292216972699853
 20
-12.80792609999153
 30
0.0
 10
-8.76311114416758
 20
-12.36144649020557
 30
0.0
 10
-8.507037189399155
 20
-12.25218500006268
 30
0.0
 10
-8.250217960341018
 20
-12.3473237426928
 30
0.0
 10
-8.064040759202937
 20
-12.54818575139436
 30
0.0
 10
-8.06698995368752
 20
-12.82657979908724
 30
0.0
 10
-8.277003292305295
 20
-13.48627019415456
 30
0.0
 10
-8.441719014168976
 20
-14.87102484988229
 30
0.0
 10
-8.42513390652461
 20
-14.39640679100661
 30
0.0
 10
-8.441719014168976
 20
-14.87102484988229
 30
0.0
  0
SPLINE
  5
F2
330
1F
100
AcDbEntity
  8
0
  6
Continuous
 62
     7
100
AcDbSpline
210
0.0
220
0.0
230
1.0
 70
     8
 71
     3
 72
    15
 73
    11
 74
     0
 42
0.00000001
 43
0.00000001
 40
0.0
 40
0.0
 40
0.0
 40
0.0
 40
0.264201466492292
 40
0.395365365010622
 40
0.4481121830043133
 40
0.4999998672116576
 40
0.5518875514190018
 40
0.6046343694127162
 40
0.7357982679310328
 40
0.9999999999999999
 40
0.9999999999999999
 40
0.9999999999999999
 40
0.9999999999999999
 10
-7.674835622310638
 20
-15.28093157696754
 30
0.0
 10
-6.614967201930932
 20
-14.37464699281185
 30
0.0
 10
-6.183131844377705
 20
-13.83352293706457
 30
0.0
 10
-5.953294138142286
 20
-13.67640332552194
 30
0.0
 10
-5.682848970621571
 20
-13.71961105779263
 30
0.0
 10
-5.461062878240186
 20
-13.88029218919728
 30
0.0
 10
-5.409643420367948
 20
-14.15391233262802
 30
0.0
 10
-5.486922199967985
 20
-14.84189853159202
 30
0.0
 10
-5.378320723723648
 20
-16.23217995811912
 30
0.0
 10
-5.454647684196027
 20
-15.7634459581945
 30
0.0
 10
-5.378320723723649
 20
-16.23217995811913
 30
0.0
  0
MTEXT
  5
F4
330
1F
100
AcDbEntity
  8
0
  6
Continuous
 62
     7
100
AcDbMText
 10
-17.0547730663
 20
-18.0743394579
 30
0.0
 40
4.83362
 41
0.0
 71
     1
 72
     1
  1
SOLIDWORKS Educational Product.
  7
SLDTEXTSTYLE0
 73
     1
 44
1.0
  0
MTEXT
  5
F5
330
1F
100
AcDbEntity
  8
0
  6
Continuous
 62
     7
100
AcDbMText
 10
-17.0547730663
 20
-25.3247694579
 30
0.0
 40
4.83362
 41
0.0
 71
     1
 72
     1
  1
For Instructional Use Only.
  7
SLDTEXTSTYLE0
 73
     1
 44
1.0
  0
ENDSEC
  0
SECTION
  2
OBJECTS
  0
DICTIONARY
  5
C
330
0
100
AcDbDictionary
281
     1
  3
ACAD_GROUP
350
D
  3
ACAD_LAYOUT
350
1A
  3
ACAD_MLINESTYLE
350
17
  3
ACAD_PLOTSETTINGS
350
19
  3
ACAD_PLOTSTYLENAME
350
E
  3
ACAD_SCALELIST
350
47
  3
DWGPROPS
350
F6
  0
DICTIONARY
  5
D
102
{ACAD_REACTORS
330
C
102
}
330
C
100
AcDbDictionary
281
     1
  0
DICTIONARY
  5
1A
102
{ACAD_REACTORS
330
C
102
}
330
C
100
AcDbDictionary
281
     1
  3
Layout1
350
1E
  3
Layout2
350
26
  3
Model
350
22
  0
DICTIONARY
  5
17
102
{ACAD_REACTORS
330
C
102
}
330
C
100
AcDbDictionary
281
     1
  3
Standard
350
18
  0
DICTIONARY
  5
19
102
{ACAD_REACTORS
330
C
102
}
330
C
100
AcDbDictionary
281
     1
  0
ACDBDICTIONARYWDFLT
  5
E
102
{ACAD_REACTORS
330
C
102
}
330
C
100
AcDbDictionary
281
     1
  3
Normal
350
F
100
AcDbDictionaryWithDefault
340
F
  0
DICTIONARY
  5
47
102
{ACAD_REACTORS
330
C
102
}
330
C
100
AcDbDictionary
281
     1
  3
A0
350
48
  3
A1
350
49
  3
A2
350
4A
  3
A3
350
4B
  3
A4
350
4C
  3
A5
350
4D
  3
A6
350
4E
  3
A7
350
4F
  3
A8
350
50
  3
A9
350
51
  3
B0
350
52
  3
B1
350
53
  3
B2
350
54
  3
B3
350
55
  3
B4
350
56
  3
B5
350
57
  3
B6
350
58
  0
XRECORD
  5
F6
102
{ACAD_REACTORS
330
C
102
}
330
C
100
AcDbXrecord
280
     1
  1
DWGPROPS COOKIE
  2

  3

  4

  6

  7

  8
11326
  9

300
=
301
=
302
=
303
=
304
=
305
=
306
=
307
=
308
=
309
=
 40
0.0
 41
2460903.616038704
 42
2460903.61605419
  1

 90
        0
  0
LAYOUT
  5
1E
102
{ACAD_REACTORS
330
1A
102
}
330
1A
100
AcDbPlotSettings
  1

  2
none_device
  4

  6

 40
0.0
 41
0.0
 42
0.0
 43
0.0
 44
0.0
 45
0.0
 46
0.0
 47
0.0
 48
0.0
 49
0.0
140
0.0
141
0.0
142
1.0
143
1.0
 70
   688
 72
     1
 73
     0
 74
     5
  7

 75
    16
147
1.0
148
0.0
149
0.0
100
AcDbLayout
  1
Layout1
 70
     1
 71
     1
 10
0.0
 20
0.0
 11
420.0
 21
297.0
 12
0.0
 22
0.0
 32
0.0
 14
1.0000000000E+20
 24
1.0000000000E+20
 34
1.0000000000E+20
 15
-1.0000000000E+20
 25
-1.0000000000E+20
 35
-1.0000000000E+20
146
0.0
 13
0.0
 23
0.0
 33
0.0
 16
1.0
 26
0.0
 36
0.0
 17
0.0
 27
1.0
 37
0.0
 76
     0
330
1B
  0
LAYOUT
  5
26
102
{ACAD_REACTORS
330
1A
102
}
330
1A
100
AcDbPlotSettings
  1

  2
none_device
  4

  6

 40
0.0
 41
0.0
 42
0.0
 43
0.0
 44
0.0
 45
0.0
 46
0.0
 47
0.0
 48
0.0
 49
0.0
140
0.0
141
0.0
142
1.0
143
1.0
 70
   688
 72
     1
 73
     0
 74
     5
  7

 75
    16
147
1.0
148
0.0
149
0.0
100
AcDbLayout
  1
Layout2
 70
     1
 71
     2
 10
0.0
 20
0.0
 11
0.0
 21
0.0
 12
0.0
 22
0.0
 32
0.0
 14
0.0
 24
0.0
 34
0.0
 15
0.0
 25
0.0
 35
0.0
146
0.0
 13
0.0
 23
0.0
 33
0.0
 16
1.0
 26
0.0
 36
0.0
 17
0.0
 27
1.0
 37
0.0
 76
     0
330
23
  0
LAYOUT
  5
22
102
{ACAD_REACTORS
330
1A
102
}
330
1A
100
AcDbPlotSettings
  1

  2
none_device
  4
ANSI_A_(11.00_x_8.50_Inches)
  6

 40
6.35
 41
19.05
 42
6.35000508
 43
19.05000254
 44
279.4
 45
215.9
 46
133.34999746
 47
88.89999873
 48
0.0
 49
0.0
140
0.0
141
0.0
142
0.2467051296
143
1.0
 70
  1696
 72
     0
 73
     0
 74
     0
  7

 75
     0
147
0.0179189148
148
-1300.4909072572
149
0.0
100
AcDbLayout
  1
Model
 70
     1
 71
     0
 10
0.0
 20
0.0
 11
420.0
 21
297.0
 12
0.0
 22
0.0
 32
0.0
 14
-17.0547730663
 24
-17.0547730663
 34
0.0
 15
17.0547730663
 25
17.0547730663
 35
0.0
146
0.0
 13
0.0
 23
0.0
 33
0.0
 16
1.0
 26
0.0
 36
0.0
 17
0.0
 27
1.0
 37
0.0
 76
     0
330
1F
331
29
  0
MLINESTYLE
  5
18
102
{ACAD_REACTORS
330
17
102
}
330
17
100
AcDbMlineStyle
  2
Standard
 70
     0
  3

 62
   256
 51
90.0
 52
90.0
 71
     2
 49
0.5
 62
   256
  6
BYLAYER
 49
-0.5
 62
   256
  6
BYLAYER
  0
ACDBPLACEHOLDER
  5
F
102
{ACAD_REACTORS
330
E
102
}
330
E
  0
SCALE
  5
48
102
{ACAD_REACTORS
330
47
102
}
330
47
100
AcDbScale
 70
     0
300
1:1
140
1.0
141
1.0
290
     1
  0
SCALE
  5
49
102
{ACAD_REACTORS
330
47
102
}
330
47
100
AcDbScale
 70
     0
300
1:2
140
1.0
141
2.0
290
     0
  0
SCALE
  5
4A
102
{ACAD_REACTORS
330
47
102
}
330
47
100
AcDbScale
 70
     0
300
1:4
140
1.0
141
4.0
290
     0
  0
SCALE
  5
4B
102
{ACAD_REACTORS
330
47
102
}
330
47
100
AcDbScale
 70
     0
300
1:5
140
1.0
141
5.0
290
     0
  0
SCALE
  5
4C
102
{ACAD_REACTORS
330
47
102
}
330
47
100
AcDbScale
 70
     0
300
1:8
140
1.0
141
8.0
290
     0
  0
SCALE
  5
4D
102
{ACAD_REACTORS
330
47
102
}
330
47
100
AcDbScale
 70
     0
300
1:10
140
1.0
141
10.0
290
     0
  0
SCALE
  5
4E
102
{ACAD_REACTORS
330
47
102
}
330
47
100
AcDbScale
 70
     0
300
1:16
140
1.0
141
16.0
290
     0
  0
SCALE
  5
4F
102
{ACAD_REACTORS
330
47
102
}
330
47
100
AcDbScale
 70
     0
300
1:20
140
1.0
141
20.0
290
     0
  0
SCALE
  5
50
102
{ACAD_REACTORS
330
47
102
}
330
47
100
AcDbScale
 70
     0
300
1:30
140
1.0
141
30.0
290
     0
  0
SCALE
  5
51
102
{ACAD_REACTORS
330
47
102
}
330
47
100
AcDbScale
 70
     0
300
1:40
140
1.0
141
40.0
290
     0
  0
SCALE
  5
52
102
{ACAD_REACTORS
330
47
102
}
330
47
100
AcDbScale
 70
     0
300
1:50
140
1.0
141
50.0
290
     0
  0
SCALE
  5
53
102
{ACAD_REACTORS
330
47
102
}
330
47
100
AcDbScale
 70
     0
300
1:100
140
1.0
141
100.0
290
     0
  0
SCALE
  5
54
102
{ACAD_REACTORS
330
47
102
}
330
47
100
AcDbScale
 70
     0
300
2:1
140
2.0
141
1.0
290
     0
  0
SCALE
  5
55
102
{ACAD_REACTORS
330
47
102
}
330
47
100
AcDbScale
 70
     0
300
4:1
140
4.0
141
1.0
290
     0
  0
SCALE
  5
56
102
{ACAD_REACTORS
330
47
102
}
330
47
100
AcDbScale
 70
     0
300
8:1
140
8.0
141
1.0
290
     0
  0
SCALE
  5
57
102
{ACAD_REACTORS
330
47
102
}
330
47
100
AcDbScale
 70
     0
300
10:1
140
10.0
141
1.0
290
     0
  0
SCALE
  5
58
102
{ACAD_REACTORS
330
47
102
}
330
47
100
AcDbScale
 70
     0
300
100:1
140
100.0
141
1.0
290
     0
  0
ENDSEC
  0
EOF
